<svg xmlns="http://www.w3.org/2000/svg" viewBox="0 0 1100 436" width="100%" height="auto">
<rect width="1100" height="436" fill="#ffffff"/>
<text x="24" y="32" font-size="22" font-family="Menlo, monospace" fill="#0f172a">All P-cores Parallel GFLOPS</text>
<text x="24" y="52" font-size="12" font-family="Menlo, monospace" fill="#475569">Throughput with all P-cores running in parallel. Higher is better.</text>
<rect x="260" y="62" width="12" height="12" rx="2" fill="#2563eb"/>
<text x="276" y="73" font-size="11" font-family="Menlo, monospace" fill="#334155">Apple M4 Pro (Virtual)</text>
<text x="16" y="94" font-size="12" font-family="Menlo, monospace" fill="#111827">fma16 matrix</text>
<rect x="260" y="80" width="720.0" height="16" rx="3" fill="#2563eb"/>
<text x="986.0" y="92" font-size="10" font-family="Menlo, monospace" fill="#334155">8164.2 GFLOPS</text>
<text x="16" y="126" font-size="12" font-family="Menlo, monospace" fill="#111827">mac16 matrix</text>
<rect x="260" y="112" width="453.5" height="16" rx="3" fill="#2563eb"/>
<text x="719.5" y="124" font-size="10" font-family="Menlo, monospace" fill="#334155">5142.8 GFLOPS</text>
<text x="16" y="158" font-size="12" font-family="Menlo, monospace" fill="#111827">fma32 matrix</text>
<rect x="260" y="144" width="365.9" height="16" rx="3" fill="#2563eb"/>
<text x="631.9" y="156" font-size="10" font-family="Menlo, monospace" fill="#334155">4148.7 GFLOPS</text>
<text x="16" y="190" font-size="12" font-family="Menlo, monospace" fill="#111827">fma16 vector</text>
<rect x="260" y="176" width="42.4" height="16" rx="3" fill="#2563eb"/>
<text x="308.4" y="188" font-size="10" font-family="Menlo, monospace" fill="#334155">480.9 GFLOPS</text>
<text x="16" y="222" font-size="12" font-family="Menlo, monospace" fill="#111827">mac16 vector</text>
<rect x="260" y="208" width="29.8" height="16" rx="3" fill="#2563eb"/>
<text x="295.8" y="220" font-size="10" font-family="Menlo, monospace" fill="#334155">337.9 GFLOPS</text>
<text x="16" y="254" font-size="12" font-family="Menlo, monospace" fill="#111827">fma64 matrix</text>
<rect x="260" y="240" width="90.5" height="16" rx="3" fill="#2563eb"/>
<text x="356.5" y="252" font-size="10" font-family="Menlo, monospace" fill="#334155">1026.6 GFLOPS</text>
<text x="16" y="286" font-size="12" font-family="Menlo, monospace" fill="#111827">fma32 vector</text>
<rect x="260" y="272" width="22.3" height="16" rx="3" fill="#2563eb"/>
<text x="288.3" y="284" font-size="10" font-family="Menlo, monospace" fill="#334155">252.7 GFLOPS</text>
<text x="16" y="318" font-size="12" font-family="Menlo, monospace" fill="#111827">fma64 vector</text>
<rect x="260" y="304" width="12.1" height="16" rx="3" fill="#2563eb"/>
<text x="278.1" y="316" font-size="10" font-family="Menlo, monospace" fill="#334155">137.4 GFLOPS</text>
</svg>