<svg xmlns="http://www.w3.org/2000/svg" viewBox="0 0 500 602" width="100%" height="auto">
<rect width="500" height="602" fill="#ffffff"/>
<text x="24" y="36" font-size="22" font-family="Menlo, monospace" fill="#0f172a">AMX Function Throughput Across Apple Silicon</text>
<text x="24" y="56" font-size="12" font-family="Menlo, monospace" fill="#475569">GFLOPS for each instruction. Darker green = higher throughput.</text>
<text x="264" y="82" font-size="12" font-family="Menlo, monospace" fill="#111827">Apple M4 Pro (Virtual)</text>
<text x="264" y="96" font-size="10" font-family="Menlo, monospace" fill="#6b7280">10 cores</text>
<text x="16" y="124" font-size="13" font-family="Menlo, monospace" font-weight="bold" fill="#0f172a">Single P-core</text>
<text x="24" y="145" font-size="10" font-family="Menlo, monospace" fill="#334155">fma16 vector (32 f16)</text>
<rect x="260" y="130" width="174" height="20" rx="3" fill="#16639e"/>
<text x="266" y="144" font-size="10" font-family="Menlo, monospace" fill="#f8fafc">62.5 GF</text>
<text x="24" y="167" font-size="10" font-family="Menlo, monospace" fill="#334155">fma16 matrix (32×32)</text>
<rect x="260" y="152" width="174" height="20" rx="3" fill="#0ea584"/>
<text x="266" y="166" font-size="10" font-family="Menlo, monospace" fill="#f8fafc">1995.9 GF</text>
<text x="24" y="189" font-size="10" font-family="Menlo, monospace" fill="#334155">fma32 vector (16 f32)</text>
<rect x="260" y="174" width="174" height="20" rx="3" fill="#1a51a6"/>
<text x="266" y="188" font-size="10" font-family="Menlo, monospace" fill="#f8fafc">31.1 GF</text>
<text x="24" y="211" font-size="10" font-family="Menlo, monospace" fill="#334155">fma32 matrix (16×16)</text>
<rect x="260" y="196" width="174" height="20" rx="3" fill="#0d9587"/>
<text x="266" y="210" font-size="10" font-family="Menlo, monospace" fill="#f8fafc">492.2 GF</text>
<text x="24" y="233" font-size="10" font-family="Menlo, monospace" fill="#334155">fma64 vector (8 f64)</text>
<rect x="260" y="218" width="174" height="20" rx="3" fill="#1e40af"/>
<text x="266" y="232" font-size="10" font-family="Menlo, monospace" fill="#f8fafc">15.6 GF</text>
<text x="24" y="255" font-size="10" font-family="Menlo, monospace" fill="#334155">fma64 matrix (8×8)</text>
<rect x="260" y="240" width="174" height="20" rx="3" fill="#137596"/>
<text x="266" y="254" font-size="10" font-family="Menlo, monospace" fill="#f8fafc">125.6 GF</text>
<text x="24" y="277" font-size="10" font-family="Menlo, monospace" fill="#334155">mac16 vector (32 i16)</text>
<rect x="260" y="262" width="174" height="20" rx="3" fill="#16639e"/>
<text x="266" y="276" font-size="10" font-family="Menlo, monospace" fill="#f8fafc">62.6 GF</text>
<text x="24" y="299" font-size="10" font-family="Menlo, monospace" fill="#334155">mac16 matrix (32×32)</text>
<rect x="260" y="284" width="174" height="20" rx="3" fill="#0ea584"/>
<text x="266" y="298" font-size="10" font-family="Menlo, monospace" fill="#f8fafc">1966.6 GF</text>
<text x="16" y="350" font-size="13" font-family="Menlo, monospace" font-weight="bold" fill="#0f172a">Whole chip (all cores)</text>
<text x="24" y="371" font-size="10" font-family="Menlo, monospace" fill="#334155">fma16 vector (32 f16)</text>
<rect x="260" y="356" width="174" height="20" rx="3" fill="#0d9787"/>
<text x="266" y="370" font-size="10" font-family="Menlo, monospace" fill="#f8fafc">549.3 GF</text>
<text x="24" y="393" font-size="10" font-family="Menlo, monospace" fill="#334155">fma16 matrix (32×32)</text>
<rect x="260" y="378" width="174" height="20" rx="3" fill="#10b981"/>
<text x="266" y="392" font-size="10" font-family="Menlo, monospace" fill="#f8fafc">11152.5 GF</text>
<text x="24" y="415" font-size="10" font-family="Menlo, monospace" fill="#334155">fma32 vector (16 f32)</text>
<rect x="260" y="400" width="174" height="20" rx="3" fill="#0f888d"/>
<text x="266" y="414" font-size="10" font-family="Menlo, monospace" fill="#f8fafc">269.6 GF</text>
<text x="24" y="437" font-size="10" font-family="Menlo, monospace" fill="#334155">fma32 matrix (16×16)</text>
<rect x="260" y="422" width="174" height="20" rx="3" fill="#0fac83"/>
<text x="266" y="436" font-size="10" font-family="Menlo, monospace" fill="#f8fafc">3821.8 GF</text>
<text x="24" y="459" font-size="10" font-family="Menlo, monospace" fill="#334155">fma64 vector (8 f64)</text>
<rect x="260" y="444" width="174" height="20" rx="3" fill="#137596"/>
<text x="266" y="458" font-size="10" font-family="Menlo, monospace" fill="#f8fafc">124.4 GF</text>
<text x="24" y="481" font-size="10" font-family="Menlo, monospace" fill="#334155">fma64 matrix (8×8)</text>
<rect x="260" y="466" width="174" height="20" rx="3" fill="#0d9d86"/>
<text x="266" y="480" font-size="10" font-family="Menlo, monospace" fill="#f8fafc">1009.8 GF</text>
<text x="24" y="503" font-size="10" font-family="Menlo, monospace" fill="#334155">mac16 vector (32 i16)</text>
<rect x="260" y="488" width="174" height="20" rx="3" fill="#0d9487"/>
<text x="266" y="502" font-size="10" font-family="Menlo, monospace" fill="#f8fafc">430.3 GF</text>
<text x="24" y="525" font-size="10" font-family="Menlo, monospace" fill="#334155">mac16 matrix (32×32)</text>
<rect x="260" y="510" width="174" height="20" rx="3" fill="#0fb082"/>
<text x="266" y="524" font-size="10" font-family="Menlo, monospace" fill="#f8fafc">5247.7 GF</text>
<rect x="260" y="572" width="36" height="14" rx="2" fill="#1e40af"/>
<rect x="300" y="572" width="36" height="14" rx="2" fill="#1958a3"/>
<rect x="340" y="572" width="36" height="14" rx="2" fill="#147098"/>
<rect x="380" y="572" width="36" height="14" rx="2" fill="#0f888d"/>
<rect x="420" y="572" width="36" height="14" rx="2" fill="#0d9987"/>
<rect x="460" y="572" width="36" height="14" rx="2" fill="#0ea385"/>
<rect x="500" y="572" width="36" height="14" rx="2" fill="#0fae83"/>
<rect x="540" y="572" width="36" height="14" rx="2" fill="#10b981"/>
<text x="260" y="600" font-size="11" font-family="Menlo, monospace" fill="#334155">low</text>
<text x="540" y="600" font-size="11" font-family="Menlo, monospace" fill="#334155">high</text>
</svg>