<svg xmlns="http://www.w3.org/2000/svg" viewBox="0 0 1000 420" width="100%" height="auto">
<rect width="1000" height="420" fill="#ffffff"/>
<text x="24" y="32" font-size="20" font-family="Menlo,monospace" fill="#0f172a">Dot Product GFLOPS vs Vector Length</text>
<text x="24" y="52" font-size="11" font-family="Menlo,monospace" fill="#64748b">Apple M1 (Virtual) · f32 · log scale · higher is better</text>
<rect x="80" y="54" width="10" height="10" rx="2" fill="#6366f1"/>
<text x="94" y="63" font-size="11" font-family="Menlo,monospace" fill="#334155">Scalar Rust</text>
<rect x="260" y="54" width="10" height="10" rx="2" fill="#f59e0b"/>
<text x="274" y="63" font-size="11" font-family="Menlo,monospace" fill="#334155">AMX (1 core)</text>
<rect x="440" y="54" width="10" height="10" rx="2" fill="#ef4444"/>
<text x="454" y="63" font-size="11" font-family="Menlo,monospace" fill="#334155">AMX (all cores)</text>
<rect x="620" y="54" width="10" height="10" rx="2" fill="#10b981"/>
<text x="634" y="63" font-size="11" font-family="Menlo,monospace" fill="#334155">Accelerate</text>
<line x1="80" y1="70" x2="80" y2="360" stroke="#cbd5e1"/>
<line x1="80" y1="360" x2="960" y2="360" stroke="#cbd5e1"/>
<line x1="80" y1="332.3" x2="960" y2="332.3" stroke="#f1f5f9"/>
<text x="74" y="336.3" font-size="9" font-family="Menlo,monospace" fill="#64748b" text-anchor="end">0.50</text>
<line x1="80" y1="289.7" x2="960" y2="289.7" stroke="#f1f5f9"/>
<text x="74" y="293.7" font-size="9" font-family="Menlo,monospace" fill="#64748b" text-anchor="end">1</text>
<line x1="80" y1="247.1" x2="960" y2="247.1" stroke="#f1f5f9"/>
<text x="74" y="251.1" font-size="9" font-family="Menlo,monospace" fill="#64748b" text-anchor="end">2</text>
<line x1="80" y1="190.8" x2="960" y2="190.8" stroke="#f1f5f9"/>
<text x="74" y="194.8" font-size="9" font-family="Menlo,monospace" fill="#64748b" text-anchor="end">5</text>
<line x1="80" y1="148.3" x2="960" y2="148.3" stroke="#f1f5f9"/>
<text x="74" y="152.3" font-size="9" font-family="Menlo,monospace" fill="#64748b" text-anchor="end">10</text>
<line x1="80" y1="105.7" x2="960" y2="105.7" stroke="#f1f5f9"/>
<text x="74" y="109.7" font-size="9" font-family="Menlo,monospace" fill="#64748b" text-anchor="end">20</text>
<text x="80.0" y="378" font-size="9" font-family="Menlo,monospace" fill="#64748b" text-anchor="middle">1</text>
<text x="168.0" y="378" font-size="9" font-family="Menlo,monospace" fill="#64748b" text-anchor="middle">4</text>
<text x="256.0" y="378" font-size="9" font-family="Menlo,monospace" fill="#64748b" text-anchor="middle">16</text>
<text x="344.0" y="378" font-size="9" font-family="Menlo,monospace" fill="#64748b" text-anchor="middle">64</text>
<text x="432.0" y="378" font-size="9" font-family="Menlo,monospace" fill="#64748b" text-anchor="middle">256</text>
<text x="520.0" y="378" font-size="9" font-family="Menlo,monospace" fill="#64748b" text-anchor="middle">1024</text>
<text x="608.0" y="378" font-size="9" font-family="Menlo,monospace" fill="#64748b" text-anchor="middle">4096</text>
<text x="696.0" y="378" font-size="9" font-family="Menlo,monospace" fill="#64748b" text-anchor="middle">16384</text>
<text x="784.0" y="378" font-size="9" font-family="Menlo,monospace" fill="#64748b" text-anchor="middle">65536</text>
<text x="872.0" y="378" font-size="9" font-family="Menlo,monospace" fill="#64748b" text-anchor="middle">262144</text>
<text x="960.0" y="378" font-size="9" font-family="Menlo,monospace" fill="#64748b" text-anchor="middle">1048576</text>
<polyline points="80.0,249.6 168.0,184.1 256.0,148.4 344.0,291.3 432.0,211.8 520.0,243.8 608.0,245.4 696.0,245.9 784.0,245.8 872.0,247.1 960.0,247.0" fill="none" stroke="#6366f1" stroke-width="2.5"/>
<circle cx="80.0" cy="249.6" r="3.5" fill="#6366f1"/>
<circle cx="168.0" cy="184.1" r="3.5" fill="#6366f1"/>
<circle cx="256.0" cy="148.4" r="3.5" fill="#6366f1"/>
<circle cx="344.0" cy="291.3" r="3.5" fill="#6366f1"/>
<circle cx="432.0" cy="211.8" r="3.5" fill="#6366f1"/>
<circle cx="520.0" cy="243.8" r="3.5" fill="#6366f1"/>
<circle cx="608.0" cy="245.4" r="3.5" fill="#6366f1"/>
<circle cx="696.0" cy="245.9" r="3.5" fill="#6366f1"/>
<circle cx="784.0" cy="245.8" r="3.5" fill="#6366f1"/>
<circle cx="872.0" cy="247.1" r="3.5" fill="#6366f1"/>
<circle cx="960.0" cy="247.0" r="3.5" fill="#6366f1"/>
<polyline points="80.0,249.6 168.0,184.1 256.0,148.4 344.0,291.3 432.0,211.8 520.0,243.8 608.0,245.4 696.0,245.9 784.0,245.8 872.0,247.1 960.0,247.0" fill="none" stroke="#f59e0b" stroke-width="2.5"/>
<circle cx="80.0" cy="249.6" r="3.5" fill="#f59e0b"/>
<circle cx="168.0" cy="184.1" r="3.5" fill="#f59e0b"/>
<circle cx="256.0" cy="148.4" r="3.5" fill="#f59e0b"/>
<circle cx="344.0" cy="291.3" r="3.5" fill="#f59e0b"/>
<circle cx="432.0" cy="211.8" r="3.5" fill="#f59e0b"/>
<circle cx="520.0" cy="243.8" r="3.5" fill="#f59e0b"/>
<circle cx="608.0" cy="245.4" r="3.5" fill="#f59e0b"/>
<circle cx="696.0" cy="245.9" r="3.5" fill="#f59e0b"/>
<circle cx="784.0" cy="245.8" r="3.5" fill="#f59e0b"/>
<circle cx="872.0" cy="247.1" r="3.5" fill="#f59e0b"/>
<circle cx="960.0" cy="247.0" r="3.5" fill="#f59e0b"/>
<polyline points="80.0,249.6 168.0,184.1 256.0,148.4 344.0,291.3 432.0,211.8 520.0,243.8 608.0,245.4 696.0,245.9 784.0,245.8 872.0,247.1 960.0,247.0" fill="none" stroke="#ef4444" stroke-width="2.5"/>
<circle cx="80.0" cy="249.6" r="3.5" fill="#ef4444"/>
<circle cx="168.0" cy="184.1" r="3.5" fill="#ef4444"/>
<circle cx="256.0" cy="148.4" r="3.5" fill="#ef4444"/>
<circle cx="344.0" cy="291.3" r="3.5" fill="#ef4444"/>
<circle cx="432.0" cy="211.8" r="3.5" fill="#ef4444"/>
<circle cx="520.0" cy="243.8" r="3.5" fill="#ef4444"/>
<circle cx="608.0" cy="245.4" r="3.5" fill="#ef4444"/>
<circle cx="696.0" cy="245.9" r="3.5" fill="#ef4444"/>
<circle cx="784.0" cy="245.8" r="3.5" fill="#ef4444"/>
<circle cx="872.0" cy="247.1" r="3.5" fill="#ef4444"/>
<circle cx="960.0" cy="247.0" r="3.5" fill="#ef4444"/>
<polyline points="80.0,346.3 168.0,260.2 256.0,183.8 344.0,120.8 432.0,83.8 520.0,81.2 608.0,91.2 696.0,91.9 784.0,105.1 872.0,107.5 960.0,121.7" fill="none" stroke="#10b981" stroke-width="2.5"/>
<circle cx="80.0" cy="346.3" r="3.5" fill="#10b981"/>
<circle cx="168.0" cy="260.2" r="3.5" fill="#10b981"/>
<circle cx="256.0" cy="183.8" r="3.5" fill="#10b981"/>
<circle cx="344.0" cy="120.8" r="3.5" fill="#10b981"/>
<circle cx="432.0" cy="83.8" r="3.5" fill="#10b981"/>
<circle cx="520.0" cy="81.2" r="3.5" fill="#10b981"/>
<circle cx="608.0" cy="91.2" r="3.5" fill="#10b981"/>
<circle cx="696.0" cy="91.9" r="3.5" fill="#10b981"/>
<circle cx="784.0" cy="105.1" r="3.5" fill="#10b981"/>
<circle cx="872.0" cy="107.5" r="3.5" fill="#10b981"/>
<circle cx="960.0" cy="121.7" r="3.5" fill="#10b981"/>
<text x="70" y="215" font-size="10" font-family="Menlo,monospace" fill="#475569" text-anchor="middle" transform="rotate(-90 30 215)">GFLOPS</text>
</svg>