<svg xmlns="http://www.w3.org/2000/svg" viewBox="0 0 1000 420" width="100%" height="auto">
<rect width="1000" height="420" fill="#ffffff"/>
<text x="24" y="32" font-size="20" font-family="Menlo,monospace" fill="#0f172a">Dot Product GFLOPS vs Vector Length</text>
<text x="24" y="52" font-size="11" font-family="Menlo,monospace" fill="#64748b">Apple M1 (Virtual) · f32 · log scale · higher is better</text>
<rect x="80" y="54" width="10" height="10" rx="2" fill="#6366f1"/>
<text x="94" y="63" font-size="11" font-family="Menlo,monospace" fill="#334155">Scalar Rust</text>
<rect x="260" y="54" width="10" height="10" rx="2" fill="#f59e0b"/>
<text x="274" y="63" font-size="11" font-family="Menlo,monospace" fill="#334155">AMX (1 core)</text>
<rect x="440" y="54" width="10" height="10" rx="2" fill="#ef4444"/>
<text x="454" y="63" font-size="11" font-family="Menlo,monospace" fill="#334155">AMX (all cores)</text>
<rect x="620" y="54" width="10" height="10" rx="2" fill="#10b981"/>
<text x="634" y="63" font-size="11" font-family="Menlo,monospace" fill="#334155">Accelerate</text>
<line x1="80" y1="70" x2="80" y2="360" stroke="#cbd5e1"/>
<line x1="80" y1="360" x2="960" y2="360" stroke="#cbd5e1"/>
<line x1="80" y1="334.2" x2="960" y2="334.2" stroke="#f1f5f9"/>
<text x="74" y="338.2" font-size="9" font-family="Menlo,monospace" fill="#64748b" text-anchor="end">0.50</text>
<line x1="80" y1="291.3" x2="960" y2="291.3" stroke="#f1f5f9"/>
<text x="74" y="295.3" font-size="9" font-family="Menlo,monospace" fill="#64748b" text-anchor="end">1</text>
<line x1="80" y1="248.4" x2="960" y2="248.4" stroke="#f1f5f9"/>
<text x="74" y="252.4" font-size="9" font-family="Menlo,monospace" fill="#64748b" text-anchor="end">2</text>
<line x1="80" y1="191.7" x2="960" y2="191.7" stroke="#f1f5f9"/>
<text x="74" y="195.7" font-size="9" font-family="Menlo,monospace" fill="#64748b" text-anchor="end">5</text>
<line x1="80" y1="148.8" x2="960" y2="148.8" stroke="#f1f5f9"/>
<text x="74" y="152.8" font-size="9" font-family="Menlo,monospace" fill="#64748b" text-anchor="end">10</text>
<line x1="80" y1="105.9" x2="960" y2="105.9" stroke="#f1f5f9"/>
<text x="74" y="109.9" font-size="9" font-family="Menlo,monospace" fill="#64748b" text-anchor="end">20</text>
<text x="80.0" y="378" font-size="9" font-family="Menlo,monospace" fill="#64748b" text-anchor="middle">1</text>
<text x="168.0" y="378" font-size="9" font-family="Menlo,monospace" fill="#64748b" text-anchor="middle">4</text>
<text x="256.0" y="378" font-size="9" font-family="Menlo,monospace" fill="#64748b" text-anchor="middle">16</text>
<text x="344.0" y="378" font-size="9" font-family="Menlo,monospace" fill="#64748b" text-anchor="middle">64</text>
<text x="432.0" y="378" font-size="9" font-family="Menlo,monospace" fill="#64748b" text-anchor="middle">256</text>
<text x="520.0" y="378" font-size="9" font-family="Menlo,monospace" fill="#64748b" text-anchor="middle">1024</text>
<text x="608.0" y="378" font-size="9" font-family="Menlo,monospace" fill="#64748b" text-anchor="middle">4096</text>
<text x="696.0" y="378" font-size="9" font-family="Menlo,monospace" fill="#64748b" text-anchor="middle">16384</text>
<text x="784.0" y="378" font-size="9" font-family="Menlo,monospace" fill="#64748b" text-anchor="middle">65536</text>
<text x="872.0" y="378" font-size="9" font-family="Menlo,monospace" fill="#64748b" text-anchor="middle">262144</text>
<text x="960.0" y="378" font-size="9" font-family="Menlo,monospace" fill="#64748b" text-anchor="middle">1048576</text>
<polyline points="80.0,246.8 168.0,183.1 256.0,149.0 344.0,178.5 432.0,213.0 520.0,244.0 608.0,247.4 696.0,246.7 784.0,244.9 872.0,247.5 960.0,247.4" fill="none" stroke="#6366f1" stroke-width="2.5"/>
<circle cx="80.0" cy="246.8" r="3.5" fill="#6366f1"/>
<circle cx="168.0" cy="183.1" r="3.5" fill="#6366f1"/>
<circle cx="256.0" cy="149.0" r="3.5" fill="#6366f1"/>
<circle cx="344.0" cy="178.5" r="3.5" fill="#6366f1"/>
<circle cx="432.0" cy="213.0" r="3.5" fill="#6366f1"/>
<circle cx="520.0" cy="244.0" r="3.5" fill="#6366f1"/>
<circle cx="608.0" cy="247.4" r="3.5" fill="#6366f1"/>
<circle cx="696.0" cy="246.7" r="3.5" fill="#6366f1"/>
<circle cx="784.0" cy="244.9" r="3.5" fill="#6366f1"/>
<circle cx="872.0" cy="247.5" r="3.5" fill="#6366f1"/>
<circle cx="960.0" cy="247.4" r="3.5" fill="#6366f1"/>
<polyline points="80.0,246.8 168.0,183.1 256.0,149.0 344.0,178.5 432.0,213.0 520.0,244.0 608.0,247.4 696.0,246.7 784.0,244.9 872.0,247.5 960.0,247.4" fill="none" stroke="#f59e0b" stroke-width="2.5"/>
<circle cx="80.0" cy="246.8" r="3.5" fill="#f59e0b"/>
<circle cx="168.0" cy="183.1" r="3.5" fill="#f59e0b"/>
<circle cx="256.0" cy="149.0" r="3.5" fill="#f59e0b"/>
<circle cx="344.0" cy="178.5" r="3.5" fill="#f59e0b"/>
<circle cx="432.0" cy="213.0" r="3.5" fill="#f59e0b"/>
<circle cx="520.0" cy="244.0" r="3.5" fill="#f59e0b"/>
<circle cx="608.0" cy="247.4" r="3.5" fill="#f59e0b"/>
<circle cx="696.0" cy="246.7" r="3.5" fill="#f59e0b"/>
<circle cx="784.0" cy="244.9" r="3.5" fill="#f59e0b"/>
<circle cx="872.0" cy="247.5" r="3.5" fill="#f59e0b"/>
<circle cx="960.0" cy="247.4" r="3.5" fill="#f59e0b"/>
<polyline points="80.0,246.8 168.0,183.1 256.0,149.0 344.0,178.5 432.0,213.0 520.0,244.0 608.0,247.4 696.0,246.7 784.0,244.9 872.0,247.5 960.0,247.4" fill="none" stroke="#ef4444" stroke-width="2.5"/>
<circle cx="80.0" cy="246.8" r="3.5" fill="#ef4444"/>
<circle cx="168.0" cy="183.1" r="3.5" fill="#ef4444"/>
<circle cx="256.0" cy="149.0" r="3.5" fill="#ef4444"/>
<circle cx="344.0" cy="178.5" r="3.5" fill="#ef4444"/>
<circle cx="432.0" cy="213.0" r="3.5" fill="#ef4444"/>
<circle cx="520.0" cy="244.0" r="3.5" fill="#ef4444"/>
<circle cx="608.0" cy="247.4" r="3.5" fill="#ef4444"/>
<circle cx="696.0" cy="246.7" r="3.5" fill="#ef4444"/>
<circle cx="784.0" cy="244.9" r="3.5" fill="#ef4444"/>
<circle cx="872.0" cy="247.5" r="3.5" fill="#ef4444"/>
<circle cx="960.0" cy="247.4" r="3.5" fill="#ef4444"/>
<polyline points="80.0,346.2 168.0,252.8 256.0,185.1 344.0,121.2 432.0,101.3 520.0,81.3 608.0,91.5 696.0,89.9 784.0,103.3 872.0,103.4 960.0,111.3" fill="none" stroke="#10b981" stroke-width="2.5"/>
<circle cx="80.0" cy="346.2" r="3.5" fill="#10b981"/>
<circle cx="168.0" cy="252.8" r="3.5" fill="#10b981"/>
<circle cx="256.0" cy="185.1" r="3.5" fill="#10b981"/>
<circle cx="344.0" cy="121.2" r="3.5" fill="#10b981"/>
<circle cx="432.0" cy="101.3" r="3.5" fill="#10b981"/>
<circle cx="520.0" cy="81.3" r="3.5" fill="#10b981"/>
<circle cx="608.0" cy="91.5" r="3.5" fill="#10b981"/>
<circle cx="696.0" cy="89.9" r="3.5" fill="#10b981"/>
<circle cx="784.0" cy="103.3" r="3.5" fill="#10b981"/>
<circle cx="872.0" cy="103.4" r="3.5" fill="#10b981"/>
<circle cx="960.0" cy="111.3" r="3.5" fill="#10b981"/>
<text x="70" y="215" font-size="10" font-family="Menlo,monospace" fill="#475569" text-anchor="middle" transform="rotate(-90 30 215)">GFLOPS</text>
</svg>