<svg xmlns="http://www.w3.org/2000/svg" viewBox="0 0 1000 420" width="100%" height="auto">
<rect width="1000" height="420" fill="#ffffff"/>
<text x="24" y="32" font-size="20" font-family="Menlo,monospace" fill="#0f172a">Dot Product GFLOPS vs Vector Length</text>
<text x="24" y="52" font-size="11" font-family="Menlo,monospace" fill="#64748b">Apple M1 (Virtual) · f32 · log scale · higher is better</text>
<rect x="80" y="54" width="10" height="10" rx="2" fill="#6366f1"/>
<text x="94" y="63" font-size="11" font-family="Menlo,monospace" fill="#334155">Scalar Rust</text>
<rect x="260" y="54" width="10" height="10" rx="2" fill="#f59e0b"/>
<text x="274" y="63" font-size="11" font-family="Menlo,monospace" fill="#334155">AMX (1 core)</text>
<rect x="440" y="54" width="10" height="10" rx="2" fill="#ef4444"/>
<text x="454" y="63" font-size="11" font-family="Menlo,monospace" fill="#334155">AMX (all cores)</text>
<rect x="620" y="54" width="10" height="10" rx="2" fill="#10b981"/>
<text x="634" y="63" font-size="11" font-family="Menlo,monospace" fill="#334155">Accelerate</text>
<line x1="80" y1="70" x2="80" y2="360" stroke="#cbd5e1"/>
<line x1="80" y1="360" x2="960" y2="360" stroke="#cbd5e1"/>
<line x1="80" y1="330.9" x2="960" y2="330.9" stroke="#f1f5f9"/>
<text x="74" y="334.9" font-size="9" font-family="Menlo,monospace" fill="#64748b" text-anchor="end">0.50</text>
<line x1="80" y1="288.6" x2="960" y2="288.6" stroke="#f1f5f9"/>
<text x="74" y="292.6" font-size="9" font-family="Menlo,monospace" fill="#64748b" text-anchor="end">1</text>
<line x1="80" y1="246.2" x2="960" y2="246.2" stroke="#f1f5f9"/>
<text x="74" y="250.2" font-size="9" font-family="Menlo,monospace" fill="#64748b" text-anchor="end">2</text>
<line x1="80" y1="190.2" x2="960" y2="190.2" stroke="#f1f5f9"/>
<text x="74" y="194.2" font-size="9" font-family="Menlo,monospace" fill="#64748b" text-anchor="end">5</text>
<line x1="80" y1="147.8" x2="960" y2="147.8" stroke="#f1f5f9"/>
<text x="74" y="151.8" font-size="9" font-family="Menlo,monospace" fill="#64748b" text-anchor="end">10</text>
<line x1="80" y1="105.5" x2="960" y2="105.5" stroke="#f1f5f9"/>
<text x="74" y="109.5" font-size="9" font-family="Menlo,monospace" fill="#64748b" text-anchor="end">20</text>
<text x="80.0" y="378" font-size="9" font-family="Menlo,monospace" fill="#64748b" text-anchor="middle">1</text>
<text x="168.0" y="378" font-size="9" font-family="Menlo,monospace" fill="#64748b" text-anchor="middle">4</text>
<text x="256.0" y="378" font-size="9" font-family="Menlo,monospace" fill="#64748b" text-anchor="middle">16</text>
<text x="344.0" y="378" font-size="9" font-family="Menlo,monospace" fill="#64748b" text-anchor="middle">64</text>
<text x="432.0" y="378" font-size="9" font-family="Menlo,monospace" fill="#64748b" text-anchor="middle">256</text>
<text x="520.0" y="378" font-size="9" font-family="Menlo,monospace" fill="#64748b" text-anchor="middle">1024</text>
<text x="608.0" y="378" font-size="9" font-family="Menlo,monospace" fill="#64748b" text-anchor="middle">4096</text>
<text x="696.0" y="378" font-size="9" font-family="Menlo,monospace" fill="#64748b" text-anchor="middle">16384</text>
<text x="784.0" y="378" font-size="9" font-family="Menlo,monospace" fill="#64748b" text-anchor="middle">65536</text>
<text x="872.0" y="378" font-size="9" font-family="Menlo,monospace" fill="#64748b" text-anchor="middle">262144</text>
<text x="960.0" y="378" font-size="9" font-family="Menlo,monospace" fill="#64748b" text-anchor="middle">1048576</text>
<polyline points="80.0,247.7 168.0,183.5 256.0,147.2 344.0,177.2 432.0,210.9 520.0,242.4 608.0,244.5 696.0,246.0 784.0,246.0 872.0,248.5 960.0,289.3" fill="none" stroke="#6366f1" stroke-width="2.5"/>
<circle cx="80.0" cy="247.7" r="3.5" fill="#6366f1"/>
<circle cx="168.0" cy="183.5" r="3.5" fill="#6366f1"/>
<circle cx="256.0" cy="147.2" r="3.5" fill="#6366f1"/>
<circle cx="344.0" cy="177.2" r="3.5" fill="#6366f1"/>
<circle cx="432.0" cy="210.9" r="3.5" fill="#6366f1"/>
<circle cx="520.0" cy="242.4" r="3.5" fill="#6366f1"/>
<circle cx="608.0" cy="244.5" r="3.5" fill="#6366f1"/>
<circle cx="696.0" cy="246.0" r="3.5" fill="#6366f1"/>
<circle cx="784.0" cy="246.0" r="3.5" fill="#6366f1"/>
<circle cx="872.0" cy="248.5" r="3.5" fill="#6366f1"/>
<circle cx="960.0" cy="289.3" r="3.5" fill="#6366f1"/>
<polyline points="80.0,247.7 168.0,183.5 256.0,147.2 344.0,177.2 432.0,210.9 520.0,242.4 608.0,244.5 696.0,246.0 784.0,246.0 872.0,248.5 960.0,289.3" fill="none" stroke="#f59e0b" stroke-width="2.5"/>
<circle cx="80.0" cy="247.7" r="3.5" fill="#f59e0b"/>
<circle cx="168.0" cy="183.5" r="3.5" fill="#f59e0b"/>
<circle cx="256.0" cy="147.2" r="3.5" fill="#f59e0b"/>
<circle cx="344.0" cy="177.2" r="3.5" fill="#f59e0b"/>
<circle cx="432.0" cy="210.9" r="3.5" fill="#f59e0b"/>
<circle cx="520.0" cy="242.4" r="3.5" fill="#f59e0b"/>
<circle cx="608.0" cy="244.5" r="3.5" fill="#f59e0b"/>
<circle cx="696.0" cy="246.0" r="3.5" fill="#f59e0b"/>
<circle cx="784.0" cy="246.0" r="3.5" fill="#f59e0b"/>
<circle cx="872.0" cy="248.5" r="3.5" fill="#f59e0b"/>
<circle cx="960.0" cy="289.3" r="3.5" fill="#f59e0b"/>
<polyline points="80.0,247.7 168.0,183.5 256.0,147.2 344.0,177.2 432.0,210.9 520.0,242.4 608.0,244.5 696.0,246.0 784.0,246.0 872.0,248.5 960.0,289.3" fill="none" stroke="#ef4444" stroke-width="2.5"/>
<circle cx="80.0" cy="247.7" r="3.5" fill="#ef4444"/>
<circle cx="168.0" cy="183.5" r="3.5" fill="#ef4444"/>
<circle cx="256.0" cy="147.2" r="3.5" fill="#ef4444"/>
<circle cx="344.0" cy="177.2" r="3.5" fill="#ef4444"/>
<circle cx="432.0" cy="210.9" r="3.5" fill="#ef4444"/>
<circle cx="520.0" cy="242.4" r="3.5" fill="#ef4444"/>
<circle cx="608.0" cy="244.5" r="3.5" fill="#ef4444"/>
<circle cx="696.0" cy="246.0" r="3.5" fill="#ef4444"/>
<circle cx="784.0" cy="246.0" r="3.5" fill="#ef4444"/>
<circle cx="872.0" cy="248.5" r="3.5" fill="#ef4444"/>
<circle cx="960.0" cy="289.3" r="3.5" fill="#ef4444"/>
<polyline points="80.0,346.4 168.0,252.7 256.0,183.7 344.0,120.6 432.0,83.7 520.0,81.1 608.0,91.1 696.0,94.3 784.0,107.8 872.0,113.2 960.0,128.9" fill="none" stroke="#10b981" stroke-width="2.5"/>
<circle cx="80.0" cy="346.4" r="3.5" fill="#10b981"/>
<circle cx="168.0" cy="252.7" r="3.5" fill="#10b981"/>
<circle cx="256.0" cy="183.7" r="3.5" fill="#10b981"/>
<circle cx="344.0" cy="120.6" r="3.5" fill="#10b981"/>
<circle cx="432.0" cy="83.7" r="3.5" fill="#10b981"/>
<circle cx="520.0" cy="81.1" r="3.5" fill="#10b981"/>
<circle cx="608.0" cy="91.1" r="3.5" fill="#10b981"/>
<circle cx="696.0" cy="94.3" r="3.5" fill="#10b981"/>
<circle cx="784.0" cy="107.8" r="3.5" fill="#10b981"/>
<circle cx="872.0" cy="113.2" r="3.5" fill="#10b981"/>
<circle cx="960.0" cy="128.9" r="3.5" fill="#10b981"/>
<text x="70" y="215" font-size="10" font-family="Menlo,monospace" fill="#475569" text-anchor="middle" transform="rotate(-90 30 215)">GFLOPS</text>
</svg>