<svg xmlns="http://www.w3.org/2000/svg" viewBox="0 0 1000 420" width="100%" height="auto">
<rect width="1000" height="420" fill="#ffffff"/>
<text x="24" y="32" font-size="20" font-family="Menlo,monospace" fill="#0f172a">Dot Product GFLOPS vs Vector Length</text>
<text x="24" y="52" font-size="11" font-family="Menlo,monospace" fill="#64748b">Apple M4 Pro (Virtual) · f32 · log scale · higher is better</text>
<rect x="80" y="54" width="10" height="10" rx="2" fill="#6366f1"/>
<text x="94" y="63" font-size="11" font-family="Menlo,monospace" fill="#334155">Scalar Rust</text>
<rect x="260" y="54" width="10" height="10" rx="2" fill="#f59e0b"/>
<text x="274" y="63" font-size="11" font-family="Menlo,monospace" fill="#334155">AMX (1 core)</text>
<rect x="440" y="54" width="10" height="10" rx="2" fill="#ef4444"/>
<text x="454" y="63" font-size="11" font-family="Menlo,monospace" fill="#334155">AMX (all cores)</text>
<rect x="620" y="54" width="10" height="10" rx="2" fill="#10b981"/>
<text x="634" y="63" font-size="11" font-family="Menlo,monospace" fill="#334155">Accelerate</text>
<line x1="80" y1="70" x2="80" y2="360" stroke="#cbd5e1"/>
<line x1="80" y1="360" x2="960" y2="360" stroke="#cbd5e1"/>
<line x1="80" y1="343.4" x2="960" y2="343.4" stroke="#f1f5f9"/>
<text x="74" y="347.4" font-size="9" font-family="Menlo,monospace" fill="#64748b" text-anchor="end">0.02</text>
<line x1="80" y1="316.9" x2="960" y2="316.9" stroke="#f1f5f9"/>
<text x="74" y="320.9" font-size="9" font-family="Menlo,monospace" fill="#64748b" text-anchor="end">0.05</text>
<line x1="80" y1="296.8" x2="960" y2="296.8" stroke="#f1f5f9"/>
<text x="74" y="300.8" font-size="9" font-family="Menlo,monospace" fill="#64748b" text-anchor="end">0.10</text>
<line x1="80" y1="276.8" x2="960" y2="276.8" stroke="#f1f5f9"/>
<text x="74" y="280.8" font-size="9" font-family="Menlo,monospace" fill="#64748b" text-anchor="end">0.20</text>
<line x1="80" y1="250.3" x2="960" y2="250.3" stroke="#f1f5f9"/>
<text x="74" y="254.3" font-size="9" font-family="Menlo,monospace" fill="#64748b" text-anchor="end">0.50</text>
<line x1="80" y1="230.2" x2="960" y2="230.2" stroke="#f1f5f9"/>
<text x="74" y="234.2" font-size="9" font-family="Menlo,monospace" fill="#64748b" text-anchor="end">1</text>
<line x1="80" y1="210.2" x2="960" y2="210.2" stroke="#f1f5f9"/>
<text x="74" y="214.2" font-size="9" font-family="Menlo,monospace" fill="#64748b" text-anchor="end">2</text>
<line x1="80" y1="183.6" x2="960" y2="183.6" stroke="#f1f5f9"/>
<text x="74" y="187.6" font-size="9" font-family="Menlo,monospace" fill="#64748b" text-anchor="end">5</text>
<line x1="80" y1="163.6" x2="960" y2="163.6" stroke="#f1f5f9"/>
<text x="74" y="167.6" font-size="9" font-family="Menlo,monospace" fill="#64748b" text-anchor="end">10</text>
<line x1="80" y1="143.5" x2="960" y2="143.5" stroke="#f1f5f9"/>
<text x="74" y="147.5" font-size="9" font-family="Menlo,monospace" fill="#64748b" text-anchor="end">20</text>
<line x1="80" y1="117.0" x2="960" y2="117.0" stroke="#f1f5f9"/>
<text x="74" y="121.0" font-size="9" font-family="Menlo,monospace" fill="#64748b" text-anchor="end">50</text>
<line x1="80" y1="96.9" x2="960" y2="96.9" stroke="#f1f5f9"/>
<text x="74" y="100.9" font-size="9" font-family="Menlo,monospace" fill="#64748b" text-anchor="end">100</text>
<line x1="80" y1="76.9" x2="960" y2="76.9" stroke="#f1f5f9"/>
<text x="74" y="80.9" font-size="9" font-family="Menlo,monospace" fill="#64748b" text-anchor="end">200</text>
<text x="80.0" y="378" font-size="9" font-family="Menlo,monospace" fill="#64748b" text-anchor="middle">1</text>
<text x="168.0" y="378" font-size="9" font-family="Menlo,monospace" fill="#64748b" text-anchor="middle">4</text>
<text x="256.0" y="378" font-size="9" font-family="Menlo,monospace" fill="#64748b" text-anchor="middle">16</text>
<text x="344.0" y="378" font-size="9" font-family="Menlo,monospace" fill="#64748b" text-anchor="middle">64</text>
<text x="432.0" y="378" font-size="9" font-family="Menlo,monospace" fill="#64748b" text-anchor="middle">256</text>
<text x="520.0" y="378" font-size="9" font-family="Menlo,monospace" fill="#64748b" text-anchor="middle">1024</text>
<text x="608.0" y="378" font-size="9" font-family="Menlo,monospace" fill="#64748b" text-anchor="middle">4096</text>
<text x="696.0" y="378" font-size="9" font-family="Menlo,monospace" fill="#64748b" text-anchor="middle">16384</text>
<text x="784.0" y="378" font-size="9" font-family="Menlo,monospace" fill="#64748b" text-anchor="middle">65536</text>
<text x="872.0" y="378" font-size="9" font-family="Menlo,monospace" fill="#64748b" text-anchor="middle">262144</text>
<text x="960.0" y="378" font-size="9" font-family="Menlo,monospace" fill="#64748b" text-anchor="middle">1048576</text>
<polyline points="80.0,204.9 168.0,168.8 256.0,152.8 344.0,158.0 432.0,183.2 520.0,189.4 608.0,190.7 696.0,195.0 784.0,189.5 872.0,189.6 960.0,189.8" fill="none" stroke="#6366f1" stroke-width="2.5"/>
<circle cx="80.0" cy="204.9" r="3.5" fill="#6366f1"/>
<circle cx="168.0" cy="168.8" r="3.5" fill="#6366f1"/>
<circle cx="256.0" cy="152.8" r="3.5" fill="#6366f1"/>
<circle cx="344.0" cy="158.0" r="3.5" fill="#6366f1"/>
<circle cx="432.0" cy="183.2" r="3.5" fill="#6366f1"/>
<circle cx="520.0" cy="189.4" r="3.5" fill="#6366f1"/>
<circle cx="608.0" cy="190.7" r="3.5" fill="#6366f1"/>
<circle cx="696.0" cy="195.0" r="3.5" fill="#6366f1"/>
<circle cx="784.0" cy="189.5" r="3.5" fill="#6366f1"/>
<circle cx="872.0" cy="189.6" r="3.5" fill="#6366f1"/>
<circle cx="960.0" cy="189.8" r="3.5" fill="#6366f1"/>
<polyline points="80.0,353.5 168.0,314.0 256.0,278.6 344.0,255.4 432.0,247.2 520.0,241.9 608.0,241.0 696.0,239.8 784.0,240.0 872.0,239.5 960.0,239.5" fill="none" stroke="#f59e0b" stroke-width="2.5"/>
<circle cx="80.0" cy="353.5" r="3.5" fill="#f59e0b"/>
<circle cx="168.0" cy="314.0" r="3.5" fill="#f59e0b"/>
<circle cx="256.0" cy="278.6" r="3.5" fill="#f59e0b"/>
<circle cx="344.0" cy="255.4" r="3.5" fill="#f59e0b"/>
<circle cx="432.0" cy="247.2" r="3.5" fill="#f59e0b"/>
<circle cx="520.0" cy="241.9" r="3.5" fill="#f59e0b"/>
<circle cx="608.0" cy="241.0" r="3.5" fill="#f59e0b"/>
<circle cx="696.0" cy="239.8" r="3.5" fill="#f59e0b"/>
<circle cx="784.0" cy="240.0" r="3.5" fill="#f59e0b"/>
<circle cx="872.0" cy="239.5" r="3.5" fill="#f59e0b"/>
<circle cx="960.0" cy="239.5" r="3.5" fill="#f59e0b"/>
<polyline points="80.0,353.5 168.0,314.0 256.0,278.6 344.0,255.4 432.0,247.2 520.0,241.9 608.0,241.0 696.0,239.8 784.0,240.0 872.0,239.5 960.0,239.5" fill="none" stroke="#ef4444" stroke-width="2.5"/>
<circle cx="80.0" cy="353.5" r="3.5" fill="#ef4444"/>
<circle cx="168.0" cy="314.0" r="3.5" fill="#ef4444"/>
<circle cx="256.0" cy="278.6" r="3.5" fill="#ef4444"/>
<circle cx="344.0" cy="255.4" r="3.5" fill="#ef4444"/>
<circle cx="432.0" cy="247.2" r="3.5" fill="#ef4444"/>
<circle cx="520.0" cy="241.9" r="3.5" fill="#ef4444"/>
<circle cx="608.0" cy="241.0" r="3.5" fill="#ef4444"/>
<circle cx="696.0" cy="239.8" r="3.5" fill="#ef4444"/>
<circle cx="784.0" cy="240.0" r="3.5" fill="#ef4444"/>
<circle cx="872.0" cy="239.5" r="3.5" fill="#ef4444"/>
<circle cx="960.0" cy="239.5" r="3.5" fill="#ef4444"/>
<polyline points="80.0,247.6 168.0,203.0 256.0,171.2 344.0,139.4 432.0,124.7 520.0,130.4 608.0,112.2 696.0,91.6 784.0,77.3 872.0,75.3 960.0,76.0" fill="none" stroke="#10b981" stroke-width="2.5"/>
<circle cx="80.0" cy="247.6" r="3.5" fill="#10b981"/>
<circle cx="168.0" cy="203.0" r="3.5" fill="#10b981"/>
<circle cx="256.0" cy="171.2" r="3.5" fill="#10b981"/>
<circle cx="344.0" cy="139.4" r="3.5" fill="#10b981"/>
<circle cx="432.0" cy="124.7" r="3.5" fill="#10b981"/>
<circle cx="520.0" cy="130.4" r="3.5" fill="#10b981"/>
<circle cx="608.0" cy="112.2" r="3.5" fill="#10b981"/>
<circle cx="696.0" cy="91.6" r="3.5" fill="#10b981"/>
<circle cx="784.0" cy="77.3" r="3.5" fill="#10b981"/>
<circle cx="872.0" cy="75.3" r="3.5" fill="#10b981"/>
<circle cx="960.0" cy="76.0" r="3.5" fill="#10b981"/>
<text x="70" y="215" font-size="10" font-family="Menlo,monospace" fill="#475569" text-anchor="middle" transform="rotate(-90 30 215)">GFLOPS</text>
</svg>