<svg xmlns="http://www.w3.org/2000/svg" viewBox="0 0 500 868" width="100%" height="auto">
<rect width="500" height="868" fill="#ffffff"/>
<text x="24" y="36" font-size="22" font-family="Menlo, monospace" fill="#0f172a">AMX Instruction Throughput Heatmap</text>
<text x="24" y="56" font-size="12" font-family="Menlo, monospace" fill="#475569">GFLOPS across all sections and chips. Darker green = faster.</text>
<text x="264" y="82" font-size="12" font-family="Menlo, monospace" fill="#111827">Apple M4 Pro (Virtual)</text>
<text x="264" y="96" font-size="10" font-family="Menlo, monospace" fill="#6b7280">10 cores</text>
<text x="16" y="124" font-size="13" font-family="Menlo, monospace" font-weight="bold" fill="#0f172a">Single P-core</text>
<text x="24" y="145" font-size="10" font-family="Menlo, monospace" fill="#334155">fma16 vector (32 f16)</text>
<rect x="260" y="130" width="174" height="20" rx="3" fill="#16639e"/>
<text x="266" y="144" font-size="10" font-family="Menlo, monospace" fill="#f8fafc">62.5 GF</text>
<text x="24" y="167" font-size="10" font-family="Menlo, monospace" fill="#334155">fma16 matrix (32×32)</text>
<rect x="260" y="152" width="174" height="20" rx="3" fill="#0ea584"/>
<text x="266" y="166" font-size="10" font-family="Menlo, monospace" fill="#f8fafc">1995.9 GF</text>
<text x="24" y="189" font-size="10" font-family="Menlo, monospace" fill="#334155">fma32 vector (16 f32)</text>
<rect x="260" y="174" width="174" height="20" rx="3" fill="#1a51a6"/>
<text x="266" y="188" font-size="10" font-family="Menlo, monospace" fill="#f8fafc">31.1 GF</text>
<text x="24" y="211" font-size="10" font-family="Menlo, monospace" fill="#334155">fma32 matrix (16×16)</text>
<rect x="260" y="196" width="174" height="20" rx="3" fill="#0d9587"/>
<text x="266" y="210" font-size="10" font-family="Menlo, monospace" fill="#f8fafc">492.2 GF</text>
<text x="24" y="233" font-size="10" font-family="Menlo, monospace" fill="#334155">fma64 vector (8 f64)</text>
<rect x="260" y="218" width="174" height="20" rx="3" fill="#1e40af"/>
<text x="266" y="232" font-size="10" font-family="Menlo, monospace" fill="#f8fafc">15.6 GF</text>
<text x="24" y="255" font-size="10" font-family="Menlo, monospace" fill="#334155">fma64 matrix (8×8)</text>
<rect x="260" y="240" width="174" height="20" rx="3" fill="#137596"/>
<text x="266" y="254" font-size="10" font-family="Menlo, monospace" fill="#f8fafc">125.6 GF</text>
<text x="24" y="277" font-size="10" font-family="Menlo, monospace" fill="#334155">mac16 vector (32 i16)</text>
<rect x="260" y="262" width="174" height="20" rx="3" fill="#16639e"/>
<text x="266" y="276" font-size="10" font-family="Menlo, monospace" fill="#f8fafc">62.6 GF</text>
<text x="24" y="299" font-size="10" font-family="Menlo, monospace" fill="#334155">mac16 matrix (32×32)</text>
<rect x="260" y="284" width="174" height="20" rx="3" fill="#0ea584"/>
<text x="266" y="298" font-size="10" font-family="Menlo, monospace" fill="#f8fafc">1966.6 GF</text>
<text x="16" y="350" font-size="13" font-family="Menlo, monospace" font-weight="bold" fill="#0f172a">Single E-core</text>
<text x="16" y="400" font-size="13" font-family="Menlo, monospace" font-weight="bold" fill="#0f172a">All P-cores parallel</text>
<text x="24" y="421" font-size="10" font-family="Menlo, monospace" fill="#334155">fma16 vector (32 f16)</text>
<rect x="260" y="406" width="174" height="20" rx="3" fill="#0d9587"/>
<text x="266" y="420" font-size="10" font-family="Menlo, monospace" fill="#f8fafc">480.9 GF</text>
<text x="24" y="443" font-size="10" font-family="Menlo, monospace" fill="#334155">fma16 matrix (32×32)</text>
<rect x="260" y="428" width="174" height="20" rx="3" fill="#0fb581"/>
<text x="266" y="442" font-size="10" font-family="Menlo, monospace" fill="#f8fafc">8164.2 GF</text>
<text x="24" y="465" font-size="10" font-family="Menlo, monospace" fill="#334155">fma32 vector (16 f32)</text>
<rect x="260" y="450" width="174" height="20" rx="3" fill="#0f878d"/>
<text x="266" y="464" font-size="10" font-family="Menlo, monospace" fill="#f8fafc">252.7 GF</text>
<text x="24" y="487" font-size="10" font-family="Menlo, monospace" fill="#334155">fma32 matrix (16×16)</text>
<rect x="260" y="472" width="174" height="20" rx="3" fill="#0fad83"/>
<text x="266" y="486" font-size="10" font-family="Menlo, monospace" fill="#f8fafc">4148.7 GF</text>
<text x="24" y="509" font-size="10" font-family="Menlo, monospace" fill="#334155">fma64 vector (8 f64)</text>
<rect x="260" y="494" width="174" height="20" rx="3" fill="#127795"/>
<text x="266" y="508" font-size="10" font-family="Menlo, monospace" fill="#f8fafc">137.4 GF</text>
<text x="24" y="531" font-size="10" font-family="Menlo, monospace" fill="#334155">fma64 matrix (8×8)</text>
<rect x="260" y="516" width="174" height="20" rx="3" fill="#0d9e86"/>
<text x="266" y="530" font-size="10" font-family="Menlo, monospace" fill="#f8fafc">1026.6 GF</text>
<text x="24" y="553" font-size="10" font-family="Menlo, monospace" fill="#334155">mac16 vector (32 i16)</text>
<rect x="260" y="538" width="174" height="20" rx="3" fill="#0e8e8a"/>
<text x="266" y="552" font-size="10" font-family="Menlo, monospace" fill="#f8fafc">337.9 GF</text>
<text x="24" y="575" font-size="10" font-family="Menlo, monospace" fill="#334155">mac16 matrix (32×32)</text>
<rect x="260" y="560" width="174" height="20" rx="3" fill="#0fb082"/>
<text x="266" y="574" font-size="10" font-family="Menlo, monospace" fill="#f8fafc">5142.8 GF</text>
<text x="16" y="626" font-size="13" font-family="Menlo, monospace" font-weight="bold" fill="#0f172a">All E-cores parallel</text>
<text x="16" y="676" font-size="13" font-family="Menlo, monospace" font-weight="bold" fill="#0f172a">Whole chip</text>
<text x="24" y="697" font-size="10" font-family="Menlo, monospace" fill="#334155">fma16 vector (32 f16)</text>
<rect x="260" y="682" width="174" height="20" rx="3" fill="#0d9787"/>
<text x="266" y="696" font-size="10" font-family="Menlo, monospace" fill="#f8fafc">549.3 GF</text>
<text x="24" y="719" font-size="10" font-family="Menlo, monospace" fill="#334155">fma16 matrix (32×32)</text>
<rect x="260" y="704" width="174" height="20" rx="3" fill="#10b981"/>
<text x="266" y="718" font-size="10" font-family="Menlo, monospace" fill="#f8fafc">11152.5 GF</text>
<text x="24" y="741" font-size="10" font-family="Menlo, monospace" fill="#334155">fma32 vector (16 f32)</text>
<rect x="260" y="726" width="174" height="20" rx="3" fill="#0f888d"/>
<text x="266" y="740" font-size="10" font-family="Menlo, monospace" fill="#f8fafc">269.6 GF</text>
<text x="24" y="763" font-size="10" font-family="Menlo, monospace" fill="#334155">fma32 matrix (16×16)</text>
<rect x="260" y="748" width="174" height="20" rx="3" fill="#0fac83"/>
<text x="266" y="762" font-size="10" font-family="Menlo, monospace" fill="#f8fafc">3821.8 GF</text>
<text x="24" y="785" font-size="10" font-family="Menlo, monospace" fill="#334155">fma64 vector (8 f64)</text>
<rect x="260" y="770" width="174" height="20" rx="3" fill="#137596"/>
<text x="266" y="784" font-size="10" font-family="Menlo, monospace" fill="#f8fafc">124.4 GF</text>
<text x="24" y="807" font-size="10" font-family="Menlo, monospace" fill="#334155">fma64 matrix (8×8)</text>
<rect x="260" y="792" width="174" height="20" rx="3" fill="#0d9d86"/>
<text x="266" y="806" font-size="10" font-family="Menlo, monospace" fill="#f8fafc">1009.8 GF</text>
<text x="24" y="829" font-size="10" font-family="Menlo, monospace" fill="#334155">mac16 vector (32 i16)</text>
<rect x="260" y="814" width="174" height="20" rx="3" fill="#0d9487"/>
<text x="266" y="828" font-size="10" font-family="Menlo, monospace" fill="#f8fafc">430.3 GF</text>
<text x="24" y="851" font-size="10" font-family="Menlo, monospace" fill="#334155">mac16 matrix (32×32)</text>
<rect x="260" y="836" width="174" height="20" rx="3" fill="#0fb082"/>
<text x="266" y="850" font-size="10" font-family="Menlo, monospace" fill="#f8fafc">5247.7 GF</text>
<rect x="260" y="898" width="36" height="14" rx="2" fill="#1e40af"/>
<rect x="300" y="898" width="36" height="14" rx="2" fill="#1958a3"/>
<rect x="340" y="898" width="36" height="14" rx="2" fill="#147098"/>
<rect x="380" y="898" width="36" height="14" rx="2" fill="#0f888d"/>
<rect x="420" y="898" width="36" height="14" rx="2" fill="#0d9987"/>
<rect x="460" y="898" width="36" height="14" rx="2" fill="#0ea385"/>
<rect x="500" y="898" width="36" height="14" rx="2" fill="#0fae83"/>
<rect x="540" y="898" width="36" height="14" rx="2" fill="#10b981"/>
<text x="260" y="926" font-size="11" font-family="Menlo, monospace" fill="#334155">low</text>
<text x="540" y="926" font-size="11" font-family="Menlo, monospace" fill="#334155">high</text>
</svg>