<svg xmlns="http://www.w3.org/2000/svg" viewBox="0 0 1000 680" width="100%" height="auto">
<rect width="1000" height="680" fill="#ffffff"/>
<text x="24" y="32" font-size="20" font-family="Menlo,monospace" fill="#0f172a">Square Matmul GFLOPS — Scalar vs AMX vs Accelerate</text>
<text x="24" y="52" font-size="11" font-family="Menlo,monospace" fill="#64748b">Apple M1 (Virtual) · f32 · higher is better</text>
<rect x="200" y="54" width="10" height="10" rx="2" fill="#6366f1"/>
<text x="214" y="63" font-size="11" font-family="Menlo,monospace" fill="#334155">Scalar Rust</text>
<rect x="380" y="54" width="10" height="10" rx="2" fill="#f59e0b"/>
<text x="394" y="63" font-size="11" font-family="Menlo,monospace" fill="#334155">AMX (1 core)</text>
<rect x="560" y="54" width="10" height="10" rx="2" fill="#ef4444"/>
<text x="574" y="63" font-size="11" font-family="Menlo,monospace" fill="#334155">AMX (all cores)</text>
<rect x="740" y="54" width="10" height="10" rx="2" fill="#10b981"/>
<text x="754" y="63" font-size="11" font-family="Menlo,monospace" fill="#334155">Accelerate</text>
<text x="12" y="108" font-size="11" font-family="Menlo,monospace" fill="#111827">8x8x8</text>
<rect x="200" y="70" width="14.5" height="14" rx="3" fill="#6366f1"/>
<text x="219.5" y="81" font-size="10" font-family="Menlo,monospace" fill="#334155">1.7 GFLOPS</text>
<rect x="200" y="87" width="14.5" height="14" rx="3" fill="#f59e0b"/>
<text x="219.5" y="98" font-size="10" font-family="Menlo,monospace" fill="#334155">1.7 GFLOPS</text>
<rect x="200" y="104" width="14.5" height="14" rx="3" fill="#ef4444"/>
<text x="219.5" y="115" font-size="10" font-family="Menlo,monospace" fill="#334155">1.7 GFLOPS</text>
<rect x="200" y="121" width="90.2" height="14" rx="3" fill="#10b981"/>
<text x="295.2" y="132" font-size="10" font-family="Menlo,monospace" fill="#334155">10.8 GFLOPS</text>
<text x="12" y="188" font-size="11" font-family="Menlo,monospace" fill="#111827">16x16x16</text>
<rect x="200" y="150" width="18.5" height="14" rx="3" fill="#6366f1"/>
<text x="223.5" y="161" font-size="10" font-family="Menlo,monospace" fill="#334155">2.2 GFLOPS</text>
<rect x="200" y="167" width="18.5" height="14" rx="3" fill="#f59e0b"/>
<text x="223.5" y="178" font-size="10" font-family="Menlo,monospace" fill="#334155">2.2 GFLOPS</text>
<rect x="200" y="184" width="18.5" height="14" rx="3" fill="#ef4444"/>
<text x="223.5" y="195" font-size="10" font-family="Menlo,monospace" fill="#334155">2.2 GFLOPS</text>
<rect x="200" y="201" width="145.6" height="14" rx="3" fill="#10b981"/>
<text x="350.6" y="212" font-size="10" font-family="Menlo,monospace" fill="#334155">17.5 GFLOPS</text>
<text x="12" y="268" font-size="11" font-family="Menlo,monospace" fill="#111827">32x32x32</text>
<rect x="200" y="230" width="28.6" height="14" rx="3" fill="#6366f1"/>
<text x="233.6" y="241" font-size="10" font-family="Menlo,monospace" fill="#334155">3.4 GFLOPS</text>
<rect x="200" y="247" width="28.6" height="14" rx="3" fill="#f59e0b"/>
<text x="233.6" y="258" font-size="10" font-family="Menlo,monospace" fill="#334155">3.4 GFLOPS</text>
<rect x="200" y="264" width="28.6" height="14" rx="3" fill="#ef4444"/>
<text x="233.6" y="275" font-size="10" font-family="Menlo,monospace" fill="#334155">3.4 GFLOPS</text>
<rect x="200" y="281" width="379.7" height="14" rx="3" fill="#10b981"/>
<text x="584.7" y="292" font-size="10" font-family="Menlo,monospace" fill="#334155">45.6 GFLOPS</text>
<text x="12" y="348" font-size="11" font-family="Menlo,monospace" fill="#111827">64x64x64</text>
<rect x="200" y="310" width="61.1" height="14" rx="3" fill="#6366f1"/>
<text x="266.1" y="321" font-size="10" font-family="Menlo,monospace" fill="#334155">7.3 GFLOPS</text>
<rect x="200" y="327" width="61.1" height="14" rx="3" fill="#f59e0b"/>
<text x="266.1" y="338" font-size="10" font-family="Menlo,monospace" fill="#334155">7.3 GFLOPS</text>
<rect x="200" y="344" width="61.1" height="14" rx="3" fill="#ef4444"/>
<text x="266.1" y="355" font-size="10" font-family="Menlo,monospace" fill="#334155">7.3 GFLOPS</text>
<rect x="200" y="361" width="197.2" height="14" rx="3" fill="#10b981"/>
<text x="402.2" y="372" font-size="10" font-family="Menlo,monospace" fill="#334155">23.7 GFLOPS</text>
<text x="12" y="428" font-size="11" font-family="Menlo,monospace" fill="#111827">128x128x128</text>
<rect x="200" y="390" width="100.9" height="14" rx="3" fill="#6366f1"/>
<text x="305.9" y="401" font-size="10" font-family="Menlo,monospace" fill="#334155">12.1 GFLOPS</text>
<rect x="200" y="407" width="100.9" height="14" rx="3" fill="#f59e0b"/>
<text x="305.9" y="418" font-size="10" font-family="Menlo,monospace" fill="#334155">12.1 GFLOPS</text>
<rect x="200" y="424" width="100.9" height="14" rx="3" fill="#ef4444"/>
<text x="305.9" y="435" font-size="10" font-family="Menlo,monospace" fill="#334155">12.1 GFLOPS</text>
<rect x="200" y="441" width="262.7" height="14" rx="3" fill="#10b981"/>
<text x="467.7" y="452" font-size="10" font-family="Menlo,monospace" fill="#334155">31.6 GFLOPS</text>
<text x="12" y="508" font-size="11" font-family="Menlo,monospace" fill="#111827">256x256x256</text>
<rect x="200" y="470" width="127.7" height="14" rx="3" fill="#6366f1"/>
<text x="332.7" y="481" font-size="10" font-family="Menlo,monospace" fill="#334155">15.3 GFLOPS</text>
<rect x="200" y="487" width="127.7" height="14" rx="3" fill="#f59e0b"/>
<text x="332.7" y="498" font-size="10" font-family="Menlo,monospace" fill="#334155">15.3 GFLOPS</text>
<rect x="200" y="504" width="127.7" height="14" rx="3" fill="#ef4444"/>
<text x="332.7" y="515" font-size="10" font-family="Menlo,monospace" fill="#334155">15.3 GFLOPS</text>
<rect x="200" y="521" width="642.5" height="14" rx="3" fill="#10b981"/>
<text x="847.5" y="532" font-size="10" font-family="Menlo,monospace" fill="#334155">77.2 GFLOPS</text>
<text x="12" y="588" font-size="11" font-family="Menlo,monospace" fill="#111827">512x512x512</text>
<rect x="200" y="550" width="142.9" height="14" rx="3" fill="#6366f1"/>
<text x="347.9" y="561" font-size="10" font-family="Menlo,monospace" fill="#334155">17.2 GFLOPS</text>
<rect x="200" y="567" width="142.9" height="14" rx="3" fill="#f59e0b"/>
<text x="347.9" y="578" font-size="10" font-family="Menlo,monospace" fill="#334155">17.2 GFLOPS</text>
<rect x="200" y="584" width="142.9" height="14" rx="3" fill="#ef4444"/>
<text x="347.9" y="595" font-size="10" font-family="Menlo,monospace" fill="#334155">17.2 GFLOPS</text>
<rect x="200" y="601" width="700.0" height="14" rx="3" fill="#10b981"/>
<text x="905.0" y="612" font-size="10" font-family="Menlo,monospace" fill="#334155">84.1 GFLOPS</text>
</svg>