<svg xmlns="http://www.w3.org/2000/svg" viewBox="0 0 1000 420" width="100%" height="auto">
<rect width="1000" height="420" fill="#ffffff"/>
<text x="24" y="32" font-size="20" font-family="Menlo,monospace" fill="#0f172a">Square Matmul Latency vs Matrix Size</text>
<text x="24" y="52" font-size="11" font-family="Menlo,monospace" fill="#64748b">Apple M4 Pro (Virtual) · f32 · log scale · lower is better</text>
<rect x="80" y="54" width="10" height="10" rx="2" fill="#6366f1"/>
<text x="94" y="63" font-size="11" font-family="Menlo,monospace" fill="#334155">Scalar Rust</text>
<rect x="260" y="54" width="10" height="10" rx="2" fill="#f59e0b"/>
<text x="274" y="63" font-size="11" font-family="Menlo,monospace" fill="#334155">AMX (1 core)</text>
<rect x="440" y="54" width="10" height="10" rx="2" fill="#ef4444"/>
<text x="454" y="63" font-size="11" font-family="Menlo,monospace" fill="#334155">AMX (all cores)</text>
<rect x="620" y="54" width="10" height="10" rx="2" fill="#10b981"/>
<text x="634" y="63" font-size="11" font-family="Menlo,monospace" fill="#334155">Accelerate</text>
<line x1="80" y1="70" x2="80" y2="360" stroke="#cbd5e1"/>
<line x1="80" y1="360" x2="960" y2="360" stroke="#cbd5e1"/>
<line x1="80" y1="343.8" x2="960" y2="343.8" stroke="#f1f5f9"/>
<text x="74" y="347.8" font-size="9" font-family="Menlo,monospace" fill="#64748b" text-anchor="end">0.05</text>
<line x1="80" y1="328.4" x2="960" y2="328.4" stroke="#f1f5f9"/>
<text x="74" y="332.4" font-size="9" font-family="Menlo,monospace" fill="#64748b" text-anchor="end">0.10</text>
<line x1="80" y1="313.1" x2="960" y2="313.1" stroke="#f1f5f9"/>
<text x="74" y="317.1" font-size="9" font-family="Menlo,monospace" fill="#64748b" text-anchor="end">0.20</text>
<line x1="80" y1="292.8" x2="960" y2="292.8" stroke="#f1f5f9"/>
<text x="74" y="296.8" font-size="9" font-family="Menlo,monospace" fill="#64748b" text-anchor="end">0.50</text>
<line x1="80" y1="277.5" x2="960" y2="277.5" stroke="#f1f5f9"/>
<text x="74" y="281.5" font-size="9" font-family="Menlo,monospace" fill="#64748b" text-anchor="end">1</text>
<line x1="80" y1="262.2" x2="960" y2="262.2" stroke="#f1f5f9"/>
<text x="74" y="266.2" font-size="9" font-family="Menlo,monospace" fill="#64748b" text-anchor="end">2</text>
<line x1="80" y1="241.9" x2="960" y2="241.9" stroke="#f1f5f9"/>
<text x="74" y="245.9" font-size="9" font-family="Menlo,monospace" fill="#64748b" text-anchor="end">5</text>
<line x1="80" y1="226.6" x2="960" y2="226.6" stroke="#f1f5f9"/>
<text x="74" y="230.6" font-size="9" font-family="Menlo,monospace" fill="#64748b" text-anchor="end">10</text>
<line x1="80" y1="211.2" x2="960" y2="211.2" stroke="#f1f5f9"/>
<text x="74" y="215.2" font-size="9" font-family="Menlo,monospace" fill="#64748b" text-anchor="end">20</text>
<line x1="80" y1="191.0" x2="960" y2="191.0" stroke="#f1f5f9"/>
<text x="74" y="195.0" font-size="9" font-family="Menlo,monospace" fill="#64748b" text-anchor="end">50</text>
<line x1="80" y1="175.6" x2="960" y2="175.6" stroke="#f1f5f9"/>
<text x="74" y="179.6" font-size="9" font-family="Menlo,monospace" fill="#64748b" text-anchor="end">100</text>
<line x1="80" y1="160.3" x2="960" y2="160.3" stroke="#f1f5f9"/>
<text x="74" y="164.3" font-size="9" font-family="Menlo,monospace" fill="#64748b" text-anchor="end">200</text>
<line x1="80" y1="140.1" x2="960" y2="140.1" stroke="#f1f5f9"/>
<text x="74" y="144.1" font-size="9" font-family="Menlo,monospace" fill="#64748b" text-anchor="end">500</text>
<line x1="80" y1="124.7" x2="960" y2="124.7" stroke="#f1f5f9"/>
<text x="74" y="128.7" font-size="9" font-family="Menlo,monospace" fill="#64748b" text-anchor="end">1000</text>
<line x1="80" y1="109.4" x2="960" y2="109.4" stroke="#f1f5f9"/>
<text x="74" y="113.4" font-size="9" font-family="Menlo,monospace" fill="#64748b" text-anchor="end">2000</text>
<line x1="80" y1="89.1" x2="960" y2="89.1" stroke="#f1f5f9"/>
<text x="74" y="93.1" font-size="9" font-family="Menlo,monospace" fill="#64748b" text-anchor="end">5000</text>
<line x1="80" y1="73.8" x2="960" y2="73.8" stroke="#f1f5f9"/>
<text x="74" y="77.8" font-size="9" font-family="Menlo,monospace" fill="#64748b" text-anchor="end">10000</text>
<text x="80.0" y="378" font-size="9" font-family="Menlo,monospace" fill="#64748b" text-anchor="middle">1</text>
<text x="124.0" y="378" font-size="9" font-family="Menlo,monospace" fill="#64748b" text-anchor="middle">2</text>
<text x="168.0" y="378" font-size="9" font-family="Menlo,monospace" fill="#64748b" text-anchor="middle">4</text>
<text x="212.0" y="378" font-size="9" font-family="Menlo,monospace" fill="#64748b" text-anchor="middle">8</text>
<text x="256.0" y="378" font-size="9" font-family="Menlo,monospace" fill="#64748b" text-anchor="middle">15</text>
<text x="300.0" y="378" font-size="9" font-family="Menlo,monospace" fill="#64748b" text-anchor="middle">16</text>
<text x="344.0" y="378" font-size="9" font-family="Menlo,monospace" fill="#64748b" text-anchor="middle">17</text>
<text x="388.0" y="378" font-size="9" font-family="Menlo,monospace" fill="#64748b" text-anchor="middle">31</text>
<text x="432.0" y="378" font-size="9" font-family="Menlo,monospace" fill="#64748b" text-anchor="middle">32</text>
<text x="476.0" y="378" font-size="9" font-family="Menlo,monospace" fill="#64748b" text-anchor="middle">33</text>
<text x="520.0" y="378" font-size="9" font-family="Menlo,monospace" fill="#64748b" text-anchor="middle">63</text>
<text x="564.0" y="378" font-size="9" font-family="Menlo,monospace" fill="#64748b" text-anchor="middle">64</text>
<text x="608.0" y="378" font-size="9" font-family="Menlo,monospace" fill="#64748b" text-anchor="middle">65</text>
<text x="652.0" y="378" font-size="9" font-family="Menlo,monospace" fill="#64748b" text-anchor="middle">127</text>
<text x="696.0" y="378" font-size="9" font-family="Menlo,monospace" fill="#64748b" text-anchor="middle">128</text>
<text x="740.0" y="378" font-size="9" font-family="Menlo,monospace" fill="#64748b" text-anchor="middle">129</text>
<text x="784.0" y="378" font-size="9" font-family="Menlo,monospace" fill="#64748b" text-anchor="middle">255</text>
<text x="828.0" y="378" font-size="9" font-family="Menlo,monospace" fill="#64748b" text-anchor="middle">256</text>
<text x="872.0" y="378" font-size="9" font-family="Menlo,monospace" fill="#64748b" text-anchor="middle">257</text>
<text x="916.0" y="378" font-size="9" font-family="Menlo,monospace" fill="#64748b" text-anchor="middle">511</text>
<text x="960.0" y="378" font-size="9" font-family="Menlo,monospace" fill="#64748b" text-anchor="middle">512</text>
<polyline points="80.0,353.7 124.0,345.5 168.0,336.6 212.0,301.7 256.0,265.8 300.0,262.8 344.0,279.5 388.0,231.7 432.0,234.7 476.0,249.3 520.0,202.4 564.0,199.4 608.0,206.4 652.0,164.4 696.0,163.1 740.0,168.7 784.0,120.3 828.0,122.6 872.0,117.9 916.0,74.0 960.0,78.4" fill="none" stroke="#6366f1" stroke-width="2.5"/>
<circle cx="80.0" cy="353.7" r="3.5" fill="#6366f1"/>
<circle cx="124.0" cy="345.5" r="3.5" fill="#6366f1"/>
<circle cx="168.0" cy="336.6" r="3.5" fill="#6366f1"/>
<circle cx="212.0" cy="301.7" r="3.5" fill="#6366f1"/>
<circle cx="256.0" cy="265.8" r="3.5" fill="#6366f1"/>
<circle cx="300.0" cy="262.8" r="3.5" fill="#6366f1"/>
<circle cx="344.0" cy="279.5" r="3.5" fill="#6366f1"/>
<circle cx="388.0" cy="231.7" r="3.5" fill="#6366f1"/>
<circle cx="432.0" cy="234.7" r="3.5" fill="#6366f1"/>
<circle cx="476.0" cy="249.3" r="3.5" fill="#6366f1"/>
<circle cx="520.0" cy="202.4" r="3.5" fill="#6366f1"/>
<circle cx="564.0" cy="199.4" r="3.5" fill="#6366f1"/>
<circle cx="608.0" cy="206.4" r="3.5" fill="#6366f1"/>
<circle cx="652.0" cy="164.4" r="3.5" fill="#6366f1"/>
<circle cx="696.0" cy="163.1" r="3.5" fill="#6366f1"/>
<circle cx="740.0" cy="168.7" r="3.5" fill="#6366f1"/>
<circle cx="784.0" cy="120.3" r="3.5" fill="#6366f1"/>
<circle cx="828.0" cy="122.6" r="3.5" fill="#6366f1"/>
<circle cx="872.0" cy="117.9" r="3.5" fill="#6366f1"/>
<circle cx="916.0" cy="74.0" r="3.5" fill="#6366f1"/>
<circle cx="960.0" cy="78.4" r="3.5" fill="#6366f1"/>
<polyline points="80.0,300.1 124.0,293.3 168.0,292.8 212.0,288.3 256.0,285.1 300.0,285.4 344.0,275.0 388.0,265.9 432.0,265.6 476.0,257.0 520.0,236.1 564.0,235.9 608.0,229.7 652.0,202.2 696.0,202.3 740.0,199.6 784.0,169.1 828.0,169.3 872.0,166.8 916.0,130.2 960.0,130.4" fill="none" stroke="#f59e0b" stroke-width="2.5"/>
<circle cx="80.0" cy="300.1" r="3.5" fill="#f59e0b"/>
<circle cx="124.0" cy="293.3" r="3.5" fill="#f59e0b"/>
<circle cx="168.0" cy="292.8" r="3.5" fill="#f59e0b"/>
<circle cx="212.0" cy="288.3" r="3.5" fill="#f59e0b"/>
<circle cx="256.0" cy="285.1" r="3.5" fill="#f59e0b"/>
<circle cx="300.0" cy="285.4" r="3.5" fill="#f59e0b"/>
<circle cx="344.0" cy="275.0" r="3.5" fill="#f59e0b"/>
<circle cx="388.0" cy="265.9" r="3.5" fill="#f59e0b"/>
<circle cx="432.0" cy="265.6" r="3.5" fill="#f59e0b"/>
<circle cx="476.0" cy="257.0" r="3.5" fill="#f59e0b"/>
<circle cx="520.0" cy="236.1" r="3.5" fill="#f59e0b"/>
<circle cx="564.0" cy="235.9" r="3.5" fill="#f59e0b"/>
<circle cx="608.0" cy="229.7" r="3.5" fill="#f59e0b"/>
<circle cx="652.0" cy="202.2" r="3.5" fill="#f59e0b"/>
<circle cx="696.0" cy="202.3" r="3.5" fill="#f59e0b"/>
<circle cx="740.0" cy="199.6" r="3.5" fill="#f59e0b"/>
<circle cx="784.0" cy="169.1" r="3.5" fill="#f59e0b"/>
<circle cx="828.0" cy="169.3" r="3.5" fill="#f59e0b"/>
<circle cx="872.0" cy="166.8" r="3.5" fill="#f59e0b"/>
<circle cx="916.0" cy="130.2" r="3.5" fill="#f59e0b"/>
<circle cx="960.0" cy="130.4" r="3.5" fill="#f59e0b"/>
<polyline points="80.0,299.8 124.0,293.9 168.0,292.9 212.0,292.2 256.0,286.5 300.0,288.7 344.0,275.1 388.0,265.8 432.0,265.6 476.0,256.9 520.0,236.0 564.0,236.2 608.0,230.2 652.0,202.2 696.0,202.1 740.0,199.6 784.0,168.1 828.0,169.3 872.0,167.1 916.0,153.1 960.0,153.7" fill="none" stroke="#ef4444" stroke-width="2.5"/>
<circle cx="80.0" cy="299.8" r="3.5" fill="#ef4444"/>
<circle cx="124.0" cy="293.9" r="3.5" fill="#ef4444"/>
<circle cx="168.0" cy="292.9" r="3.5" fill="#ef4444"/>
<circle cx="212.0" cy="292.2" r="3.5" fill="#ef4444"/>
<circle cx="256.0" cy="286.5" r="3.5" fill="#ef4444"/>
<circle cx="300.0" cy="288.7" r="3.5" fill="#ef4444"/>
<circle cx="344.0" cy="275.1" r="3.5" fill="#ef4444"/>
<circle cx="388.0" cy="265.8" r="3.5" fill="#ef4444"/>
<circle cx="432.0" cy="265.6" r="3.5" fill="#ef4444"/>
<circle cx="476.0" cy="256.9" r="3.5" fill="#ef4444"/>
<circle cx="520.0" cy="236.0" r="3.5" fill="#ef4444"/>
<circle cx="564.0" cy="236.2" r="3.5" fill="#ef4444"/>
<circle cx="608.0" cy="230.2" r="3.5" fill="#ef4444"/>
<circle cx="652.0" cy="202.2" r="3.5" fill="#ef4444"/>
<circle cx="696.0" cy="202.1" r="3.5" fill="#ef4444"/>
<circle cx="740.0" cy="199.6" r="3.5" fill="#ef4444"/>
<circle cx="784.0" cy="168.1" r="3.5" fill="#ef4444"/>
<circle cx="828.0" cy="169.3" r="3.5" fill="#ef4444"/>
<circle cx="872.0" cy="167.1" r="3.5" fill="#ef4444"/>
<circle cx="916.0" cy="153.1" r="3.5" fill="#ef4444"/>
<circle cx="960.0" cy="153.7" r="3.5" fill="#ef4444"/>
<polyline points="80.0,355.1 124.0,352.4 168.0,350.3 212.0,338.8 256.0,285.8 300.0,289.7 344.0,286.8 388.0,288.1 432.0,287.4 476.0,284.9 520.0,273.7 564.0,274.9 608.0,265.4 652.0,243.8 696.0,246.4 740.0,238.2 784.0,203.6 828.0,207.2 872.0,201.0 916.0,164.1 960.0,164.8" fill="none" stroke="#10b981" stroke-width="2.5"/>
<circle cx="80.0" cy="355.1" r="3.5" fill="#10b981"/>
<circle cx="124.0" cy="352.4" r="3.5" fill="#10b981"/>
<circle cx="168.0" cy="350.3" r="3.5" fill="#10b981"/>
<circle cx="212.0" cy="338.8" r="3.5" fill="#10b981"/>
<circle cx="256.0" cy="285.8" r="3.5" fill="#10b981"/>
<circle cx="300.0" cy="289.7" r="3.5" fill="#10b981"/>
<circle cx="344.0" cy="286.8" r="3.5" fill="#10b981"/>
<circle cx="388.0" cy="288.1" r="3.5" fill="#10b981"/>
<circle cx="432.0" cy="287.4" r="3.5" fill="#10b981"/>
<circle cx="476.0" cy="284.9" r="3.5" fill="#10b981"/>
<circle cx="520.0" cy="273.7" r="3.5" fill="#10b981"/>
<circle cx="564.0" cy="274.9" r="3.5" fill="#10b981"/>
<circle cx="608.0" cy="265.4" r="3.5" fill="#10b981"/>
<circle cx="652.0" cy="243.8" r="3.5" fill="#10b981"/>
<circle cx="696.0" cy="246.4" r="3.5" fill="#10b981"/>
<circle cx="740.0" cy="238.2" r="3.5" fill="#10b981"/>
<circle cx="784.0" cy="203.6" r="3.5" fill="#10b981"/>
<circle cx="828.0" cy="207.2" r="3.5" fill="#10b981"/>
<circle cx="872.0" cy="201.0" r="3.5" fill="#10b981"/>
<circle cx="916.0" cy="164.1" r="3.5" fill="#10b981"/>
<circle cx="960.0" cy="164.8" r="3.5" fill="#10b981"/>
<text x="70" y="215" font-size="10" font-family="Menlo,monospace" fill="#475569" text-anchor="middle" transform="rotate(-90 30 215)">µs</text>
</svg>