<svg xmlns="http://www.w3.org/2000/svg" viewBox="0 0 1000 420" width="100%" height="auto">
<rect width="1000" height="420" fill="#ffffff"/>
<text x="24" y="32" font-size="20" font-family="Menlo,monospace" fill="#0f172a">Square Matmul Latency vs Matrix Size</text>
<text x="24" y="52" font-size="11" font-family="Menlo,monospace" fill="#64748b">Apple M1 (Virtual) · f32 · log scale · lower is better</text>
<rect x="80" y="54" width="10" height="10" rx="2" fill="#6366f1"/>
<text x="94" y="63" font-size="11" font-family="Menlo,monospace" fill="#334155">Scalar Rust</text>
<rect x="260" y="54" width="10" height="10" rx="2" fill="#f59e0b"/>
<text x="274" y="63" font-size="11" font-family="Menlo,monospace" fill="#334155">AMX (1 core)</text>
<rect x="440" y="54" width="10" height="10" rx="2" fill="#ef4444"/>
<text x="454" y="63" font-size="11" font-family="Menlo,monospace" fill="#334155">AMX (all cores)</text>
<rect x="620" y="54" width="10" height="10" rx="2" fill="#10b981"/>
<text x="634" y="63" font-size="11" font-family="Menlo,monospace" fill="#334155">Accelerate</text>
<line x1="80" y1="70" x2="80" y2="360" stroke="#cbd5e1"/>
<line x1="80" y1="360" x2="960" y2="360" stroke="#cbd5e1"/>
<line x1="80" y1="356.6" x2="960" y2="356.6" stroke="#f1f5f9"/>
<text x="74" y="360.6" font-size="9" font-family="Menlo,monospace" fill="#64748b" text-anchor="end">0.02</text>
<line x1="80" y1="337.3" x2="960" y2="337.3" stroke="#f1f5f9"/>
<text x="74" y="341.3" font-size="9" font-family="Menlo,monospace" fill="#64748b" text-anchor="end">0.05</text>
<line x1="80" y1="322.6" x2="960" y2="322.6" stroke="#f1f5f9"/>
<text x="74" y="326.6" font-size="9" font-family="Menlo,monospace" fill="#64748b" text-anchor="end">0.10</text>
<line x1="80" y1="308.0" x2="960" y2="308.0" stroke="#f1f5f9"/>
<text x="74" y="312.0" font-size="9" font-family="Menlo,monospace" fill="#64748b" text-anchor="end">0.20</text>
<line x1="80" y1="288.7" x2="960" y2="288.7" stroke="#f1f5f9"/>
<text x="74" y="292.7" font-size="9" font-family="Menlo,monospace" fill="#64748b" text-anchor="end">0.50</text>
<line x1="80" y1="274.0" x2="960" y2="274.0" stroke="#f1f5f9"/>
<text x="74" y="278.0" font-size="9" font-family="Menlo,monospace" fill="#64748b" text-anchor="end">1</text>
<line x1="80" y1="259.4" x2="960" y2="259.4" stroke="#f1f5f9"/>
<text x="74" y="263.4" font-size="9" font-family="Menlo,monospace" fill="#64748b" text-anchor="end">2</text>
<line x1="80" y1="240.1" x2="960" y2="240.1" stroke="#f1f5f9"/>
<text x="74" y="244.1" font-size="9" font-family="Menlo,monospace" fill="#64748b" text-anchor="end">5</text>
<line x1="80" y1="225.4" x2="960" y2="225.4" stroke="#f1f5f9"/>
<text x="74" y="229.4" font-size="9" font-family="Menlo,monospace" fill="#64748b" text-anchor="end">10</text>
<line x1="80" y1="210.8" x2="960" y2="210.8" stroke="#f1f5f9"/>
<text x="74" y="214.8" font-size="9" font-family="Menlo,monospace" fill="#64748b" text-anchor="end">20</text>
<line x1="80" y1="191.5" x2="960" y2="191.5" stroke="#f1f5f9"/>
<text x="74" y="195.5" font-size="9" font-family="Menlo,monospace" fill="#64748b" text-anchor="end">50</text>
<line x1="80" y1="176.8" x2="960" y2="176.8" stroke="#f1f5f9"/>
<text x="74" y="180.8" font-size="9" font-family="Menlo,monospace" fill="#64748b" text-anchor="end">100</text>
<line x1="80" y1="162.2" x2="960" y2="162.2" stroke="#f1f5f9"/>
<text x="74" y="166.2" font-size="9" font-family="Menlo,monospace" fill="#64748b" text-anchor="end">200</text>
<line x1="80" y1="142.9" x2="960" y2="142.9" stroke="#f1f5f9"/>
<text x="74" y="146.9" font-size="9" font-family="Menlo,monospace" fill="#64748b" text-anchor="end">500</text>
<line x1="80" y1="128.2" x2="960" y2="128.2" stroke="#f1f5f9"/>
<text x="74" y="132.2" font-size="9" font-family="Menlo,monospace" fill="#64748b" text-anchor="end">1000</text>
<line x1="80" y1="113.6" x2="960" y2="113.6" stroke="#f1f5f9"/>
<text x="74" y="117.6" font-size="9" font-family="Menlo,monospace" fill="#64748b" text-anchor="end">2000</text>
<line x1="80" y1="94.2" x2="960" y2="94.2" stroke="#f1f5f9"/>
<text x="74" y="98.2" font-size="9" font-family="Menlo,monospace" fill="#64748b" text-anchor="end">5000</text>
<line x1="80" y1="79.6" x2="960" y2="79.6" stroke="#f1f5f9"/>
<text x="74" y="83.6" font-size="9" font-family="Menlo,monospace" fill="#64748b" text-anchor="end">10000</text>
<text x="80.0" y="378" font-size="9" font-family="Menlo,monospace" fill="#64748b" text-anchor="middle">1</text>
<text x="124.0" y="378" font-size="9" font-family="Menlo,monospace" fill="#64748b" text-anchor="middle">2</text>
<text x="168.0" y="378" font-size="9" font-family="Menlo,monospace" fill="#64748b" text-anchor="middle">4</text>
<text x="212.0" y="378" font-size="9" font-family="Menlo,monospace" fill="#64748b" text-anchor="middle">8</text>
<text x="256.0" y="378" font-size="9" font-family="Menlo,monospace" fill="#64748b" text-anchor="middle">15</text>
<text x="300.0" y="378" font-size="9" font-family="Menlo,monospace" fill="#64748b" text-anchor="middle">16</text>
<text x="344.0" y="378" font-size="9" font-family="Menlo,monospace" fill="#64748b" text-anchor="middle">17</text>
<text x="388.0" y="378" font-size="9" font-family="Menlo,monospace" fill="#64748b" text-anchor="middle">31</text>
<text x="432.0" y="378" font-size="9" font-family="Menlo,monospace" fill="#64748b" text-anchor="middle">32</text>
<text x="476.0" y="378" font-size="9" font-family="Menlo,monospace" fill="#64748b" text-anchor="middle">33</text>
<text x="520.0" y="378" font-size="9" font-family="Menlo,monospace" fill="#64748b" text-anchor="middle">63</text>
<text x="564.0" y="378" font-size="9" font-family="Menlo,monospace" fill="#64748b" text-anchor="middle">64</text>
<text x="608.0" y="378" font-size="9" font-family="Menlo,monospace" fill="#64748b" text-anchor="middle">65</text>
<text x="652.0" y="378" font-size="9" font-family="Menlo,monospace" fill="#64748b" text-anchor="middle">127</text>
<text x="696.0" y="378" font-size="9" font-family="Menlo,monospace" fill="#64748b" text-anchor="middle">128</text>
<text x="740.0" y="378" font-size="9" font-family="Menlo,monospace" fill="#64748b" text-anchor="middle">129</text>
<text x="784.0" y="378" font-size="9" font-family="Menlo,monospace" fill="#64748b" text-anchor="middle">255</text>
<text x="828.0" y="378" font-size="9" font-family="Menlo,monospace" fill="#64748b" text-anchor="middle">256</text>
<text x="872.0" y="378" font-size="9" font-family="Menlo,monospace" fill="#64748b" text-anchor="middle">257</text>
<text x="916.0" y="378" font-size="9" font-family="Menlo,monospace" fill="#64748b" text-anchor="middle">511</text>
<text x="960.0" y="378" font-size="9" font-family="Menlo,monospace" fill="#64748b" text-anchor="middle">512</text>
<polyline points="80.0,355.3 124.0,346.9 168.0,317.8 212.0,289.9 256.0,255.1 300.0,251.6 344.0,271.4 388.0,221.7 432.0,220.1 476.0,237.4 520.0,189.1 564.0,187.2 608.0,202.8 652.0,155.6 696.0,154.5 740.0,162.5 784.0,116.9 828.0,116.9 872.0,115.6 916.0,73.8 960.0,75.4" fill="none" stroke="#6366f1" stroke-width="2.5"/>
<circle cx="80.0" cy="355.3" r="3.5" fill="#6366f1"/>
<circle cx="124.0" cy="346.9" r="3.5" fill="#6366f1"/>
<circle cx="168.0" cy="317.8" r="3.5" fill="#6366f1"/>
<circle cx="212.0" cy="289.9" r="3.5" fill="#6366f1"/>
<circle cx="256.0" cy="255.1" r="3.5" fill="#6366f1"/>
<circle cx="300.0" cy="251.6" r="3.5" fill="#6366f1"/>
<circle cx="344.0" cy="271.4" r="3.5" fill="#6366f1"/>
<circle cx="388.0" cy="221.7" r="3.5" fill="#6366f1"/>
<circle cx="432.0" cy="220.1" r="3.5" fill="#6366f1"/>
<circle cx="476.0" cy="237.4" r="3.5" fill="#6366f1"/>
<circle cx="520.0" cy="189.1" r="3.5" fill="#6366f1"/>
<circle cx="564.0" cy="187.2" r="3.5" fill="#6366f1"/>
<circle cx="608.0" cy="202.8" r="3.5" fill="#6366f1"/>
<circle cx="652.0" cy="155.6" r="3.5" fill="#6366f1"/>
<circle cx="696.0" cy="154.5" r="3.5" fill="#6366f1"/>
<circle cx="740.0" cy="162.5" r="3.5" fill="#6366f1"/>
<circle cx="784.0" cy="116.9" r="3.5" fill="#6366f1"/>
<circle cx="828.0" cy="116.9" r="3.5" fill="#6366f1"/>
<circle cx="872.0" cy="115.6" r="3.5" fill="#6366f1"/>
<circle cx="916.0" cy="73.8" r="3.5" fill="#6366f1"/>
<circle cx="960.0" cy="75.4" r="3.5" fill="#6366f1"/>
<polyline points="80.0,355.3 124.0,346.9 168.0,317.8 212.0,289.9 256.0,255.1 300.0,251.6 344.0,271.4 388.0,221.7 432.0,220.1 476.0,237.4 520.0,189.1 564.0,187.2 608.0,202.8 652.0,155.6 696.0,154.5 740.0,162.5 784.0,116.9 828.0,116.9 872.0,115.6 916.0,73.8 960.0,75.4" fill="none" stroke="#f59e0b" stroke-width="2.5"/>
<circle cx="80.0" cy="355.3" r="3.5" fill="#f59e0b"/>
<circle cx="124.0" cy="346.9" r="3.5" fill="#f59e0b"/>
<circle cx="168.0" cy="317.8" r="3.5" fill="#f59e0b"/>
<circle cx="212.0" cy="289.9" r="3.5" fill="#f59e0b"/>
<circle cx="256.0" cy="255.1" r="3.5" fill="#f59e0b"/>
<circle cx="300.0" cy="251.6" r="3.5" fill="#f59e0b"/>
<circle cx="344.0" cy="271.4" r="3.5" fill="#f59e0b"/>
<circle cx="388.0" cy="221.7" r="3.5" fill="#f59e0b"/>
<circle cx="432.0" cy="220.1" r="3.5" fill="#f59e0b"/>
<circle cx="476.0" cy="237.4" r="3.5" fill="#f59e0b"/>
<circle cx="520.0" cy="189.1" r="3.5" fill="#f59e0b"/>
<circle cx="564.0" cy="187.2" r="3.5" fill="#f59e0b"/>
<circle cx="608.0" cy="202.8" r="3.5" fill="#f59e0b"/>
<circle cx="652.0" cy="155.6" r="3.5" fill="#f59e0b"/>
<circle cx="696.0" cy="154.5" r="3.5" fill="#f59e0b"/>
<circle cx="740.0" cy="162.5" r="3.5" fill="#f59e0b"/>
<circle cx="784.0" cy="116.9" r="3.5" fill="#f59e0b"/>
<circle cx="828.0" cy="116.9" r="3.5" fill="#f59e0b"/>
<circle cx="872.0" cy="115.6" r="3.5" fill="#f59e0b"/>
<circle cx="916.0" cy="73.8" r="3.5" fill="#f59e0b"/>
<circle cx="960.0" cy="75.4" r="3.5" fill="#f59e0b"/>
<polyline points="80.0,355.3 124.0,346.9 168.0,317.8 212.0,289.9 256.0,255.1 300.0,251.6 344.0,271.4 388.0,221.7 432.0,220.1 476.0,237.4 520.0,189.1 564.0,187.2 608.0,202.8 652.0,155.6 696.0,154.5 740.0,162.5 784.0,116.9 828.0,116.9 872.0,115.6 916.0,73.8 960.0,75.4" fill="none" stroke="#ef4444" stroke-width="2.5"/>
<circle cx="80.0" cy="355.3" r="3.5" fill="#ef4444"/>
<circle cx="124.0" cy="346.9" r="3.5" fill="#ef4444"/>
<circle cx="168.0" cy="317.8" r="3.5" fill="#ef4444"/>
<circle cx="212.0" cy="289.9" r="3.5" fill="#ef4444"/>
<circle cx="256.0" cy="255.1" r="3.5" fill="#ef4444"/>
<circle cx="300.0" cy="251.6" r="3.5" fill="#ef4444"/>
<circle cx="344.0" cy="271.4" r="3.5" fill="#ef4444"/>
<circle cx="388.0" cy="221.7" r="3.5" fill="#ef4444"/>
<circle cx="432.0" cy="220.1" r="3.5" fill="#ef4444"/>
<circle cx="476.0" cy="237.4" r="3.5" fill="#ef4444"/>
<circle cx="520.0" cy="189.1" r="3.5" fill="#ef4444"/>
<circle cx="564.0" cy="187.2" r="3.5" fill="#ef4444"/>
<circle cx="608.0" cy="202.8" r="3.5" fill="#ef4444"/>
<circle cx="652.0" cy="155.6" r="3.5" fill="#ef4444"/>
<circle cx="696.0" cy="154.5" r="3.5" fill="#ef4444"/>
<circle cx="740.0" cy="162.5" r="3.5" fill="#ef4444"/>
<circle cx="784.0" cy="116.9" r="3.5" fill="#ef4444"/>
<circle cx="828.0" cy="116.9" r="3.5" fill="#ef4444"/>
<circle cx="872.0" cy="115.6" r="3.5" fill="#ef4444"/>
<circle cx="916.0" cy="73.8" r="3.5" fill="#ef4444"/>
<circle cx="960.0" cy="75.4" r="3.5" fill="#ef4444"/>
<polyline points="80.0,338.0 124.0,336.6 168.0,338.8 212.0,324.1 256.0,276.2 300.0,290.7 344.0,281.4 388.0,244.0 432.0,271.4 476.0,265.1 520.0,215.4 564.0,224.8 608.0,219.2 652.0,185.6 696.0,197.2 740.0,194.8 784.0,158.4 828.0,164.7 872.0,152.3 916.0,113.4 960.0,119.1" fill="none" stroke="#10b981" stroke-width="2.5"/>
<circle cx="80.0" cy="338.0" r="3.5" fill="#10b981"/>
<circle cx="124.0" cy="336.6" r="3.5" fill="#10b981"/>
<circle cx="168.0" cy="338.8" r="3.5" fill="#10b981"/>
<circle cx="212.0" cy="324.1" r="3.5" fill="#10b981"/>
<circle cx="256.0" cy="276.2" r="3.5" fill="#10b981"/>
<circle cx="300.0" cy="290.7" r="3.5" fill="#10b981"/>
<circle cx="344.0" cy="281.4" r="3.5" fill="#10b981"/>
<circle cx="388.0" cy="244.0" r="3.5" fill="#10b981"/>
<circle cx="432.0" cy="271.4" r="3.5" fill="#10b981"/>
<circle cx="476.0" cy="265.1" r="3.5" fill="#10b981"/>
<circle cx="520.0" cy="215.4" r="3.5" fill="#10b981"/>
<circle cx="564.0" cy="224.8" r="3.5" fill="#10b981"/>
<circle cx="608.0" cy="219.2" r="3.5" fill="#10b981"/>
<circle cx="652.0" cy="185.6" r="3.5" fill="#10b981"/>
<circle cx="696.0" cy="197.2" r="3.5" fill="#10b981"/>
<circle cx="740.0" cy="194.8" r="3.5" fill="#10b981"/>
<circle cx="784.0" cy="158.4" r="3.5" fill="#10b981"/>
<circle cx="828.0" cy="164.7" r="3.5" fill="#10b981"/>
<circle cx="872.0" cy="152.3" r="3.5" fill="#10b981"/>
<circle cx="916.0" cy="113.4" r="3.5" fill="#10b981"/>
<circle cx="960.0" cy="119.1" r="3.5" fill="#10b981"/>
<text x="70" y="215" font-size="10" font-family="Menlo,monospace" fill="#475569" text-anchor="middle" transform="rotate(-90 30 215)">µs</text>
</svg>