<svg xmlns="http://www.w3.org/2000/svg" viewBox="0 0 1000 420" width="100%" height="auto">
<rect width="1000" height="420" fill="#ffffff"/>
<text x="24" y="32" font-size="20" font-family="Menlo,monospace" fill="#0f172a">Square Matmul GFLOPS vs Matrix Size</text>
<text x="24" y="52" font-size="11" font-family="Menlo,monospace" fill="#64748b">Apple M1 (Virtual) · f32 · log scale · higher is better</text>
<rect x="80" y="54" width="10" height="10" rx="2" fill="#6366f1"/>
<text x="94" y="63" font-size="11" font-family="Menlo,monospace" fill="#334155">Scalar Rust</text>
<rect x="260" y="54" width="10" height="10" rx="2" fill="#f59e0b"/>
<text x="274" y="63" font-size="11" font-family="Menlo,monospace" fill="#334155">AMX (1 core)</text>
<rect x="440" y="54" width="10" height="10" rx="2" fill="#ef4444"/>
<text x="454" y="63" font-size="11" font-family="Menlo,monospace" fill="#334155">AMX (all cores)</text>
<rect x="620" y="54" width="10" height="10" rx="2" fill="#10b981"/>
<text x="634" y="63" font-size="11" font-family="Menlo,monospace" fill="#334155">Accelerate</text>
<line x1="80" y1="70" x2="80" y2="360" stroke="#cbd5e1"/>
<line x1="80" y1="360" x2="960" y2="360" stroke="#cbd5e1"/>
<line x1="80" y1="346.6" x2="960" y2="346.6" stroke="#f1f5f9"/>
<text x="74" y="350.6" font-size="9" font-family="Menlo,monospace" fill="#64748b" text-anchor="end">0.05</text>
<line x1="80" y1="324.0" x2="960" y2="324.0" stroke="#f1f5f9"/>
<text x="74" y="328.0" font-size="9" font-family="Menlo,monospace" fill="#64748b" text-anchor="end">0.10</text>
<line x1="80" y1="301.4" x2="960" y2="301.4" stroke="#f1f5f9"/>
<text x="74" y="305.4" font-size="9" font-family="Menlo,monospace" fill="#64748b" text-anchor="end">0.20</text>
<line x1="80" y1="271.6" x2="960" y2="271.6" stroke="#f1f5f9"/>
<text x="74" y="275.6" font-size="9" font-family="Menlo,monospace" fill="#64748b" text-anchor="end">0.50</text>
<line x1="80" y1="249.0" x2="960" y2="249.0" stroke="#f1f5f9"/>
<text x="74" y="253.0" font-size="9" font-family="Menlo,monospace" fill="#64748b" text-anchor="end">1</text>
<line x1="80" y1="226.4" x2="960" y2="226.4" stroke="#f1f5f9"/>
<text x="74" y="230.4" font-size="9" font-family="Menlo,monospace" fill="#64748b" text-anchor="end">2</text>
<line x1="80" y1="196.6" x2="960" y2="196.6" stroke="#f1f5f9"/>
<text x="74" y="200.6" font-size="9" font-family="Menlo,monospace" fill="#64748b" text-anchor="end">5</text>
<line x1="80" y1="174.0" x2="960" y2="174.0" stroke="#f1f5f9"/>
<text x="74" y="178.0" font-size="9" font-family="Menlo,monospace" fill="#64748b" text-anchor="end">10</text>
<line x1="80" y1="151.4" x2="960" y2="151.4" stroke="#f1f5f9"/>
<text x="74" y="155.4" font-size="9" font-family="Menlo,monospace" fill="#64748b" text-anchor="end">20</text>
<line x1="80" y1="121.6" x2="960" y2="121.6" stroke="#f1f5f9"/>
<text x="74" y="125.6" font-size="9" font-family="Menlo,monospace" fill="#64748b" text-anchor="end">50</text>
<line x1="80" y1="99.0" x2="960" y2="99.0" stroke="#f1f5f9"/>
<text x="74" y="103.0" font-size="9" font-family="Menlo,monospace" fill="#64748b" text-anchor="end">100</text>
<line x1="80" y1="76.5" x2="960" y2="76.5" stroke="#f1f5f9"/>
<text x="74" y="80.5" font-size="9" font-family="Menlo,monospace" fill="#64748b" text-anchor="end">200</text>
<text x="80.0" y="378" font-size="9" font-family="Menlo,monospace" fill="#64748b" text-anchor="middle">1</text>
<text x="124.0" y="378" font-size="9" font-family="Menlo,monospace" fill="#64748b" text-anchor="middle">2</text>
<text x="168.0" y="378" font-size="9" font-family="Menlo,monospace" fill="#64748b" text-anchor="middle">4</text>
<text x="212.0" y="378" font-size="9" font-family="Menlo,monospace" fill="#64748b" text-anchor="middle">8</text>
<text x="256.0" y="378" font-size="9" font-family="Menlo,monospace" fill="#64748b" text-anchor="middle">15</text>
<text x="300.0" y="378" font-size="9" font-family="Menlo,monospace" fill="#64748b" text-anchor="middle">16</text>
<text x="344.0" y="378" font-size="9" font-family="Menlo,monospace" fill="#64748b" text-anchor="middle">17</text>
<text x="388.0" y="378" font-size="9" font-family="Menlo,monospace" fill="#64748b" text-anchor="middle">31</text>
<text x="432.0" y="378" font-size="9" font-family="Menlo,monospace" fill="#64748b" text-anchor="middle">32</text>
<text x="476.0" y="378" font-size="9" font-family="Menlo,monospace" fill="#64748b" text-anchor="middle">33</text>
<text x="520.0" y="378" font-size="9" font-family="Menlo,monospace" fill="#64748b" text-anchor="middle">63</text>
<text x="564.0" y="378" font-size="9" font-family="Menlo,monospace" fill="#64748b" text-anchor="middle">64</text>
<text x="608.0" y="378" font-size="9" font-family="Menlo,monospace" fill="#64748b" text-anchor="middle">65</text>
<text x="652.0" y="378" font-size="9" font-family="Menlo,monospace" fill="#64748b" text-anchor="middle">127</text>
<text x="696.0" y="378" font-size="9" font-family="Menlo,monospace" fill="#64748b" text-anchor="middle">128</text>
<text x="740.0" y="378" font-size="9" font-family="Menlo,monospace" fill="#64748b" text-anchor="middle">129</text>
<text x="784.0" y="378" font-size="9" font-family="Menlo,monospace" fill="#64748b" text-anchor="middle">255</text>
<text x="828.0" y="378" font-size="9" font-family="Menlo,monospace" fill="#64748b" text-anchor="middle">256</text>
<text x="872.0" y="378" font-size="9" font-family="Menlo,monospace" fill="#64748b" text-anchor="middle">257</text>
<text x="916.0" y="378" font-size="9" font-family="Menlo,monospace" fill="#64748b" text-anchor="middle">511</text>
<text x="960.0" y="378" font-size="9" font-family="Menlo,monospace" fill="#64748b" text-anchor="middle">512</text>
<polyline points="80.0,326.1 124.0,271.0 168.0,248.8 212.0,223.6 256.0,216.1 300.0,216.0 344.0,180.3 388.0,200.1 432.0,197.0 476.0,165.9 520.0,176.7 564.0,177.2 608.0,153.6 652.0,161.3 696.0,162.6 740.0,148.4 784.0,152.2 828.0,151.7 872.0,152.1 916.0,150.9 960.0,149.8" fill="none" stroke="#6366f1" stroke-width="2.5"/>
<circle cx="80.0" cy="326.1" r="3.5" fill="#6366f1"/>
<circle cx="124.0" cy="271.0" r="3.5" fill="#6366f1"/>
<circle cx="168.0" cy="248.8" r="3.5" fill="#6366f1"/>
<circle cx="212.0" cy="223.6" r="3.5" fill="#6366f1"/>
<circle cx="256.0" cy="216.1" r="3.5" fill="#6366f1"/>
<circle cx="300.0" cy="216.0" r="3.5" fill="#6366f1"/>
<circle cx="344.0" cy="180.3" r="3.5" fill="#6366f1"/>
<circle cx="388.0" cy="200.1" r="3.5" fill="#6366f1"/>
<circle cx="432.0" cy="197.0" r="3.5" fill="#6366f1"/>
<circle cx="476.0" cy="165.9" r="3.5" fill="#6366f1"/>
<circle cx="520.0" cy="176.7" r="3.5" fill="#6366f1"/>
<circle cx="564.0" cy="177.2" r="3.5" fill="#6366f1"/>
<circle cx="608.0" cy="153.6" r="3.5" fill="#6366f1"/>
<circle cx="652.0" cy="161.3" r="3.5" fill="#6366f1"/>
<circle cx="696.0" cy="162.6" r="3.5" fill="#6366f1"/>
<circle cx="740.0" cy="148.4" r="3.5" fill="#6366f1"/>
<circle cx="784.0" cy="152.2" r="3.5" fill="#6366f1"/>
<circle cx="828.0" cy="151.7" r="3.5" fill="#6366f1"/>
<circle cx="872.0" cy="152.1" r="3.5" fill="#6366f1"/>
<circle cx="916.0" cy="150.9" r="3.5" fill="#6366f1"/>
<circle cx="960.0" cy="149.8" r="3.5" fill="#6366f1"/>
<polyline points="80.0,326.1 124.0,271.0 168.0,248.8 212.0,223.6 256.0,216.1 300.0,216.0 344.0,180.3 388.0,200.1 432.0,197.0 476.0,165.9 520.0,176.7 564.0,177.2 608.0,153.6 652.0,161.3 696.0,162.6 740.0,148.4 784.0,152.2 828.0,151.7 872.0,152.1 916.0,150.9 960.0,149.8" fill="none" stroke="#f59e0b" stroke-width="2.5"/>
<circle cx="80.0" cy="326.1" r="3.5" fill="#f59e0b"/>
<circle cx="124.0" cy="271.0" r="3.5" fill="#f59e0b"/>
<circle cx="168.0" cy="248.8" r="3.5" fill="#f59e0b"/>
<circle cx="212.0" cy="223.6" r="3.5" fill="#f59e0b"/>
<circle cx="256.0" cy="216.1" r="3.5" fill="#f59e0b"/>
<circle cx="300.0" cy="216.0" r="3.5" fill="#f59e0b"/>
<circle cx="344.0" cy="180.3" r="3.5" fill="#f59e0b"/>
<circle cx="388.0" cy="200.1" r="3.5" fill="#f59e0b"/>
<circle cx="432.0" cy="197.0" r="3.5" fill="#f59e0b"/>
<circle cx="476.0" cy="165.9" r="3.5" fill="#f59e0b"/>
<circle cx="520.0" cy="176.7" r="3.5" fill="#f59e0b"/>
<circle cx="564.0" cy="177.2" r="3.5" fill="#f59e0b"/>
<circle cx="608.0" cy="153.6" r="3.5" fill="#f59e0b"/>
<circle cx="652.0" cy="161.3" r="3.5" fill="#f59e0b"/>
<circle cx="696.0" cy="162.6" r="3.5" fill="#f59e0b"/>
<circle cx="740.0" cy="148.4" r="3.5" fill="#f59e0b"/>
<circle cx="784.0" cy="152.2" r="3.5" fill="#f59e0b"/>
<circle cx="828.0" cy="151.7" r="3.5" fill="#f59e0b"/>
<circle cx="872.0" cy="152.1" r="3.5" fill="#f59e0b"/>
<circle cx="916.0" cy="150.9" r="3.5" fill="#f59e0b"/>
<circle cx="960.0" cy="149.8" r="3.5" fill="#f59e0b"/>
<polyline points="80.0,326.1 124.0,271.0 168.0,248.8 212.0,223.6 256.0,216.1 300.0,216.0 344.0,180.3 388.0,200.1 432.0,197.0 476.0,165.9 520.0,176.7 564.0,177.2 608.0,153.6 652.0,161.3 696.0,162.6 740.0,148.4 784.0,152.2 828.0,151.7 872.0,152.1 916.0,150.9 960.0,149.8" fill="none" stroke="#ef4444" stroke-width="2.5"/>
<circle cx="80.0" cy="326.1" r="3.5" fill="#ef4444"/>
<circle cx="124.0" cy="271.0" r="3.5" fill="#ef4444"/>
<circle cx="168.0" cy="248.8" r="3.5" fill="#ef4444"/>
<circle cx="212.0" cy="223.6" r="3.5" fill="#ef4444"/>
<circle cx="256.0" cy="216.1" r="3.5" fill="#ef4444"/>
<circle cx="300.0" cy="216.0" r="3.5" fill="#ef4444"/>
<circle cx="344.0" cy="180.3" r="3.5" fill="#ef4444"/>
<circle cx="388.0" cy="200.1" r="3.5" fill="#ef4444"/>
<circle cx="432.0" cy="197.0" r="3.5" fill="#ef4444"/>
<circle cx="476.0" cy="165.9" r="3.5" fill="#ef4444"/>
<circle cx="520.0" cy="176.7" r="3.5" fill="#ef4444"/>
<circle cx="564.0" cy="177.2" r="3.5" fill="#ef4444"/>
<circle cx="608.0" cy="153.6" r="3.5" fill="#ef4444"/>
<circle cx="652.0" cy="161.3" r="3.5" fill="#ef4444"/>
<circle cx="696.0" cy="162.6" r="3.5" fill="#ef4444"/>
<circle cx="740.0" cy="148.4" r="3.5" fill="#ef4444"/>
<circle cx="784.0" cy="152.2" r="3.5" fill="#ef4444"/>
<circle cx="828.0" cy="151.7" r="3.5" fill="#ef4444"/>
<circle cx="872.0" cy="152.1" r="3.5" fill="#ef4444"/>
<circle cx="916.0" cy="150.9" r="3.5" fill="#ef4444"/>
<circle cx="960.0" cy="149.8" r="3.5" fill="#ef4444"/>
<polyline points="80.0,352.7 124.0,287.3 168.0,215.7 212.0,170.5 256.0,185.5 300.0,154.8 344.0,163.3 388.0,165.0 432.0,116.8 476.0,123.5 520.0,135.9 564.0,120.8 608.0,128.5 652.0,115.3 696.0,97.2 740.0,98.9 784.0,84.9 828.0,94.0 872.0,93.5 916.0,90.6 960.0,75.9" fill="none" stroke="#10b981" stroke-width="2.5"/>
<circle cx="80.0" cy="352.7" r="3.5" fill="#10b981"/>
<circle cx="124.0" cy="287.3" r="3.5" fill="#10b981"/>
<circle cx="168.0" cy="215.7" r="3.5" fill="#10b981"/>
<circle cx="212.0" cy="170.5" r="3.5" fill="#10b981"/>
<circle cx="256.0" cy="185.5" r="3.5" fill="#10b981"/>
<circle cx="300.0" cy="154.8" r="3.5" fill="#10b981"/>
<circle cx="344.0" cy="163.3" r="3.5" fill="#10b981"/>
<circle cx="388.0" cy="165.0" r="3.5" fill="#10b981"/>
<circle cx="432.0" cy="116.8" r="3.5" fill="#10b981"/>
<circle cx="476.0" cy="123.5" r="3.5" fill="#10b981"/>
<circle cx="520.0" cy="135.9" r="3.5" fill="#10b981"/>
<circle cx="564.0" cy="120.8" r="3.5" fill="#10b981"/>
<circle cx="608.0" cy="128.5" r="3.5" fill="#10b981"/>
<circle cx="652.0" cy="115.3" r="3.5" fill="#10b981"/>
<circle cx="696.0" cy="97.2" r="3.5" fill="#10b981"/>
<circle cx="740.0" cy="98.9" r="3.5" fill="#10b981"/>
<circle cx="784.0" cy="84.9" r="3.5" fill="#10b981"/>
<circle cx="828.0" cy="94.0" r="3.5" fill="#10b981"/>
<circle cx="872.0" cy="93.5" r="3.5" fill="#10b981"/>
<circle cx="916.0" cy="90.6" r="3.5" fill="#10b981"/>
<circle cx="960.0" cy="75.9" r="3.5" fill="#10b981"/>
<text x="70" y="215" font-size="10" font-family="Menlo,monospace" fill="#475569" text-anchor="middle" transform="rotate(-90 30 215)">GFLOPS</text>
</svg>