<svg xmlns="http://www.w3.org/2000/svg" viewBox="0 0 1000 680" width="100%" height="auto">
<rect width="1000" height="680" fill="#ffffff"/>
<text x="24" y="32" font-size="20" font-family="Menlo,monospace" fill="#0f172a">Square Matmul GFLOPS — Scalar vs AMX vs Accelerate</text>
<text x="24" y="52" font-size="11" font-family="Menlo,monospace" fill="#64748b">Apple M1 (Virtual) · f32 · higher is better</text>
<rect x="200" y="54" width="10" height="10" rx="2" fill="#6366f1"/>
<text x="214" y="63" font-size="11" font-family="Menlo,monospace" fill="#334155">Scalar Rust</text>
<rect x="380" y="54" width="10" height="10" rx="2" fill="#f59e0b"/>
<text x="394" y="63" font-size="11" font-family="Menlo,monospace" fill="#334155">AMX (1 core)</text>
<rect x="560" y="54" width="10" height="10" rx="2" fill="#ef4444"/>
<text x="574" y="63" font-size="11" font-family="Menlo,monospace" fill="#334155">AMX (all cores)</text>
<rect x="740" y="54" width="10" height="10" rx="2" fill="#10b981"/>
<text x="754" y="63" font-size="11" font-family="Menlo,monospace" fill="#334155">Accelerate</text>
<text x="12" y="108" font-size="11" font-family="Menlo,monospace" fill="#111827">8x8x8</text>
<rect x="200" y="70" width="37.2" height="14" rx="3" fill="#6366f1"/>
<text x="242.2" y="81" font-size="10" font-family="Menlo,monospace" fill="#334155">4.2 GFLOPS</text>
<rect x="200" y="87" width="37.2" height="14" rx="3" fill="#f59e0b"/>
<text x="242.2" y="98" font-size="10" font-family="Menlo,monospace" fill="#334155">4.2 GFLOPS</text>
<rect x="200" y="104" width="37.2" height="14" rx="3" fill="#ef4444"/>
<text x="242.2" y="115" font-size="10" font-family="Menlo,monospace" fill="#334155">4.2 GFLOPS</text>
<rect x="200" y="121" width="97.7" height="14" rx="3" fill="#10b981"/>
<text x="302.7" y="132" font-size="10" font-family="Menlo,monospace" fill="#334155">11.0 GFLOPS</text>
<text x="12" y="188" font-size="11" font-family="Menlo,monospace" fill="#111827">16x16x16</text>
<rect x="200" y="150" width="75.6" height="14" rx="3" fill="#6366f1"/>
<text x="280.6" y="161" font-size="10" font-family="Menlo,monospace" fill="#334155">8.5 GFLOPS</text>
<rect x="200" y="167" width="75.6" height="14" rx="3" fill="#f59e0b"/>
<text x="280.6" y="178" font-size="10" font-family="Menlo,monospace" fill="#334155">8.5 GFLOPS</text>
<rect x="200" y="184" width="75.6" height="14" rx="3" fill="#ef4444"/>
<text x="280.6" y="195" font-size="10" font-family="Menlo,monospace" fill="#334155">8.5 GFLOPS</text>
<rect x="200" y="201" width="160.3" height="14" rx="3" fill="#10b981"/>
<text x="365.3" y="212" font-size="10" font-family="Menlo,monospace" fill="#334155">18.0 GFLOPS</text>
<text x="12" y="268" font-size="11" font-family="Menlo,monospace" fill="#111827">32x32x32</text>
<rect x="200" y="230" width="120.5" height="14" rx="3" fill="#6366f1"/>
<text x="325.5" y="241" font-size="10" font-family="Menlo,monospace" fill="#334155">13.5 GFLOPS</text>
<rect x="200" y="247" width="120.5" height="14" rx="3" fill="#f59e0b"/>
<text x="325.5" y="258" font-size="10" font-family="Menlo,monospace" fill="#334155">13.5 GFLOPS</text>
<rect x="200" y="264" width="120.5" height="14" rx="3" fill="#ef4444"/>
<text x="325.5" y="275" font-size="10" font-family="Menlo,monospace" fill="#334155">13.5 GFLOPS</text>
<rect x="200" y="281" width="518.4" height="14" rx="3" fill="#10b981"/>
<text x="723.4" y="292" font-size="10" font-family="Menlo,monospace" fill="#334155">58.2 GFLOPS</text>
<text x="12" y="348" font-size="11" font-family="Menlo,monospace" fill="#111827">64x64x64</text>
<rect x="200" y="310" width="171.5" height="14" rx="3" fill="#6366f1"/>
<text x="376.5" y="321" font-size="10" font-family="Menlo,monospace" fill="#334155">19.3 GFLOPS</text>
<rect x="200" y="327" width="171.5" height="14" rx="3" fill="#f59e0b"/>
<text x="376.5" y="338" font-size="10" font-family="Menlo,monospace" fill="#334155">19.3 GFLOPS</text>
<rect x="200" y="344" width="171.5" height="14" rx="3" fill="#ef4444"/>
<text x="376.5" y="355" font-size="10" font-family="Menlo,monospace" fill="#334155">19.3 GFLOPS</text>
<rect x="200" y="361" width="459.6" height="14" rx="3" fill="#10b981"/>
<text x="664.6" y="372" font-size="10" font-family="Menlo,monospace" fill="#334155">51.6 GFLOPS</text>
<text x="12" y="428" font-size="11" font-family="Menlo,monospace" fill="#111827">128x128x128</text>
<rect x="200" y="390" width="263.5" height="14" rx="3" fill="#6366f1"/>
<text x="468.5" y="401" font-size="10" font-family="Menlo,monospace" fill="#334155">29.6 GFLOPS</text>
<rect x="200" y="407" width="263.5" height="14" rx="3" fill="#f59e0b"/>
<text x="468.5" y="418" font-size="10" font-family="Menlo,monospace" fill="#334155">29.6 GFLOPS</text>
<rect x="200" y="424" width="263.5" height="14" rx="3" fill="#ef4444"/>
<text x="468.5" y="435" font-size="10" font-family="Menlo,monospace" fill="#334155">29.6 GFLOPS</text>
<rect x="200" y="441" width="609.5" height="14" rx="3" fill="#10b981"/>
<text x="814.5" y="452" font-size="10" font-family="Menlo,monospace" fill="#334155">68.4 GFLOPS</text>
<text x="12" y="508" font-size="11" font-family="Menlo,monospace" fill="#111827">256x256x256</text>
<rect x="200" y="470" width="91.1" height="14" rx="3" fill="#6366f1"/>
<text x="296.1" y="481" font-size="10" font-family="Menlo,monospace" fill="#334155">10.2 GFLOPS</text>
<rect x="200" y="487" width="91.1" height="14" rx="3" fill="#f59e0b"/>
<text x="296.1" y="498" font-size="10" font-family="Menlo,monospace" fill="#334155">10.2 GFLOPS</text>
<rect x="200" y="504" width="91.1" height="14" rx="3" fill="#ef4444"/>
<text x="296.1" y="515" font-size="10" font-family="Menlo,monospace" fill="#334155">10.2 GFLOPS</text>
<rect x="200" y="521" width="632.1" height="14" rx="3" fill="#10b981"/>
<text x="837.1" y="532" font-size="10" font-family="Menlo,monospace" fill="#334155">71.0 GFLOPS</text>
<text x="12" y="588" font-size="11" font-family="Menlo,monospace" fill="#111827">512x512x512</text>
<rect x="200" y="550" width="189.5" height="14" rx="3" fill="#6366f1"/>
<text x="394.5" y="561" font-size="10" font-family="Menlo,monospace" fill="#334155">21.3 GFLOPS</text>
<rect x="200" y="567" width="189.5" height="14" rx="3" fill="#f59e0b"/>
<text x="394.5" y="578" font-size="10" font-family="Menlo,monospace" fill="#334155">21.3 GFLOPS</text>
<rect x="200" y="584" width="189.5" height="14" rx="3" fill="#ef4444"/>
<text x="394.5" y="595" font-size="10" font-family="Menlo,monospace" fill="#334155">21.3 GFLOPS</text>
<rect x="200" y="601" width="700.0" height="14" rx="3" fill="#10b981"/>
<text x="905.0" y="612" font-size="10" font-family="Menlo,monospace" fill="#334155">78.6 GFLOPS</text>
</svg>