<svg xmlns="http://www.w3.org/2000/svg" viewBox="0 0 1000 420" width="100%" height="auto">
<rect width="1000" height="420" fill="#ffffff"/>
<text x="24" y="32" font-size="20" font-family="Menlo,monospace" fill="#0f172a">Square Matmul GFLOPS vs Matrix Size</text>
<text x="24" y="52" font-size="11" font-family="Menlo,monospace" fill="#64748b">Apple M1 (Virtual) · f32 · log scale · higher is better</text>
<rect x="80" y="54" width="10" height="10" rx="2" fill="#6366f1"/>
<text x="94" y="63" font-size="11" font-family="Menlo,monospace" fill="#334155">Scalar Rust</text>
<rect x="260" y="54" width="10" height="10" rx="2" fill="#f59e0b"/>
<text x="274" y="63" font-size="11" font-family="Menlo,monospace" fill="#334155">AMX (1 core)</text>
<rect x="440" y="54" width="10" height="10" rx="2" fill="#ef4444"/>
<text x="454" y="63" font-size="11" font-family="Menlo,monospace" fill="#334155">AMX (all cores)</text>
<rect x="620" y="54" width="10" height="10" rx="2" fill="#10b981"/>
<text x="634" y="63" font-size="11" font-family="Menlo,monospace" fill="#334155">Accelerate</text>
<line x1="80" y1="70" x2="80" y2="360" stroke="#cbd5e1"/>
<line x1="80" y1="360" x2="960" y2="360" stroke="#cbd5e1"/>
<line x1="80" y1="345.3" x2="960" y2="345.3" stroke="#f1f5f9"/>
<text x="74" y="349.3" font-size="9" font-family="Menlo,monospace" fill="#64748b" text-anchor="end">0.05</text>
<line x1="80" y1="321.9" x2="960" y2="321.9" stroke="#f1f5f9"/>
<text x="74" y="325.9" font-size="9" font-family="Menlo,monospace" fill="#64748b" text-anchor="end">0.10</text>
<line x1="80" y1="298.4" x2="960" y2="298.4" stroke="#f1f5f9"/>
<text x="74" y="302.4" font-size="9" font-family="Menlo,monospace" fill="#64748b" text-anchor="end">0.20</text>
<line x1="80" y1="267.5" x2="960" y2="267.5" stroke="#f1f5f9"/>
<text x="74" y="271.5" font-size="9" font-family="Menlo,monospace" fill="#64748b" text-anchor="end">0.50</text>
<line x1="80" y1="244.1" x2="960" y2="244.1" stroke="#f1f5f9"/>
<text x="74" y="248.1" font-size="9" font-family="Menlo,monospace" fill="#64748b" text-anchor="end">1</text>
<line x1="80" y1="220.7" x2="960" y2="220.7" stroke="#f1f5f9"/>
<text x="74" y="224.7" font-size="9" font-family="Menlo,monospace" fill="#64748b" text-anchor="end">2</text>
<line x1="80" y1="189.7" x2="960" y2="189.7" stroke="#f1f5f9"/>
<text x="74" y="193.7" font-size="9" font-family="Menlo,monospace" fill="#64748b" text-anchor="end">5</text>
<line x1="80" y1="166.3" x2="960" y2="166.3" stroke="#f1f5f9"/>
<text x="74" y="170.3" font-size="9" font-family="Menlo,monospace" fill="#64748b" text-anchor="end">10</text>
<line x1="80" y1="142.9" x2="960" y2="142.9" stroke="#f1f5f9"/>
<text x="74" y="146.9" font-size="9" font-family="Menlo,monospace" fill="#64748b" text-anchor="end">20</text>
<line x1="80" y1="112.0" x2="960" y2="112.0" stroke="#f1f5f9"/>
<text x="74" y="116.0" font-size="9" font-family="Menlo,monospace" fill="#64748b" text-anchor="end">50</text>
<line x1="80" y1="88.6" x2="960" y2="88.6" stroke="#f1f5f9"/>
<text x="74" y="92.6" font-size="9" font-family="Menlo,monospace" fill="#64748b" text-anchor="end">100</text>
<text x="80.0" y="378" font-size="9" font-family="Menlo,monospace" fill="#64748b" text-anchor="middle">1</text>
<text x="124.0" y="378" font-size="9" font-family="Menlo,monospace" fill="#64748b" text-anchor="middle">2</text>
<text x="168.0" y="378" font-size="9" font-family="Menlo,monospace" fill="#64748b" text-anchor="middle">4</text>
<text x="212.0" y="378" font-size="9" font-family="Menlo,monospace" fill="#64748b" text-anchor="middle">8</text>
<text x="256.0" y="378" font-size="9" font-family="Menlo,monospace" fill="#64748b" text-anchor="middle">15</text>
<text x="300.0" y="378" font-size="9" font-family="Menlo,monospace" fill="#64748b" text-anchor="middle">16</text>
<text x="344.0" y="378" font-size="9" font-family="Menlo,monospace" fill="#64748b" text-anchor="middle">17</text>
<text x="388.0" y="378" font-size="9" font-family="Menlo,monospace" fill="#64748b" text-anchor="middle">31</text>
<text x="432.0" y="378" font-size="9" font-family="Menlo,monospace" fill="#64748b" text-anchor="middle">32</text>
<text x="476.0" y="378" font-size="9" font-family="Menlo,monospace" fill="#64748b" text-anchor="middle">33</text>
<text x="520.0" y="378" font-size="9" font-family="Menlo,monospace" fill="#64748b" text-anchor="middle">63</text>
<text x="564.0" y="378" font-size="9" font-family="Menlo,monospace" fill="#64748b" text-anchor="middle">64</text>
<text x="608.0" y="378" font-size="9" font-family="Menlo,monospace" fill="#64748b" text-anchor="middle">65</text>
<text x="652.0" y="378" font-size="9" font-family="Menlo,monospace" fill="#64748b" text-anchor="middle">127</text>
<text x="696.0" y="378" font-size="9" font-family="Menlo,monospace" fill="#64748b" text-anchor="middle">128</text>
<text x="740.0" y="378" font-size="9" font-family="Menlo,monospace" fill="#64748b" text-anchor="middle">129</text>
<text x="784.0" y="378" font-size="9" font-family="Menlo,monospace" fill="#64748b" text-anchor="middle">255</text>
<text x="828.0" y="378" font-size="9" font-family="Menlo,monospace" fill="#64748b" text-anchor="middle">256</text>
<text x="872.0" y="378" font-size="9" font-family="Menlo,monospace" fill="#64748b" text-anchor="middle">257</text>
<text x="916.0" y="378" font-size="9" font-family="Menlo,monospace" fill="#64748b" text-anchor="middle">511</text>
<text x="960.0" y="378" font-size="9" font-family="Menlo,monospace" fill="#64748b" text-anchor="middle">512</text>
<polyline points="80.0,325.6 124.0,269.6 168.0,272.7 212.0,225.4 256.0,210.8 300.0,217.1 344.0,185.0 388.0,199.3 432.0,202.5 476.0,162.7 520.0,180.9 564.0,176.7 608.0,170.5 652.0,168.2 696.0,159.8 740.0,147.2 784.0,151.4 828.0,151.9 872.0,154.2 916.0,148.0 960.0,148.1" fill="none" stroke="#6366f1" stroke-width="2.5"/>
<circle cx="80.0" cy="325.6" r="3.5" fill="#6366f1"/>
<circle cx="124.0" cy="269.6" r="3.5" fill="#6366f1"/>
<circle cx="168.0" cy="272.7" r="3.5" fill="#6366f1"/>
<circle cx="212.0" cy="225.4" r="3.5" fill="#6366f1"/>
<circle cx="256.0" cy="210.8" r="3.5" fill="#6366f1"/>
<circle cx="300.0" cy="217.1" r="3.5" fill="#6366f1"/>
<circle cx="344.0" cy="185.0" r="3.5" fill="#6366f1"/>
<circle cx="388.0" cy="199.3" r="3.5" fill="#6366f1"/>
<circle cx="432.0" cy="202.5" r="3.5" fill="#6366f1"/>
<circle cx="476.0" cy="162.7" r="3.5" fill="#6366f1"/>
<circle cx="520.0" cy="180.9" r="3.5" fill="#6366f1"/>
<circle cx="564.0" cy="176.7" r="3.5" fill="#6366f1"/>
<circle cx="608.0" cy="170.5" r="3.5" fill="#6366f1"/>
<circle cx="652.0" cy="168.2" r="3.5" fill="#6366f1"/>
<circle cx="696.0" cy="159.8" r="3.5" fill="#6366f1"/>
<circle cx="740.0" cy="147.2" r="3.5" fill="#6366f1"/>
<circle cx="784.0" cy="151.4" r="3.5" fill="#6366f1"/>
<circle cx="828.0" cy="151.9" r="3.5" fill="#6366f1"/>
<circle cx="872.0" cy="154.2" r="3.5" fill="#6366f1"/>
<circle cx="916.0" cy="148.0" r="3.5" fill="#6366f1"/>
<circle cx="960.0" cy="148.1" r="3.5" fill="#6366f1"/>
<polyline points="80.0,325.6 124.0,269.6 168.0,272.7 212.0,225.4 256.0,210.8 300.0,217.1 344.0,185.0 388.0,199.3 432.0,202.5 476.0,162.7 520.0,180.9 564.0,176.7 608.0,170.5 652.0,168.2 696.0,159.8 740.0,147.2 784.0,151.4 828.0,151.9 872.0,154.2 916.0,148.0 960.0,148.1" fill="none" stroke="#f59e0b" stroke-width="2.5"/>
<circle cx="80.0" cy="325.6" r="3.5" fill="#f59e0b"/>
<circle cx="124.0" cy="269.6" r="3.5" fill="#f59e0b"/>
<circle cx="168.0" cy="272.7" r="3.5" fill="#f59e0b"/>
<circle cx="212.0" cy="225.4" r="3.5" fill="#f59e0b"/>
<circle cx="256.0" cy="210.8" r="3.5" fill="#f59e0b"/>
<circle cx="300.0" cy="217.1" r="3.5" fill="#f59e0b"/>
<circle cx="344.0" cy="185.0" r="3.5" fill="#f59e0b"/>
<circle cx="388.0" cy="199.3" r="3.5" fill="#f59e0b"/>
<circle cx="432.0" cy="202.5" r="3.5" fill="#f59e0b"/>
<circle cx="476.0" cy="162.7" r="3.5" fill="#f59e0b"/>
<circle cx="520.0" cy="180.9" r="3.5" fill="#f59e0b"/>
<circle cx="564.0" cy="176.7" r="3.5" fill="#f59e0b"/>
<circle cx="608.0" cy="170.5" r="3.5" fill="#f59e0b"/>
<circle cx="652.0" cy="168.2" r="3.5" fill="#f59e0b"/>
<circle cx="696.0" cy="159.8" r="3.5" fill="#f59e0b"/>
<circle cx="740.0" cy="147.2" r="3.5" fill="#f59e0b"/>
<circle cx="784.0" cy="151.4" r="3.5" fill="#f59e0b"/>
<circle cx="828.0" cy="151.9" r="3.5" fill="#f59e0b"/>
<circle cx="872.0" cy="154.2" r="3.5" fill="#f59e0b"/>
<circle cx="916.0" cy="148.0" r="3.5" fill="#f59e0b"/>
<circle cx="960.0" cy="148.1" r="3.5" fill="#f59e0b"/>
<polyline points="80.0,325.6 124.0,269.6 168.0,272.7 212.0,225.4 256.0,210.8 300.0,217.1 344.0,185.0 388.0,199.3 432.0,202.5 476.0,162.7 520.0,180.9 564.0,176.7 608.0,170.5 652.0,168.2 696.0,159.8 740.0,147.2 784.0,151.4 828.0,151.9 872.0,154.2 916.0,148.0 960.0,148.1" fill="none" stroke="#ef4444" stroke-width="2.5"/>
<circle cx="80.0" cy="325.6" r="3.5" fill="#ef4444"/>
<circle cx="124.0" cy="269.6" r="3.5" fill="#ef4444"/>
<circle cx="168.0" cy="272.7" r="3.5" fill="#ef4444"/>
<circle cx="212.0" cy="225.4" r="3.5" fill="#ef4444"/>
<circle cx="256.0" cy="210.8" r="3.5" fill="#ef4444"/>
<circle cx="300.0" cy="217.1" r="3.5" fill="#ef4444"/>
<circle cx="344.0" cy="185.0" r="3.5" fill="#ef4444"/>
<circle cx="388.0" cy="199.3" r="3.5" fill="#ef4444"/>
<circle cx="432.0" cy="202.5" r="3.5" fill="#ef4444"/>
<circle cx="476.0" cy="162.7" r="3.5" fill="#ef4444"/>
<circle cx="520.0" cy="180.9" r="3.5" fill="#ef4444"/>
<circle cx="564.0" cy="176.7" r="3.5" fill="#ef4444"/>
<circle cx="608.0" cy="170.5" r="3.5" fill="#ef4444"/>
<circle cx="652.0" cy="168.2" r="3.5" fill="#ef4444"/>
<circle cx="696.0" cy="159.8" r="3.5" fill="#ef4444"/>
<circle cx="740.0" cy="147.2" r="3.5" fill="#ef4444"/>
<circle cx="784.0" cy="151.4" r="3.5" fill="#ef4444"/>
<circle cx="828.0" cy="151.9" r="3.5" fill="#ef4444"/>
<circle cx="872.0" cy="154.2" r="3.5" fill="#ef4444"/>
<circle cx="916.0" cy="148.0" r="3.5" fill="#ef4444"/>
<circle cx="960.0" cy="148.1" r="3.5" fill="#ef4444"/>
<polyline points="80.0,352.5 124.0,303.5 168.0,210.7 212.0,163.6 256.0,176.6 300.0,147.5 344.0,155.8 388.0,168.4 432.0,115.1 476.0,118.4 520.0,135.8 564.0,137.2 608.0,117.2 652.0,130.2 696.0,127.5 740.0,131.6 784.0,105.1 828.0,97.3 872.0,99.2 916.0,76.2 960.0,94.4" fill="none" stroke="#10b981" stroke-width="2.5"/>
<circle cx="80.0" cy="352.5" r="3.5" fill="#10b981"/>
<circle cx="124.0" cy="303.5" r="3.5" fill="#10b981"/>
<circle cx="168.0" cy="210.7" r="3.5" fill="#10b981"/>
<circle cx="212.0" cy="163.6" r="3.5" fill="#10b981"/>
<circle cx="256.0" cy="176.6" r="3.5" fill="#10b981"/>
<circle cx="300.0" cy="147.5" r="3.5" fill="#10b981"/>
<circle cx="344.0" cy="155.8" r="3.5" fill="#10b981"/>
<circle cx="388.0" cy="168.4" r="3.5" fill="#10b981"/>
<circle cx="432.0" cy="115.1" r="3.5" fill="#10b981"/>
<circle cx="476.0" cy="118.4" r="3.5" fill="#10b981"/>
<circle cx="520.0" cy="135.8" r="3.5" fill="#10b981"/>
<circle cx="564.0" cy="137.2" r="3.5" fill="#10b981"/>
<circle cx="608.0" cy="117.2" r="3.5" fill="#10b981"/>
<circle cx="652.0" cy="130.2" r="3.5" fill="#10b981"/>
<circle cx="696.0" cy="127.5" r="3.5" fill="#10b981"/>
<circle cx="740.0" cy="131.6" r="3.5" fill="#10b981"/>
<circle cx="784.0" cy="105.1" r="3.5" fill="#10b981"/>
<circle cx="828.0" cy="97.3" r="3.5" fill="#10b981"/>
<circle cx="872.0" cy="99.2" r="3.5" fill="#10b981"/>
<circle cx="916.0" cy="76.2" r="3.5" fill="#10b981"/>
<circle cx="960.0" cy="94.4" r="3.5" fill="#10b981"/>
<text x="70" y="215" font-size="10" font-family="Menlo,monospace" fill="#475569" text-anchor="middle" transform="rotate(-90 30 215)">GFLOPS</text>
</svg>