<svg xmlns="http://www.w3.org/2000/svg" viewBox="0 0 1000 680" width="100%" height="auto">
<rect width="1000" height="680" fill="#ffffff"/>
<text x="24" y="32" font-size="20" font-family="Menlo,monospace" fill="#0f172a">Square Matmul GFLOPS — Scalar vs AMX vs Accelerate</text>
<text x="24" y="52" font-size="11" font-family="Menlo,monospace" fill="#64748b">Apple M4 Pro (Virtual) · f32 · higher is better</text>
<rect x="200" y="54" width="10" height="10" rx="2" fill="#6366f1"/>
<text x="214" y="63" font-size="11" font-family="Menlo,monospace" fill="#334155">Scalar Rust</text>
<rect x="380" y="54" width="10" height="10" rx="2" fill="#f59e0b"/>
<text x="394" y="63" font-size="11" font-family="Menlo,monospace" fill="#334155">AMX (1 core)</text>
<rect x="560" y="54" width="10" height="10" rx="2" fill="#ef4444"/>
<text x="574" y="63" font-size="11" font-family="Menlo,monospace" fill="#334155">AMX (all cores)</text>
<rect x="740" y="54" width="10" height="10" rx="2" fill="#10b981"/>
<text x="754" y="63" font-size="11" font-family="Menlo,monospace" fill="#334155">Accelerate</text>
<text x="12" y="108" font-size="11" font-family="Menlo,monospace" fill="#111827">8x8x8</text>
<rect x="200" y="70" width="1.3" height="14" rx="3" fill="#6366f1"/>
<text x="206.3" y="81" font-size="10" font-family="Menlo,monospace" fill="#334155">3.1 GFLOPS</text>
<rect x="200" y="87" width="1.0" height="14" rx="3" fill="#f59e0b"/>
<text x="206.0" y="98" font-size="10" font-family="Menlo,monospace" fill="#334155">1.7 GFLOPS</text>
<rect x="200" y="104" width="1.0" height="14" rx="3" fill="#ef4444"/>
<text x="206.0" y="115" font-size="10" font-family="Menlo,monospace" fill="#334155">2.0 GFLOPS</text>
<rect x="200" y="121" width="7.0" height="14" rx="3" fill="#10b981"/>
<text x="212.0" y="132" font-size="10" font-family="Menlo,monospace" fill="#334155">16.3 GFLOPS</text>
<text x="12" y="188" font-size="11" font-family="Menlo,monospace" fill="#111827">16x16x16</text>
<rect x="200" y="150" width="1.8" height="14" rx="3" fill="#6366f1"/>
<text x="206.8" y="161" font-size="10" font-family="Menlo,monospace" fill="#334155">4.2 GFLOPS</text>
<rect x="200" y="167" width="5.0" height="14" rx="3" fill="#f59e0b"/>
<text x="210.0" y="178" font-size="10" font-family="Menlo,monospace" fill="#334155">11.7 GFLOPS</text>
<rect x="200" y="184" width="5.8" height="14" rx="3" fill="#ef4444"/>
<text x="210.8" y="195" font-size="10" font-family="Menlo,monospace" fill="#334155">13.6 GFLOPS</text>
<rect x="200" y="201" width="6.0" height="14" rx="3" fill="#10b981"/>
<text x="211.0" y="212" font-size="10" font-family="Menlo,monospace" fill="#334155">14.2 GFLOPS</text>
<text x="12" y="268" font-size="11" font-family="Menlo,monospace" fill="#111827">32x32x32</text>
<rect x="200" y="230" width="4.0" height="14" rx="3" fill="#6366f1"/>
<text x="209.0" y="241" font-size="10" font-family="Menlo,monospace" fill="#334155">9.4 GFLOPS</text>
<rect x="200" y="247" width="16.3" height="14" rx="3" fill="#f59e0b"/>
<text x="221.3" y="258" font-size="10" font-family="Menlo,monospace" fill="#334155">38.3 GFLOPS</text>
<rect x="200" y="264" width="16.3" height="14" rx="3" fill="#ef4444"/>
<text x="221.3" y="275" font-size="10" font-family="Menlo,monospace" fill="#334155">38.3 GFLOPS</text>
<rect x="200" y="281" width="43.6" height="14" rx="3" fill="#10b981"/>
<text x="248.6" y="292" font-size="10" font-family="Menlo,monospace" fill="#334155">102.4 GFLOPS</text>
<text x="12" y="348" font-size="11" font-family="Menlo,monospace" fill="#111827">64x64x64</text>
<rect x="200" y="310" width="6.5" height="14" rx="3" fill="#6366f1"/>
<text x="211.5" y="321" font-size="10" font-family="Menlo,monospace" fill="#334155">15.3 GFLOPS</text>
<rect x="200" y="327" width="33.9" height="14" rx="3" fill="#f59e0b"/>
<text x="238.9" y="338" font-size="10" font-family="Menlo,monospace" fill="#334155">79.7 GFLOPS</text>
<rect x="200" y="344" width="34.4" height="14" rx="3" fill="#ef4444"/>
<text x="239.4" y="355" font-size="10" font-family="Menlo,monospace" fill="#334155">80.9 GFLOPS</text>
<rect x="200" y="361" width="198.5" height="14" rx="3" fill="#10b981"/>
<text x="403.5" y="372" font-size="10" font-family="Menlo,monospace" fill="#334155">466.3 GFLOPS</text>
<text x="12" y="428" font-size="11" font-family="Menlo,monospace" fill="#111827">128x128x128</text>
<rect x="200" y="390" width="10.1" height="14" rx="3" fill="#6366f1"/>
<text x="215.1" y="401" font-size="10" font-family="Menlo,monospace" fill="#334155">23.8 GFLOPS</text>
<rect x="200" y="407" width="59.5" height="14" rx="3" fill="#f59e0b"/>
<text x="264.5" y="418" font-size="10" font-family="Menlo,monospace" fill="#334155">139.9 GFLOPS</text>
<rect x="200" y="424" width="59.1" height="14" rx="3" fill="#ef4444"/>
<text x="264.1" y="435" font-size="10" font-family="Menlo,monospace" fill="#334155">138.9 GFLOPS</text>
<rect x="200" y="441" width="437.8" height="14" rx="3" fill="#10b981"/>
<text x="642.8" y="452" font-size="10" font-family="Menlo,monospace" fill="#334155">1028.6 GFLOPS</text>
<text x="12" y="508" font-size="11" font-family="Menlo,monospace" fill="#111827">256x256x256</text>
<rect x="200" y="470" width="13.0" height="14" rx="3" fill="#6366f1"/>
<text x="218.0" y="481" font-size="10" font-family="Menlo,monospace" fill="#334155">30.4 GFLOPS</text>
<rect x="200" y="487" width="107.0" height="14" rx="3" fill="#f59e0b"/>
<text x="312.0" y="498" font-size="10" font-family="Menlo,monospace" fill="#334155">251.5 GFLOPS</text>
<rect x="200" y="504" width="107.3" height="14" rx="3" fill="#ef4444"/>
<text x="312.3" y="515" font-size="10" font-family="Menlo,monospace" fill="#334155">252.2 GFLOPS</text>
<rect x="200" y="521" width="594.9" height="14" rx="3" fill="#10b981"/>
<text x="799.9" y="532" font-size="10" font-family="Menlo,monospace" fill="#334155">1397.5 GFLOPS</text>
<text x="12" y="588" font-size="11" font-family="Menlo,monospace" fill="#111827">512x512x512</text>
<rect x="200" y="550" width="14.1" height="14" rx="3" fill="#6366f1"/>
<text x="219.1" y="561" font-size="10" font-family="Menlo,monospace" fill="#334155">33.1 GFLOPS</text>
<rect x="200" y="567" width="147.7" height="14" rx="3" fill="#f59e0b"/>
<text x="352.7" y="578" font-size="10" font-family="Menlo,monospace" fill="#334155">347.1 GFLOPS</text>
<rect x="200" y="584" width="422.8" height="14" rx="3" fill="#ef4444"/>
<text x="627.8" y="595" font-size="10" font-family="Menlo,monospace" fill="#334155">993.3 GFLOPS</text>
<rect x="200" y="601" width="700.0" height="14" rx="3" fill="#10b981"/>
<text x="905.0" y="612" font-size="10" font-family="Menlo,monospace" fill="#334155">1644.5 GFLOPS</text>
</svg>