<svg xmlns="http://www.w3.org/2000/svg" viewBox="0 0 1000 420" width="100%" height="auto">
<rect width="1000" height="420" fill="#ffffff"/>
<text x="24" y="32" font-size="20" font-family="Menlo,monospace" fill="#0f172a">Square Matmul GFLOPS vs Matrix Size</text>
<text x="24" y="52" font-size="11" font-family="Menlo,monospace" fill="#64748b">Apple M1 (Virtual) · f32 · log scale · higher is better</text>
<rect x="80" y="54" width="10" height="10" rx="2" fill="#6366f1"/>
<text x="94" y="63" font-size="11" font-family="Menlo,monospace" fill="#334155">Scalar Rust</text>
<rect x="260" y="54" width="10" height="10" rx="2" fill="#f59e0b"/>
<text x="274" y="63" font-size="11" font-family="Menlo,monospace" fill="#334155">AMX (1 core)</text>
<rect x="440" y="54" width="10" height="10" rx="2" fill="#ef4444"/>
<text x="454" y="63" font-size="11" font-family="Menlo,monospace" fill="#334155">AMX (all cores)</text>
<rect x="620" y="54" width="10" height="10" rx="2" fill="#10b981"/>
<text x="634" y="63" font-size="11" font-family="Menlo,monospace" fill="#334155">Accelerate</text>
<line x1="80" y1="70" x2="80" y2="360" stroke="#cbd5e1"/>
<line x1="80" y1="360" x2="960" y2="360" stroke="#cbd5e1"/>
<line x1="80" y1="355.2" x2="960" y2="355.2" stroke="#f1f5f9"/>
<text x="74" y="359.2" font-size="9" font-family="Menlo,monospace" fill="#64748b" text-anchor="end">0.02</text>
<line x1="80" y1="327.4" x2="960" y2="327.4" stroke="#f1f5f9"/>
<text x="74" y="331.4" font-size="9" font-family="Menlo,monospace" fill="#64748b" text-anchor="end">0.05</text>
<line x1="80" y1="306.4" x2="960" y2="306.4" stroke="#f1f5f9"/>
<text x="74" y="310.4" font-size="9" font-family="Menlo,monospace" fill="#64748b" text-anchor="end">0.10</text>
<line x1="80" y1="285.5" x2="960" y2="285.5" stroke="#f1f5f9"/>
<text x="74" y="289.5" font-size="9" font-family="Menlo,monospace" fill="#64748b" text-anchor="end">0.20</text>
<line x1="80" y1="257.7" x2="960" y2="257.7" stroke="#f1f5f9"/>
<text x="74" y="261.7" font-size="9" font-family="Menlo,monospace" fill="#64748b" text-anchor="end">0.50</text>
<line x1="80" y1="236.8" x2="960" y2="236.8" stroke="#f1f5f9"/>
<text x="74" y="240.8" font-size="9" font-family="Menlo,monospace" fill="#64748b" text-anchor="end">1</text>
<line x1="80" y1="215.8" x2="960" y2="215.8" stroke="#f1f5f9"/>
<text x="74" y="219.8" font-size="9" font-family="Menlo,monospace" fill="#64748b" text-anchor="end">2</text>
<line x1="80" y1="188.1" x2="960" y2="188.1" stroke="#f1f5f9"/>
<text x="74" y="192.1" font-size="9" font-family="Menlo,monospace" fill="#64748b" text-anchor="end">5</text>
<line x1="80" y1="167.1" x2="960" y2="167.1" stroke="#f1f5f9"/>
<text x="74" y="171.1" font-size="9" font-family="Menlo,monospace" fill="#64748b" text-anchor="end">10</text>
<line x1="80" y1="146.1" x2="960" y2="146.1" stroke="#f1f5f9"/>
<text x="74" y="150.1" font-size="9" font-family="Menlo,monospace" fill="#64748b" text-anchor="end">20</text>
<line x1="80" y1="118.4" x2="960" y2="118.4" stroke="#f1f5f9"/>
<text x="74" y="122.4" font-size="9" font-family="Menlo,monospace" fill="#64748b" text-anchor="end">50</text>
<line x1="80" y1="97.4" x2="960" y2="97.4" stroke="#f1f5f9"/>
<text x="74" y="101.4" font-size="9" font-family="Menlo,monospace" fill="#64748b" text-anchor="end">100</text>
<line x1="80" y1="76.4" x2="960" y2="76.4" stroke="#f1f5f9"/>
<text x="74" y="80.4" font-size="9" font-family="Menlo,monospace" fill="#64748b" text-anchor="end">200</text>
<text x="80.0" y="378" font-size="9" font-family="Menlo,monospace" fill="#64748b" text-anchor="middle">1</text>
<text x="124.0" y="378" font-size="9" font-family="Menlo,monospace" fill="#64748b" text-anchor="middle">2</text>
<text x="168.0" y="378" font-size="9" font-family="Menlo,monospace" fill="#64748b" text-anchor="middle">4</text>
<text x="212.0" y="378" font-size="9" font-family="Menlo,monospace" fill="#64748b" text-anchor="middle">8</text>
<text x="256.0" y="378" font-size="9" font-family="Menlo,monospace" fill="#64748b" text-anchor="middle">15</text>
<text x="300.0" y="378" font-size="9" font-family="Menlo,monospace" fill="#64748b" text-anchor="middle">16</text>
<text x="344.0" y="378" font-size="9" font-family="Menlo,monospace" fill="#64748b" text-anchor="middle">17</text>
<text x="388.0" y="378" font-size="9" font-family="Menlo,monospace" fill="#64748b" text-anchor="middle">31</text>
<text x="432.0" y="378" font-size="9" font-family="Menlo,monospace" fill="#64748b" text-anchor="middle">32</text>
<text x="476.0" y="378" font-size="9" font-family="Menlo,monospace" fill="#64748b" text-anchor="middle">33</text>
<text x="520.0" y="378" font-size="9" font-family="Menlo,monospace" fill="#64748b" text-anchor="middle">63</text>
<text x="564.0" y="378" font-size="9" font-family="Menlo,monospace" fill="#64748b" text-anchor="middle">64</text>
<text x="608.0" y="378" font-size="9" font-family="Menlo,monospace" fill="#64748b" text-anchor="middle">65</text>
<text x="652.0" y="378" font-size="9" font-family="Menlo,monospace" fill="#64748b" text-anchor="middle">127</text>
<text x="696.0" y="378" font-size="9" font-family="Menlo,monospace" fill="#64748b" text-anchor="middle">128</text>
<text x="740.0" y="378" font-size="9" font-family="Menlo,monospace" fill="#64748b" text-anchor="middle">129</text>
<text x="784.0" y="378" font-size="9" font-family="Menlo,monospace" fill="#64748b" text-anchor="middle">255</text>
<text x="828.0" y="378" font-size="9" font-family="Menlo,monospace" fill="#64748b" text-anchor="middle">256</text>
<text x="872.0" y="378" font-size="9" font-family="Menlo,monospace" fill="#64748b" text-anchor="middle">257</text>
<text x="916.0" y="378" font-size="9" font-family="Menlo,monospace" fill="#64748b" text-anchor="middle">511</text>
<text x="960.0" y="378" font-size="9" font-family="Menlo,monospace" fill="#64748b" text-anchor="middle">512</text>
<polyline points="80.0,353.2 124.0,254.2 168.0,213.7 212.0,194.1 256.0,188.9 300.0,172.5 344.0,171.1 388.0,168.1 432.0,160.1 476.0,161.3 520.0,149.1 564.0,147.1 608.0,154.1 652.0,143.0 696.0,135.4 740.0,143.7 784.0,145.9 828.0,141.9 872.0,148.3 916.0,145.8 960.0,140.4" fill="none" stroke="#6366f1" stroke-width="2.5"/>
<circle cx="80.0" cy="353.2" r="3.5" fill="#6366f1"/>
<circle cx="124.0" cy="254.2" r="3.5" fill="#6366f1"/>
<circle cx="168.0" cy="213.7" r="3.5" fill="#6366f1"/>
<circle cx="212.0" cy="194.1" r="3.5" fill="#6366f1"/>
<circle cx="256.0" cy="188.9" r="3.5" fill="#6366f1"/>
<circle cx="300.0" cy="172.5" r="3.5" fill="#6366f1"/>
<circle cx="344.0" cy="171.1" r="3.5" fill="#6366f1"/>
<circle cx="388.0" cy="168.1" r="3.5" fill="#6366f1"/>
<circle cx="432.0" cy="160.1" r="3.5" fill="#6366f1"/>
<circle cx="476.0" cy="161.3" r="3.5" fill="#6366f1"/>
<circle cx="520.0" cy="149.1" r="3.5" fill="#6366f1"/>
<circle cx="564.0" cy="147.1" r="3.5" fill="#6366f1"/>
<circle cx="608.0" cy="154.1" r="3.5" fill="#6366f1"/>
<circle cx="652.0" cy="143.0" r="3.5" fill="#6366f1"/>
<circle cx="696.0" cy="135.4" r="3.5" fill="#6366f1"/>
<circle cx="740.0" cy="143.7" r="3.5" fill="#6366f1"/>
<circle cx="784.0" cy="145.9" r="3.5" fill="#6366f1"/>
<circle cx="828.0" cy="141.9" r="3.5" fill="#6366f1"/>
<circle cx="872.0" cy="148.3" r="3.5" fill="#6366f1"/>
<circle cx="916.0" cy="145.8" r="3.5" fill="#6366f1"/>
<circle cx="960.0" cy="140.4" r="3.5" fill="#6366f1"/>
<polyline points="80.0,353.2 124.0,254.2 168.0,213.7 212.0,194.1 256.0,188.9 300.0,172.5 344.0,171.1 388.0,168.1 432.0,160.1 476.0,161.3 520.0,149.1 564.0,147.1 608.0,154.1 652.0,143.0 696.0,135.4 740.0,143.7 784.0,145.9 828.0,141.9 872.0,148.3 916.0,145.8 960.0,140.4" fill="none" stroke="#f59e0b" stroke-width="2.5"/>
<circle cx="80.0" cy="353.2" r="3.5" fill="#f59e0b"/>
<circle cx="124.0" cy="254.2" r="3.5" fill="#f59e0b"/>
<circle cx="168.0" cy="213.7" r="3.5" fill="#f59e0b"/>
<circle cx="212.0" cy="194.1" r="3.5" fill="#f59e0b"/>
<circle cx="256.0" cy="188.9" r="3.5" fill="#f59e0b"/>
<circle cx="300.0" cy="172.5" r="3.5" fill="#f59e0b"/>
<circle cx="344.0" cy="171.1" r="3.5" fill="#f59e0b"/>
<circle cx="388.0" cy="168.1" r="3.5" fill="#f59e0b"/>
<circle cx="432.0" cy="160.1" r="3.5" fill="#f59e0b"/>
<circle cx="476.0" cy="161.3" r="3.5" fill="#f59e0b"/>
<circle cx="520.0" cy="149.1" r="3.5" fill="#f59e0b"/>
<circle cx="564.0" cy="147.1" r="3.5" fill="#f59e0b"/>
<circle cx="608.0" cy="154.1" r="3.5" fill="#f59e0b"/>
<circle cx="652.0" cy="143.0" r="3.5" fill="#f59e0b"/>
<circle cx="696.0" cy="135.4" r="3.5" fill="#f59e0b"/>
<circle cx="740.0" cy="143.7" r="3.5" fill="#f59e0b"/>
<circle cx="784.0" cy="145.9" r="3.5" fill="#f59e0b"/>
<circle cx="828.0" cy="141.9" r="3.5" fill="#f59e0b"/>
<circle cx="872.0" cy="148.3" r="3.5" fill="#f59e0b"/>
<circle cx="916.0" cy="145.8" r="3.5" fill="#f59e0b"/>
<circle cx="960.0" cy="140.4" r="3.5" fill="#f59e0b"/>
<polyline points="80.0,353.2 124.0,254.2 168.0,213.7 212.0,194.1 256.0,188.9 300.0,172.5 344.0,171.1 388.0,168.1 432.0,160.1 476.0,161.3 520.0,149.1 564.0,147.1 608.0,154.1 652.0,143.0 696.0,135.4 740.0,143.7 784.0,145.9 828.0,141.9 872.0,148.3 916.0,145.8 960.0,140.4" fill="none" stroke="#ef4444" stroke-width="2.5"/>
<circle cx="80.0" cy="353.2" r="3.5" fill="#ef4444"/>
<circle cx="124.0" cy="254.2" r="3.5" fill="#ef4444"/>
<circle cx="168.0" cy="213.7" r="3.5" fill="#ef4444"/>
<circle cx="212.0" cy="194.1" r="3.5" fill="#ef4444"/>
<circle cx="256.0" cy="188.9" r="3.5" fill="#ef4444"/>
<circle cx="300.0" cy="172.5" r="3.5" fill="#ef4444"/>
<circle cx="344.0" cy="171.1" r="3.5" fill="#ef4444"/>
<circle cx="388.0" cy="168.1" r="3.5" fill="#ef4444"/>
<circle cx="432.0" cy="160.1" r="3.5" fill="#ef4444"/>
<circle cx="476.0" cy="161.3" r="3.5" fill="#ef4444"/>
<circle cx="520.0" cy="149.1" r="3.5" fill="#ef4444"/>
<circle cx="564.0" cy="147.1" r="3.5" fill="#ef4444"/>
<circle cx="608.0" cy="154.1" r="3.5" fill="#ef4444"/>
<circle cx="652.0" cy="143.0" r="3.5" fill="#ef4444"/>
<circle cx="696.0" cy="135.4" r="3.5" fill="#ef4444"/>
<circle cx="740.0" cy="143.7" r="3.5" fill="#ef4444"/>
<circle cx="784.0" cy="145.9" r="3.5" fill="#ef4444"/>
<circle cx="828.0" cy="141.9" r="3.5" fill="#ef4444"/>
<circle cx="872.0" cy="148.3" r="3.5" fill="#ef4444"/>
<circle cx="916.0" cy="145.8" r="3.5" fill="#ef4444"/>
<circle cx="960.0" cy="140.4" r="3.5" fill="#ef4444"/>
<polyline points="80.0,333.3 124.0,272.6 168.0,206.0 212.0,163.8 256.0,176.1 300.0,149.2 344.0,157.4 388.0,158.8 432.0,113.9 476.0,120.5 520.0,133.5 564.0,119.4 608.0,125.3 652.0,105.1 696.0,105.3 740.0,108.3 784.0,102.4 828.0,93.2 872.0,91.4 916.0,83.7 960.0,75.5" fill="none" stroke="#10b981" stroke-width="2.5"/>
<circle cx="80.0" cy="333.3" r="3.5" fill="#10b981"/>
<circle cx="124.0" cy="272.6" r="3.5" fill="#10b981"/>
<circle cx="168.0" cy="206.0" r="3.5" fill="#10b981"/>
<circle cx="212.0" cy="163.8" r="3.5" fill="#10b981"/>
<circle cx="256.0" cy="176.1" r="3.5" fill="#10b981"/>
<circle cx="300.0" cy="149.2" r="3.5" fill="#10b981"/>
<circle cx="344.0" cy="157.4" r="3.5" fill="#10b981"/>
<circle cx="388.0" cy="158.8" r="3.5" fill="#10b981"/>
<circle cx="432.0" cy="113.9" r="3.5" fill="#10b981"/>
<circle cx="476.0" cy="120.5" r="3.5" fill="#10b981"/>
<circle cx="520.0" cy="133.5" r="3.5" fill="#10b981"/>
<circle cx="564.0" cy="119.4" r="3.5" fill="#10b981"/>
<circle cx="608.0" cy="125.3" r="3.5" fill="#10b981"/>
<circle cx="652.0" cy="105.1" r="3.5" fill="#10b981"/>
<circle cx="696.0" cy="105.3" r="3.5" fill="#10b981"/>
<circle cx="740.0" cy="108.3" r="3.5" fill="#10b981"/>
<circle cx="784.0" cy="102.4" r="3.5" fill="#10b981"/>
<circle cx="828.0" cy="93.2" r="3.5" fill="#10b981"/>
<circle cx="872.0" cy="91.4" r="3.5" fill="#10b981"/>
<circle cx="916.0" cy="83.7" r="3.5" fill="#10b981"/>
<circle cx="960.0" cy="75.5" r="3.5" fill="#10b981"/>
<text x="70" y="215" font-size="10" font-family="Menlo,monospace" fill="#475569" text-anchor="middle" transform="rotate(-90 30 215)">GFLOPS</text>
</svg>