<svg xmlns="http://www.w3.org/2000/svg" viewBox="0 0 1000 420" width="100%" height="auto">
<rect width="1000" height="420" fill="#ffffff"/>
<text x="24" y="32" font-size="20" font-family="Menlo,monospace" fill="#0f172a">Square Matmul Latency vs Matrix Size</text>
<text x="24" y="52" font-size="11" font-family="Menlo,monospace" fill="#64748b">Apple M1 (Virtual) · f32 · log scale · lower is better</text>
<rect x="80" y="54" width="10" height="10" rx="2" fill="#6366f1"/>
<text x="94" y="63" font-size="11" font-family="Menlo,monospace" fill="#334155">Scalar Rust</text>
<rect x="260" y="54" width="10" height="10" rx="2" fill="#f59e0b"/>
<text x="274" y="63" font-size="11" font-family="Menlo,monospace" fill="#334155">AMX (1 core)</text>
<rect x="440" y="54" width="10" height="10" rx="2" fill="#ef4444"/>
<text x="454" y="63" font-size="11" font-family="Menlo,monospace" fill="#334155">AMX (all cores)</text>
<rect x="620" y="54" width="10" height="10" rx="2" fill="#10b981"/>
<text x="634" y="63" font-size="11" font-family="Menlo,monospace" fill="#334155">Accelerate</text>
<line x1="80" y1="70" x2="80" y2="360" stroke="#cbd5e1"/>
<line x1="80" y1="360" x2="960" y2="360" stroke="#cbd5e1"/>
<line x1="80" y1="356.4" x2="960" y2="356.4" stroke="#f1f5f9"/>
<text x="74" y="360.4" font-size="9" font-family="Menlo,monospace" fill="#64748b" text-anchor="end">0.02</text>
<line x1="80" y1="337.5" x2="960" y2="337.5" stroke="#f1f5f9"/>
<text x="74" y="341.5" font-size="9" font-family="Menlo,monospace" fill="#64748b" text-anchor="end">0.05</text>
<line x1="80" y1="323.3" x2="960" y2="323.3" stroke="#f1f5f9"/>
<text x="74" y="327.3" font-size="9" font-family="Menlo,monospace" fill="#64748b" text-anchor="end">0.10</text>
<line x1="80" y1="309.0" x2="960" y2="309.0" stroke="#f1f5f9"/>
<text x="74" y="313.0" font-size="9" font-family="Menlo,monospace" fill="#64748b" text-anchor="end">0.20</text>
<line x1="80" y1="290.1" x2="960" y2="290.1" stroke="#f1f5f9"/>
<text x="74" y="294.1" font-size="9" font-family="Menlo,monospace" fill="#64748b" text-anchor="end">0.50</text>
<line x1="80" y1="275.8" x2="960" y2="275.8" stroke="#f1f5f9"/>
<text x="74" y="279.8" font-size="9" font-family="Menlo,monospace" fill="#64748b" text-anchor="end">1</text>
<line x1="80" y1="261.6" x2="960" y2="261.6" stroke="#f1f5f9"/>
<text x="74" y="265.6" font-size="9" font-family="Menlo,monospace" fill="#64748b" text-anchor="end">2</text>
<line x1="80" y1="242.7" x2="960" y2="242.7" stroke="#f1f5f9"/>
<text x="74" y="246.7" font-size="9" font-family="Menlo,monospace" fill="#64748b" text-anchor="end">5</text>
<line x1="80" y1="228.4" x2="960" y2="228.4" stroke="#f1f5f9"/>
<text x="74" y="232.4" font-size="9" font-family="Menlo,monospace" fill="#64748b" text-anchor="end">10</text>
<line x1="80" y1="214.1" x2="960" y2="214.1" stroke="#f1f5f9"/>
<text x="74" y="218.1" font-size="9" font-family="Menlo,monospace" fill="#64748b" text-anchor="end">20</text>
<line x1="80" y1="195.3" x2="960" y2="195.3" stroke="#f1f5f9"/>
<text x="74" y="199.3" font-size="9" font-family="Menlo,monospace" fill="#64748b" text-anchor="end">50</text>
<line x1="80" y1="181.0" x2="960" y2="181.0" stroke="#f1f5f9"/>
<text x="74" y="185.0" font-size="9" font-family="Menlo,monospace" fill="#64748b" text-anchor="end">100</text>
<line x1="80" y1="166.7" x2="960" y2="166.7" stroke="#f1f5f9"/>
<text x="74" y="170.7" font-size="9" font-family="Menlo,monospace" fill="#64748b" text-anchor="end">200</text>
<line x1="80" y1="147.8" x2="960" y2="147.8" stroke="#f1f5f9"/>
<text x="74" y="151.8" font-size="9" font-family="Menlo,monospace" fill="#64748b" text-anchor="end">500</text>
<line x1="80" y1="133.5" x2="960" y2="133.5" stroke="#f1f5f9"/>
<text x="74" y="137.5" font-size="9" font-family="Menlo,monospace" fill="#64748b" text-anchor="end">1000</text>
<line x1="80" y1="119.3" x2="960" y2="119.3" stroke="#f1f5f9"/>
<text x="74" y="123.3" font-size="9" font-family="Menlo,monospace" fill="#64748b" text-anchor="end">2000</text>
<line x1="80" y1="100.4" x2="960" y2="100.4" stroke="#f1f5f9"/>
<text x="74" y="104.4" font-size="9" font-family="Menlo,monospace" fill="#64748b" text-anchor="end">5000</text>
<line x1="80" y1="86.1" x2="960" y2="86.1" stroke="#f1f5f9"/>
<text x="74" y="90.1" font-size="9" font-family="Menlo,monospace" fill="#64748b" text-anchor="end">10000</text>
<line x1="80" y1="71.8" x2="960" y2="71.8" stroke="#f1f5f9"/>
<text x="74" y="75.8" font-size="9" font-family="Menlo,monospace" fill="#64748b" text-anchor="end">20000</text>
<text x="80.0" y="378" font-size="9" font-family="Menlo,monospace" fill="#64748b" text-anchor="middle">1</text>
<text x="124.0" y="378" font-size="9" font-family="Menlo,monospace" fill="#64748b" text-anchor="middle">2</text>
<text x="168.0" y="378" font-size="9" font-family="Menlo,monospace" fill="#64748b" text-anchor="middle">4</text>
<text x="212.0" y="378" font-size="9" font-family="Menlo,monospace" fill="#64748b" text-anchor="middle">8</text>
<text x="256.0" y="378" font-size="9" font-family="Menlo,monospace" fill="#64748b" text-anchor="middle">15</text>
<text x="300.0" y="378" font-size="9" font-family="Menlo,monospace" fill="#64748b" text-anchor="middle">16</text>
<text x="344.0" y="378" font-size="9" font-family="Menlo,monospace" fill="#64748b" text-anchor="middle">17</text>
<text x="388.0" y="378" font-size="9" font-family="Menlo,monospace" fill="#64748b" text-anchor="middle">31</text>
<text x="432.0" y="378" font-size="9" font-family="Menlo,monospace" fill="#64748b" text-anchor="middle">32</text>
<text x="476.0" y="378" font-size="9" font-family="Menlo,monospace" fill="#64748b" text-anchor="middle">33</text>
<text x="520.0" y="378" font-size="9" font-family="Menlo,monospace" fill="#64748b" text-anchor="middle">63</text>
<text x="564.0" y="378" font-size="9" font-family="Menlo,monospace" fill="#64748b" text-anchor="middle">64</text>
<text x="608.0" y="378" font-size="9" font-family="Menlo,monospace" fill="#64748b" text-anchor="middle">65</text>
<text x="652.0" y="378" font-size="9" font-family="Menlo,monospace" fill="#64748b" text-anchor="middle">127</text>
<text x="696.0" y="378" font-size="9" font-family="Menlo,monospace" fill="#64748b" text-anchor="middle">128</text>
<text x="740.0" y="378" font-size="9" font-family="Menlo,monospace" fill="#64748b" text-anchor="middle">129</text>
<text x="784.0" y="378" font-size="9" font-family="Menlo,monospace" fill="#64748b" text-anchor="middle">255</text>
<text x="828.0" y="378" font-size="9" font-family="Menlo,monospace" fill="#64748b" text-anchor="middle">256</text>
<text x="872.0" y="378" font-size="9" font-family="Menlo,monospace" fill="#64748b" text-anchor="middle">257</text>
<text x="916.0" y="378" font-size="9" font-family="Menlo,monospace" fill="#64748b" text-anchor="middle">511</text>
<text x="960.0" y="378" font-size="9" font-family="Menlo,monospace" fill="#64748b" text-anchor="middle">512</text>
<polyline points="80.0,355.4 124.0,349.6 168.0,333.8 212.0,304.8 256.0,269.7 300.0,276.6 344.0,273.7 388.0,238.4 432.0,243.3 476.0,239.0 520.0,204.4 564.0,207.8 608.0,203.5 652.0,169.1 696.0,173.8 740.0,167.6 784.0,124.2 828.0,109.1 872.0,121.1 916.0,73.8 960.0,81.3" fill="none" stroke="#6366f1" stroke-width="2.5"/>
<circle cx="80.0" cy="355.4" r="3.5" fill="#6366f1"/>
<circle cx="124.0" cy="349.6" r="3.5" fill="#6366f1"/>
<circle cx="168.0" cy="333.8" r="3.5" fill="#6366f1"/>
<circle cx="212.0" cy="304.8" r="3.5" fill="#6366f1"/>
<circle cx="256.0" cy="269.7" r="3.5" fill="#6366f1"/>
<circle cx="300.0" cy="276.6" r="3.5" fill="#6366f1"/>
<circle cx="344.0" cy="273.7" r="3.5" fill="#6366f1"/>
<circle cx="388.0" cy="238.4" r="3.5" fill="#6366f1"/>
<circle cx="432.0" cy="243.3" r="3.5" fill="#6366f1"/>
<circle cx="476.0" cy="239.0" r="3.5" fill="#6366f1"/>
<circle cx="520.0" cy="204.4" r="3.5" fill="#6366f1"/>
<circle cx="564.0" cy="207.8" r="3.5" fill="#6366f1"/>
<circle cx="608.0" cy="203.5" r="3.5" fill="#6366f1"/>
<circle cx="652.0" cy="169.1" r="3.5" fill="#6366f1"/>
<circle cx="696.0" cy="173.8" r="3.5" fill="#6366f1"/>
<circle cx="740.0" cy="167.6" r="3.5" fill="#6366f1"/>
<circle cx="784.0" cy="124.2" r="3.5" fill="#6366f1"/>
<circle cx="828.0" cy="109.1" r="3.5" fill="#6366f1"/>
<circle cx="872.0" cy="121.1" r="3.5" fill="#6366f1"/>
<circle cx="916.0" cy="73.8" r="3.5" fill="#6366f1"/>
<circle cx="960.0" cy="81.3" r="3.5" fill="#6366f1"/>
<polyline points="80.0,355.4 124.0,349.6 168.0,333.8 212.0,304.8 256.0,269.7 300.0,276.6 344.0,273.7 388.0,238.4 432.0,243.3 476.0,239.0 520.0,204.4 564.0,207.8 608.0,203.5 652.0,169.1 696.0,173.8 740.0,167.6 784.0,124.2 828.0,109.1 872.0,121.1 916.0,73.8 960.0,81.3" fill="none" stroke="#f59e0b" stroke-width="2.5"/>
<circle cx="80.0" cy="355.4" r="3.5" fill="#f59e0b"/>
<circle cx="124.0" cy="349.6" r="3.5" fill="#f59e0b"/>
<circle cx="168.0" cy="333.8" r="3.5" fill="#f59e0b"/>
<circle cx="212.0" cy="304.8" r="3.5" fill="#f59e0b"/>
<circle cx="256.0" cy="269.7" r="3.5" fill="#f59e0b"/>
<circle cx="300.0" cy="276.6" r="3.5" fill="#f59e0b"/>
<circle cx="344.0" cy="273.7" r="3.5" fill="#f59e0b"/>
<circle cx="388.0" cy="238.4" r="3.5" fill="#f59e0b"/>
<circle cx="432.0" cy="243.3" r="3.5" fill="#f59e0b"/>
<circle cx="476.0" cy="239.0" r="3.5" fill="#f59e0b"/>
<circle cx="520.0" cy="204.4" r="3.5" fill="#f59e0b"/>
<circle cx="564.0" cy="207.8" r="3.5" fill="#f59e0b"/>
<circle cx="608.0" cy="203.5" r="3.5" fill="#f59e0b"/>
<circle cx="652.0" cy="169.1" r="3.5" fill="#f59e0b"/>
<circle cx="696.0" cy="173.8" r="3.5" fill="#f59e0b"/>
<circle cx="740.0" cy="167.6" r="3.5" fill="#f59e0b"/>
<circle cx="784.0" cy="124.2" r="3.5" fill="#f59e0b"/>
<circle cx="828.0" cy="109.1" r="3.5" fill="#f59e0b"/>
<circle cx="872.0" cy="121.1" r="3.5" fill="#f59e0b"/>
<circle cx="916.0" cy="73.8" r="3.5" fill="#f59e0b"/>
<circle cx="960.0" cy="81.3" r="3.5" fill="#f59e0b"/>
<polyline points="80.0,355.4 124.0,349.6 168.0,333.8 212.0,304.8 256.0,269.7 300.0,276.6 344.0,273.7 388.0,238.4 432.0,243.3 476.0,239.0 520.0,204.4 564.0,207.8 608.0,203.5 652.0,169.1 696.0,173.8 740.0,167.6 784.0,124.2 828.0,109.1 872.0,121.1 916.0,73.8 960.0,81.3" fill="none" stroke="#ef4444" stroke-width="2.5"/>
<circle cx="80.0" cy="355.4" r="3.5" fill="#ef4444"/>
<circle cx="124.0" cy="349.6" r="3.5" fill="#ef4444"/>
<circle cx="168.0" cy="333.8" r="3.5" fill="#ef4444"/>
<circle cx="212.0" cy="304.8" r="3.5" fill="#ef4444"/>
<circle cx="256.0" cy="269.7" r="3.5" fill="#ef4444"/>
<circle cx="300.0" cy="276.6" r="3.5" fill="#ef4444"/>
<circle cx="344.0" cy="273.7" r="3.5" fill="#ef4444"/>
<circle cx="388.0" cy="238.4" r="3.5" fill="#ef4444"/>
<circle cx="432.0" cy="243.3" r="3.5" fill="#ef4444"/>
<circle cx="476.0" cy="239.0" r="3.5" fill="#ef4444"/>
<circle cx="520.0" cy="204.4" r="3.5" fill="#ef4444"/>
<circle cx="564.0" cy="207.8" r="3.5" fill="#ef4444"/>
<circle cx="608.0" cy="203.5" r="3.5" fill="#ef4444"/>
<circle cx="652.0" cy="169.1" r="3.5" fill="#ef4444"/>
<circle cx="696.0" cy="173.8" r="3.5" fill="#ef4444"/>
<circle cx="740.0" cy="167.6" r="3.5" fill="#ef4444"/>
<circle cx="784.0" cy="124.2" r="3.5" fill="#ef4444"/>
<circle cx="828.0" cy="109.1" r="3.5" fill="#ef4444"/>
<circle cx="872.0" cy="121.1" r="3.5" fill="#ef4444"/>
<circle cx="916.0" cy="73.8" r="3.5" fill="#ef4444"/>
<circle cx="960.0" cy="81.3" r="3.5" fill="#ef4444"/>
<polyline points="80.0,338.2 124.0,336.6 168.0,339.2 212.0,324.7 256.0,277.7 300.0,292.0 344.0,282.1 388.0,245.1 432.0,273.4 476.0,265.7 520.0,217.1 564.0,228.1 608.0,222.4 652.0,194.8 696.0,191.1 740.0,198.7 784.0,154.5 828.0,149.0 872.0,156.6 916.0,115.3 960.0,108.2" fill="none" stroke="#10b981" stroke-width="2.5"/>
<circle cx="80.0" cy="338.2" r="3.5" fill="#10b981"/>
<circle cx="124.0" cy="336.6" r="3.5" fill="#10b981"/>
<circle cx="168.0" cy="339.2" r="3.5" fill="#10b981"/>
<circle cx="212.0" cy="324.7" r="3.5" fill="#10b981"/>
<circle cx="256.0" cy="277.7" r="3.5" fill="#10b981"/>
<circle cx="300.0" cy="292.0" r="3.5" fill="#10b981"/>
<circle cx="344.0" cy="282.1" r="3.5" fill="#10b981"/>
<circle cx="388.0" cy="245.1" r="3.5" fill="#10b981"/>
<circle cx="432.0" cy="273.4" r="3.5" fill="#10b981"/>
<circle cx="476.0" cy="265.7" r="3.5" fill="#10b981"/>
<circle cx="520.0" cy="217.1" r="3.5" fill="#10b981"/>
<circle cx="564.0" cy="228.1" r="3.5" fill="#10b981"/>
<circle cx="608.0" cy="222.4" r="3.5" fill="#10b981"/>
<circle cx="652.0" cy="194.8" r="3.5" fill="#10b981"/>
<circle cx="696.0" cy="191.1" r="3.5" fill="#10b981"/>
<circle cx="740.0" cy="198.7" r="3.5" fill="#10b981"/>
<circle cx="784.0" cy="154.5" r="3.5" fill="#10b981"/>
<circle cx="828.0" cy="149.0" r="3.5" fill="#10b981"/>
<circle cx="872.0" cy="156.6" r="3.5" fill="#10b981"/>
<circle cx="916.0" cy="115.3" r="3.5" fill="#10b981"/>
<circle cx="960.0" cy="108.2" r="3.5" fill="#10b981"/>
<text x="70" y="215" font-size="10" font-family="Menlo,monospace" fill="#475569" text-anchor="middle" transform="rotate(-90 30 215)">µs</text>
</svg>