<svg xmlns="http://www.w3.org/2000/svg" viewBox="0 0 1000 420" width="100%" height="auto">
<rect width="1000" height="420" fill="#ffffff"/>
<text x="24" y="32" font-size="20" font-family="Menlo,monospace" fill="#0f172a">Square Matmul GFLOPS vs Matrix Size</text>
<text x="24" y="52" font-size="11" font-family="Menlo,monospace" fill="#64748b">Apple M1 (Virtual) · f32 · log scale · higher is better</text>
<rect x="80" y="54" width="10" height="10" rx="2" fill="#6366f1"/>
<text x="94" y="63" font-size="11" font-family="Menlo,monospace" fill="#334155">Scalar Rust</text>
<rect x="260" y="54" width="10" height="10" rx="2" fill="#f59e0b"/>
<text x="274" y="63" font-size="11" font-family="Menlo,monospace" fill="#334155">AMX (1 core)</text>
<rect x="440" y="54" width="10" height="10" rx="2" fill="#ef4444"/>
<text x="454" y="63" font-size="11" font-family="Menlo,monospace" fill="#334155">AMX (all cores)</text>
<rect x="620" y="54" width="10" height="10" rx="2" fill="#10b981"/>
<text x="634" y="63" font-size="11" font-family="Menlo,monospace" fill="#334155">Accelerate</text>
<line x1="80" y1="70" x2="80" y2="360" stroke="#cbd5e1"/>
<line x1="80" y1="360" x2="960" y2="360" stroke="#cbd5e1"/>
<line x1="80" y1="345.7" x2="960" y2="345.7" stroke="#f1f5f9"/>
<text x="74" y="349.7" font-size="9" font-family="Menlo,monospace" fill="#64748b" text-anchor="end">0.05</text>
<line x1="80" y1="321.4" x2="960" y2="321.4" stroke="#f1f5f9"/>
<text x="74" y="325.4" font-size="9" font-family="Menlo,monospace" fill="#64748b" text-anchor="end">0.10</text>
<line x1="80" y1="297.2" x2="960" y2="297.2" stroke="#f1f5f9"/>
<text x="74" y="301.2" font-size="9" font-family="Menlo,monospace" fill="#64748b" text-anchor="end">0.20</text>
<line x1="80" y1="265.1" x2="960" y2="265.1" stroke="#f1f5f9"/>
<text x="74" y="269.1" font-size="9" font-family="Menlo,monospace" fill="#64748b" text-anchor="end">0.50</text>
<line x1="80" y1="240.9" x2="960" y2="240.9" stroke="#f1f5f9"/>
<text x="74" y="244.9" font-size="9" font-family="Menlo,monospace" fill="#64748b" text-anchor="end">1</text>
<line x1="80" y1="216.6" x2="960" y2="216.6" stroke="#f1f5f9"/>
<text x="74" y="220.6" font-size="9" font-family="Menlo,monospace" fill="#64748b" text-anchor="end">2</text>
<line x1="80" y1="184.5" x2="960" y2="184.5" stroke="#f1f5f9"/>
<text x="74" y="188.5" font-size="9" font-family="Menlo,monospace" fill="#64748b" text-anchor="end">5</text>
<line x1="80" y1="160.3" x2="960" y2="160.3" stroke="#f1f5f9"/>
<text x="74" y="164.3" font-size="9" font-family="Menlo,monospace" fill="#64748b" text-anchor="end">10</text>
<line x1="80" y1="136.0" x2="960" y2="136.0" stroke="#f1f5f9"/>
<text x="74" y="140.0" font-size="9" font-family="Menlo,monospace" fill="#64748b" text-anchor="end">20</text>
<line x1="80" y1="104.0" x2="960" y2="104.0" stroke="#f1f5f9"/>
<text x="74" y="108.0" font-size="9" font-family="Menlo,monospace" fill="#64748b" text-anchor="end">50</text>
<line x1="80" y1="79.7" x2="960" y2="79.7" stroke="#f1f5f9"/>
<text x="74" y="83.7" font-size="9" font-family="Menlo,monospace" fill="#64748b" text-anchor="end">100</text>
<text x="80.0" y="378" font-size="9" font-family="Menlo,monospace" fill="#64748b" text-anchor="middle">1</text>
<text x="124.0" y="378" font-size="9" font-family="Menlo,monospace" fill="#64748b" text-anchor="middle">2</text>
<text x="168.0" y="378" font-size="9" font-family="Menlo,monospace" fill="#64748b" text-anchor="middle">4</text>
<text x="212.0" y="378" font-size="9" font-family="Menlo,monospace" fill="#64748b" text-anchor="middle">8</text>
<text x="256.0" y="378" font-size="9" font-family="Menlo,monospace" fill="#64748b" text-anchor="middle">15</text>
<text x="300.0" y="378" font-size="9" font-family="Menlo,monospace" fill="#64748b" text-anchor="middle">16</text>
<text x="344.0" y="378" font-size="9" font-family="Menlo,monospace" fill="#64748b" text-anchor="middle">17</text>
<text x="388.0" y="378" font-size="9" font-family="Menlo,monospace" fill="#64748b" text-anchor="middle">31</text>
<text x="432.0" y="378" font-size="9" font-family="Menlo,monospace" fill="#64748b" text-anchor="middle">32</text>
<text x="476.0" y="378" font-size="9" font-family="Menlo,monospace" fill="#64748b" text-anchor="middle">33</text>
<text x="520.0" y="378" font-size="9" font-family="Menlo,monospace" fill="#64748b" text-anchor="middle">63</text>
<text x="564.0" y="378" font-size="9" font-family="Menlo,monospace" fill="#64748b" text-anchor="middle">64</text>
<text x="608.0" y="378" font-size="9" font-family="Menlo,monospace" fill="#64748b" text-anchor="middle">65</text>
<text x="652.0" y="378" font-size="9" font-family="Menlo,monospace" fill="#64748b" text-anchor="middle">127</text>
<text x="696.0" y="378" font-size="9" font-family="Menlo,monospace" fill="#64748b" text-anchor="middle">128</text>
<text x="740.0" y="378" font-size="9" font-family="Menlo,monospace" fill="#64748b" text-anchor="middle">129</text>
<text x="784.0" y="378" font-size="9" font-family="Menlo,monospace" fill="#64748b" text-anchor="middle">255</text>
<text x="828.0" y="378" font-size="9" font-family="Menlo,monospace" fill="#64748b" text-anchor="middle">256</text>
<text x="872.0" y="378" font-size="9" font-family="Menlo,monospace" fill="#64748b" text-anchor="middle">257</text>
<text x="916.0" y="378" font-size="9" font-family="Menlo,monospace" fill="#64748b" text-anchor="middle">511</text>
<text x="960.0" y="378" font-size="9" font-family="Menlo,monospace" fill="#64748b" text-anchor="middle">512</text>
<polyline points="80.0,323.1 124.0,260.3 168.0,214.2 212.0,190.8 256.0,184.5 300.0,166.0 344.0,164.5 388.0,161.4 432.0,149.7 476.0,153.8 520.0,144.7 564.0,137.4 608.0,143.0 652.0,131.1 696.0,122.3 740.0,132.0 784.0,134.3 828.0,159.5 872.0,138.6 916.0,147.0 960.0,133.9" fill="none" stroke="#6366f1" stroke-width="2.5"/>
<circle cx="80.0" cy="323.1" r="3.5" fill="#6366f1"/>
<circle cx="124.0" cy="260.3" r="3.5" fill="#6366f1"/>
<circle cx="168.0" cy="214.2" r="3.5" fill="#6366f1"/>
<circle cx="212.0" cy="190.8" r="3.5" fill="#6366f1"/>
<circle cx="256.0" cy="184.5" r="3.5" fill="#6366f1"/>
<circle cx="300.0" cy="166.0" r="3.5" fill="#6366f1"/>
<circle cx="344.0" cy="164.5" r="3.5" fill="#6366f1"/>
<circle cx="388.0" cy="161.4" r="3.5" fill="#6366f1"/>
<circle cx="432.0" cy="149.7" r="3.5" fill="#6366f1"/>
<circle cx="476.0" cy="153.8" r="3.5" fill="#6366f1"/>
<circle cx="520.0" cy="144.7" r="3.5" fill="#6366f1"/>
<circle cx="564.0" cy="137.4" r="3.5" fill="#6366f1"/>
<circle cx="608.0" cy="143.0" r="3.5" fill="#6366f1"/>
<circle cx="652.0" cy="131.1" r="3.5" fill="#6366f1"/>
<circle cx="696.0" cy="122.3" r="3.5" fill="#6366f1"/>
<circle cx="740.0" cy="132.0" r="3.5" fill="#6366f1"/>
<circle cx="784.0" cy="134.3" r="3.5" fill="#6366f1"/>
<circle cx="828.0" cy="159.5" r="3.5" fill="#6366f1"/>
<circle cx="872.0" cy="138.6" r="3.5" fill="#6366f1"/>
<circle cx="916.0" cy="147.0" r="3.5" fill="#6366f1"/>
<circle cx="960.0" cy="133.9" r="3.5" fill="#6366f1"/>
<polyline points="80.0,323.1 124.0,260.3 168.0,214.2 212.0,190.8 256.0,184.5 300.0,166.0 344.0,164.5 388.0,161.4 432.0,149.7 476.0,153.8 520.0,144.7 564.0,137.4 608.0,143.0 652.0,131.1 696.0,122.3 740.0,132.0 784.0,134.3 828.0,159.5 872.0,138.6 916.0,147.0 960.0,133.9" fill="none" stroke="#f59e0b" stroke-width="2.5"/>
<circle cx="80.0" cy="323.1" r="3.5" fill="#f59e0b"/>
<circle cx="124.0" cy="260.3" r="3.5" fill="#f59e0b"/>
<circle cx="168.0" cy="214.2" r="3.5" fill="#f59e0b"/>
<circle cx="212.0" cy="190.8" r="3.5" fill="#f59e0b"/>
<circle cx="256.0" cy="184.5" r="3.5" fill="#f59e0b"/>
<circle cx="300.0" cy="166.0" r="3.5" fill="#f59e0b"/>
<circle cx="344.0" cy="164.5" r="3.5" fill="#f59e0b"/>
<circle cx="388.0" cy="161.4" r="3.5" fill="#f59e0b"/>
<circle cx="432.0" cy="149.7" r="3.5" fill="#f59e0b"/>
<circle cx="476.0" cy="153.8" r="3.5" fill="#f59e0b"/>
<circle cx="520.0" cy="144.7" r="3.5" fill="#f59e0b"/>
<circle cx="564.0" cy="137.4" r="3.5" fill="#f59e0b"/>
<circle cx="608.0" cy="143.0" r="3.5" fill="#f59e0b"/>
<circle cx="652.0" cy="131.1" r="3.5" fill="#f59e0b"/>
<circle cx="696.0" cy="122.3" r="3.5" fill="#f59e0b"/>
<circle cx="740.0" cy="132.0" r="3.5" fill="#f59e0b"/>
<circle cx="784.0" cy="134.3" r="3.5" fill="#f59e0b"/>
<circle cx="828.0" cy="159.5" r="3.5" fill="#f59e0b"/>
<circle cx="872.0" cy="138.6" r="3.5" fill="#f59e0b"/>
<circle cx="916.0" cy="147.0" r="3.5" fill="#f59e0b"/>
<circle cx="960.0" cy="133.9" r="3.5" fill="#f59e0b"/>
<polyline points="80.0,323.1 124.0,260.3 168.0,214.2 212.0,190.8 256.0,184.5 300.0,166.0 344.0,164.5 388.0,161.4 432.0,149.7 476.0,153.8 520.0,144.7 564.0,137.4 608.0,143.0 652.0,131.1 696.0,122.3 740.0,132.0 784.0,134.3 828.0,159.5 872.0,138.6 916.0,147.0 960.0,133.9" fill="none" stroke="#ef4444" stroke-width="2.5"/>
<circle cx="80.0" cy="323.1" r="3.5" fill="#ef4444"/>
<circle cx="124.0" cy="260.3" r="3.5" fill="#ef4444"/>
<circle cx="168.0" cy="214.2" r="3.5" fill="#ef4444"/>
<circle cx="212.0" cy="190.8" r="3.5" fill="#ef4444"/>
<circle cx="256.0" cy="184.5" r="3.5" fill="#ef4444"/>
<circle cx="300.0" cy="166.0" r="3.5" fill="#ef4444"/>
<circle cx="344.0" cy="164.5" r="3.5" fill="#ef4444"/>
<circle cx="388.0" cy="161.4" r="3.5" fill="#ef4444"/>
<circle cx="432.0" cy="149.7" r="3.5" fill="#ef4444"/>
<circle cx="476.0" cy="153.8" r="3.5" fill="#ef4444"/>
<circle cx="520.0" cy="144.7" r="3.5" fill="#ef4444"/>
<circle cx="564.0" cy="137.4" r="3.5" fill="#ef4444"/>
<circle cx="608.0" cy="143.0" r="3.5" fill="#ef4444"/>
<circle cx="652.0" cy="131.1" r="3.5" fill="#ef4444"/>
<circle cx="696.0" cy="122.3" r="3.5" fill="#ef4444"/>
<circle cx="740.0" cy="132.0" r="3.5" fill="#ef4444"/>
<circle cx="784.0" cy="134.3" r="3.5" fill="#ef4444"/>
<circle cx="828.0" cy="159.5" r="3.5" fill="#ef4444"/>
<circle cx="872.0" cy="138.6" r="3.5" fill="#ef4444"/>
<circle cx="916.0" cy="147.0" r="3.5" fill="#ef4444"/>
<circle cx="960.0" cy="133.9" r="3.5" fill="#ef4444"/>
<polyline points="80.0,352.2 124.0,282.2 168.0,205.2 212.0,157.1 256.0,170.9 300.0,139.7 344.0,150.2 388.0,150.1 432.0,98.7 476.0,108.5 520.0,123.2 564.0,102.9 608.0,110.9 652.0,87.5 696.0,93.0 740.0,79.2 784.0,82.7 828.0,91.7 872.0,78.4 916.0,76.4 960.0,88.2" fill="none" stroke="#10b981" stroke-width="2.5"/>
<circle cx="80.0" cy="352.2" r="3.5" fill="#10b981"/>
<circle cx="124.0" cy="282.2" r="3.5" fill="#10b981"/>
<circle cx="168.0" cy="205.2" r="3.5" fill="#10b981"/>
<circle cx="212.0" cy="157.1" r="3.5" fill="#10b981"/>
<circle cx="256.0" cy="170.9" r="3.5" fill="#10b981"/>
<circle cx="300.0" cy="139.7" r="3.5" fill="#10b981"/>
<circle cx="344.0" cy="150.2" r="3.5" fill="#10b981"/>
<circle cx="388.0" cy="150.1" r="3.5" fill="#10b981"/>
<circle cx="432.0" cy="98.7" r="3.5" fill="#10b981"/>
<circle cx="476.0" cy="108.5" r="3.5" fill="#10b981"/>
<circle cx="520.0" cy="123.2" r="3.5" fill="#10b981"/>
<circle cx="564.0" cy="102.9" r="3.5" fill="#10b981"/>
<circle cx="608.0" cy="110.9" r="3.5" fill="#10b981"/>
<circle cx="652.0" cy="87.5" r="3.5" fill="#10b981"/>
<circle cx="696.0" cy="93.0" r="3.5" fill="#10b981"/>
<circle cx="740.0" cy="79.2" r="3.5" fill="#10b981"/>
<circle cx="784.0" cy="82.7" r="3.5" fill="#10b981"/>
<circle cx="828.0" cy="91.7" r="3.5" fill="#10b981"/>
<circle cx="872.0" cy="78.4" r="3.5" fill="#10b981"/>
<circle cx="916.0" cy="76.4" r="3.5" fill="#10b981"/>
<circle cx="960.0" cy="88.2" r="3.5" fill="#10b981"/>
<text x="70" y="215" font-size="10" font-family="Menlo,monospace" fill="#475569" text-anchor="middle" transform="rotate(-90 30 215)">GFLOPS</text>
</svg>