<svg xmlns="http://www.w3.org/2000/svg" viewBox="0 0 1000 420" width="100%" height="auto">
<rect width="1000" height="420" fill="#ffffff"/>
<text x="24" y="32" font-size="20" font-family="Menlo,monospace" fill="#0f172a">Square Matmul GFLOPS vs Matrix Size</text>
<text x="24" y="52" font-size="11" font-family="Menlo,monospace" fill="#64748b">Apple M1 (Virtual) · f32 · log scale · higher is better</text>
<rect x="80" y="54" width="10" height="10" rx="2" fill="#6366f1"/>
<text x="94" y="63" font-size="11" font-family="Menlo,monospace" fill="#334155">Scalar Rust</text>
<rect x="260" y="54" width="10" height="10" rx="2" fill="#f59e0b"/>
<text x="274" y="63" font-size="11" font-family="Menlo,monospace" fill="#334155">AMX (1 core)</text>
<rect x="440" y="54" width="10" height="10" rx="2" fill="#ef4444"/>
<text x="454" y="63" font-size="11" font-family="Menlo,monospace" fill="#334155">AMX (all cores)</text>
<rect x="620" y="54" width="10" height="10" rx="2" fill="#10b981"/>
<text x="634" y="63" font-size="11" font-family="Menlo,monospace" fill="#334155">Accelerate</text>
<line x1="80" y1="70" x2="80" y2="360" stroke="#cbd5e1"/>
<line x1="80" y1="360" x2="960" y2="360" stroke="#cbd5e1"/>
<line x1="80" y1="346.5" x2="960" y2="346.5" stroke="#f1f5f9"/>
<text x="74" y="350.5" font-size="9" font-family="Menlo,monospace" fill="#64748b" text-anchor="end">0.05</text>
<line x1="80" y1="323.7" x2="960" y2="323.7" stroke="#f1f5f9"/>
<text x="74" y="327.7" font-size="9" font-family="Menlo,monospace" fill="#64748b" text-anchor="end">0.10</text>
<line x1="80" y1="300.9" x2="960" y2="300.9" stroke="#f1f5f9"/>
<text x="74" y="304.9" font-size="9" font-family="Menlo,monospace" fill="#64748b" text-anchor="end">0.20</text>
<line x1="80" y1="270.8" x2="960" y2="270.8" stroke="#f1f5f9"/>
<text x="74" y="274.8" font-size="9" font-family="Menlo,monospace" fill="#64748b" text-anchor="end">0.50</text>
<line x1="80" y1="248.1" x2="960" y2="248.1" stroke="#f1f5f9"/>
<text x="74" y="252.1" font-size="9" font-family="Menlo,monospace" fill="#64748b" text-anchor="end">1</text>
<line x1="80" y1="225.3" x2="960" y2="225.3" stroke="#f1f5f9"/>
<text x="74" y="229.3" font-size="9" font-family="Menlo,monospace" fill="#64748b" text-anchor="end">2</text>
<line x1="80" y1="195.2" x2="960" y2="195.2" stroke="#f1f5f9"/>
<text x="74" y="199.2" font-size="9" font-family="Menlo,monospace" fill="#64748b" text-anchor="end">5</text>
<line x1="80" y1="172.5" x2="960" y2="172.5" stroke="#f1f5f9"/>
<text x="74" y="176.5" font-size="9" font-family="Menlo,monospace" fill="#64748b" text-anchor="end">10</text>
<line x1="80" y1="149.7" x2="960" y2="149.7" stroke="#f1f5f9"/>
<text x="74" y="153.7" font-size="9" font-family="Menlo,monospace" fill="#64748b" text-anchor="end">20</text>
<line x1="80" y1="119.6" x2="960" y2="119.6" stroke="#f1f5f9"/>
<text x="74" y="123.6" font-size="9" font-family="Menlo,monospace" fill="#64748b" text-anchor="end">50</text>
<line x1="80" y1="96.8" x2="960" y2="96.8" stroke="#f1f5f9"/>
<text x="74" y="100.8" font-size="9" font-family="Menlo,monospace" fill="#64748b" text-anchor="end">100</text>
<line x1="80" y1="74.1" x2="960" y2="74.1" stroke="#f1f5f9"/>
<text x="74" y="78.1" font-size="9" font-family="Menlo,monospace" fill="#64748b" text-anchor="end">200</text>
<text x="80.0" y="378" font-size="9" font-family="Menlo,monospace" fill="#64748b" text-anchor="middle">1</text>
<text x="124.0" y="378" font-size="9" font-family="Menlo,monospace" fill="#64748b" text-anchor="middle">2</text>
<text x="168.0" y="378" font-size="9" font-family="Menlo,monospace" fill="#64748b" text-anchor="middle">4</text>
<text x="212.0" y="378" font-size="9" font-family="Menlo,monospace" fill="#64748b" text-anchor="middle">8</text>
<text x="256.0" y="378" font-size="9" font-family="Menlo,monospace" fill="#64748b" text-anchor="middle">15</text>
<text x="300.0" y="378" font-size="9" font-family="Menlo,monospace" fill="#64748b" text-anchor="middle">16</text>
<text x="344.0" y="378" font-size="9" font-family="Menlo,monospace" fill="#64748b" text-anchor="middle">17</text>
<text x="388.0" y="378" font-size="9" font-family="Menlo,monospace" fill="#64748b" text-anchor="middle">31</text>
<text x="432.0" y="378" font-size="9" font-family="Menlo,monospace" fill="#64748b" text-anchor="middle">32</text>
<text x="476.0" y="378" font-size="9" font-family="Menlo,monospace" fill="#64748b" text-anchor="middle">33</text>
<text x="520.0" y="378" font-size="9" font-family="Menlo,monospace" fill="#64748b" text-anchor="middle">63</text>
<text x="564.0" y="378" font-size="9" font-family="Menlo,monospace" fill="#64748b" text-anchor="middle">64</text>
<text x="608.0" y="378" font-size="9" font-family="Menlo,monospace" fill="#64748b" text-anchor="middle">65</text>
<text x="652.0" y="378" font-size="9" font-family="Menlo,monospace" fill="#64748b" text-anchor="middle">127</text>
<text x="696.0" y="378" font-size="9" font-family="Menlo,monospace" fill="#64748b" text-anchor="middle">128</text>
<text x="740.0" y="378" font-size="9" font-family="Menlo,monospace" fill="#64748b" text-anchor="middle">129</text>
<text x="784.0" y="378" font-size="9" font-family="Menlo,monospace" fill="#64748b" text-anchor="middle">255</text>
<text x="828.0" y="378" font-size="9" font-family="Menlo,monospace" fill="#64748b" text-anchor="middle">256</text>
<text x="872.0" y="378" font-size="9" font-family="Menlo,monospace" fill="#64748b" text-anchor="middle">257</text>
<text x="916.0" y="378" font-size="9" font-family="Menlo,monospace" fill="#64748b" text-anchor="middle">511</text>
<text x="960.0" y="378" font-size="9" font-family="Menlo,monospace" fill="#64748b" text-anchor="middle">512</text>
<polyline points="80.0,325.8 124.0,270.6 168.0,247.6 212.0,222.7 256.0,214.8 300.0,214.0 344.0,177.2 388.0,195.2 432.0,194.7 476.0,164.6 520.0,176.1 564.0,177.6 608.0,151.8 652.0,159.2 696.0,160.1 740.0,146.9 784.0,150.8 828.0,150.3 872.0,151.9 916.0,149.2 960.0,146.6" fill="none" stroke="#6366f1" stroke-width="2.5"/>
<circle cx="80.0" cy="325.8" r="3.5" fill="#6366f1"/>
<circle cx="124.0" cy="270.6" r="3.5" fill="#6366f1"/>
<circle cx="168.0" cy="247.6" r="3.5" fill="#6366f1"/>
<circle cx="212.0" cy="222.7" r="3.5" fill="#6366f1"/>
<circle cx="256.0" cy="214.8" r="3.5" fill="#6366f1"/>
<circle cx="300.0" cy="214.0" r="3.5" fill="#6366f1"/>
<circle cx="344.0" cy="177.2" r="3.5" fill="#6366f1"/>
<circle cx="388.0" cy="195.2" r="3.5" fill="#6366f1"/>
<circle cx="432.0" cy="194.7" r="3.5" fill="#6366f1"/>
<circle cx="476.0" cy="164.6" r="3.5" fill="#6366f1"/>
<circle cx="520.0" cy="176.1" r="3.5" fill="#6366f1"/>
<circle cx="564.0" cy="177.6" r="3.5" fill="#6366f1"/>
<circle cx="608.0" cy="151.8" r="3.5" fill="#6366f1"/>
<circle cx="652.0" cy="159.2" r="3.5" fill="#6366f1"/>
<circle cx="696.0" cy="160.1" r="3.5" fill="#6366f1"/>
<circle cx="740.0" cy="146.9" r="3.5" fill="#6366f1"/>
<circle cx="784.0" cy="150.8" r="3.5" fill="#6366f1"/>
<circle cx="828.0" cy="150.3" r="3.5" fill="#6366f1"/>
<circle cx="872.0" cy="151.9" r="3.5" fill="#6366f1"/>
<circle cx="916.0" cy="149.2" r="3.5" fill="#6366f1"/>
<circle cx="960.0" cy="146.6" r="3.5" fill="#6366f1"/>
<polyline points="80.0,325.8 124.0,270.6 168.0,247.6 212.0,222.7 256.0,214.8 300.0,214.0 344.0,177.2 388.0,195.2 432.0,194.7 476.0,164.6 520.0,176.1 564.0,177.6 608.0,151.8 652.0,159.2 696.0,160.1 740.0,146.9 784.0,150.8 828.0,150.3 872.0,151.9 916.0,149.2 960.0,146.6" fill="none" stroke="#f59e0b" stroke-width="2.5"/>
<circle cx="80.0" cy="325.8" r="3.5" fill="#f59e0b"/>
<circle cx="124.0" cy="270.6" r="3.5" fill="#f59e0b"/>
<circle cx="168.0" cy="247.6" r="3.5" fill="#f59e0b"/>
<circle cx="212.0" cy="222.7" r="3.5" fill="#f59e0b"/>
<circle cx="256.0" cy="214.8" r="3.5" fill="#f59e0b"/>
<circle cx="300.0" cy="214.0" r="3.5" fill="#f59e0b"/>
<circle cx="344.0" cy="177.2" r="3.5" fill="#f59e0b"/>
<circle cx="388.0" cy="195.2" r="3.5" fill="#f59e0b"/>
<circle cx="432.0" cy="194.7" r="3.5" fill="#f59e0b"/>
<circle cx="476.0" cy="164.6" r="3.5" fill="#f59e0b"/>
<circle cx="520.0" cy="176.1" r="3.5" fill="#f59e0b"/>
<circle cx="564.0" cy="177.6" r="3.5" fill="#f59e0b"/>
<circle cx="608.0" cy="151.8" r="3.5" fill="#f59e0b"/>
<circle cx="652.0" cy="159.2" r="3.5" fill="#f59e0b"/>
<circle cx="696.0" cy="160.1" r="3.5" fill="#f59e0b"/>
<circle cx="740.0" cy="146.9" r="3.5" fill="#f59e0b"/>
<circle cx="784.0" cy="150.8" r="3.5" fill="#f59e0b"/>
<circle cx="828.0" cy="150.3" r="3.5" fill="#f59e0b"/>
<circle cx="872.0" cy="151.9" r="3.5" fill="#f59e0b"/>
<circle cx="916.0" cy="149.2" r="3.5" fill="#f59e0b"/>
<circle cx="960.0" cy="146.6" r="3.5" fill="#f59e0b"/>
<polyline points="80.0,325.8 124.0,270.6 168.0,247.6 212.0,222.7 256.0,214.8 300.0,214.0 344.0,177.2 388.0,195.2 432.0,194.7 476.0,164.6 520.0,176.1 564.0,177.6 608.0,151.8 652.0,159.2 696.0,160.1 740.0,146.9 784.0,150.8 828.0,150.3 872.0,151.9 916.0,149.2 960.0,146.6" fill="none" stroke="#ef4444" stroke-width="2.5"/>
<circle cx="80.0" cy="325.8" r="3.5" fill="#ef4444"/>
<circle cx="124.0" cy="270.6" r="3.5" fill="#ef4444"/>
<circle cx="168.0" cy="247.6" r="3.5" fill="#ef4444"/>
<circle cx="212.0" cy="222.7" r="3.5" fill="#ef4444"/>
<circle cx="256.0" cy="214.8" r="3.5" fill="#ef4444"/>
<circle cx="300.0" cy="214.0" r="3.5" fill="#ef4444"/>
<circle cx="344.0" cy="177.2" r="3.5" fill="#ef4444"/>
<circle cx="388.0" cy="195.2" r="3.5" fill="#ef4444"/>
<circle cx="432.0" cy="194.7" r="3.5" fill="#ef4444"/>
<circle cx="476.0" cy="164.6" r="3.5" fill="#ef4444"/>
<circle cx="520.0" cy="176.1" r="3.5" fill="#ef4444"/>
<circle cx="564.0" cy="177.6" r="3.5" fill="#ef4444"/>
<circle cx="608.0" cy="151.8" r="3.5" fill="#ef4444"/>
<circle cx="652.0" cy="159.2" r="3.5" fill="#ef4444"/>
<circle cx="696.0" cy="160.1" r="3.5" fill="#ef4444"/>
<circle cx="740.0" cy="146.9" r="3.5" fill="#ef4444"/>
<circle cx="784.0" cy="150.8" r="3.5" fill="#ef4444"/>
<circle cx="828.0" cy="150.3" r="3.5" fill="#ef4444"/>
<circle cx="872.0" cy="151.9" r="3.5" fill="#ef4444"/>
<circle cx="916.0" cy="149.2" r="3.5" fill="#ef4444"/>
<circle cx="960.0" cy="146.6" r="3.5" fill="#ef4444"/>
<polyline points="80.0,352.7 124.0,286.6 168.0,214.8 212.0,169.4 256.0,182.1 300.0,153.0 344.0,161.5 388.0,160.6 432.0,114.8 476.0,121.6 520.0,135.2 564.0,119.0 608.0,126.2 652.0,112.5 696.0,93.7 740.0,96.6 784.0,86.1 828.0,76.0 872.0,94.8 916.0,87.6 960.0,78.6" fill="none" stroke="#10b981" stroke-width="2.5"/>
<circle cx="80.0" cy="352.7" r="3.5" fill="#10b981"/>
<circle cx="124.0" cy="286.6" r="3.5" fill="#10b981"/>
<circle cx="168.0" cy="214.8" r="3.5" fill="#10b981"/>
<circle cx="212.0" cy="169.4" r="3.5" fill="#10b981"/>
<circle cx="256.0" cy="182.1" r="3.5" fill="#10b981"/>
<circle cx="300.0" cy="153.0" r="3.5" fill="#10b981"/>
<circle cx="344.0" cy="161.5" r="3.5" fill="#10b981"/>
<circle cx="388.0" cy="160.6" r="3.5" fill="#10b981"/>
<circle cx="432.0" cy="114.8" r="3.5" fill="#10b981"/>
<circle cx="476.0" cy="121.6" r="3.5" fill="#10b981"/>
<circle cx="520.0" cy="135.2" r="3.5" fill="#10b981"/>
<circle cx="564.0" cy="119.0" r="3.5" fill="#10b981"/>
<circle cx="608.0" cy="126.2" r="3.5" fill="#10b981"/>
<circle cx="652.0" cy="112.5" r="3.5" fill="#10b981"/>
<circle cx="696.0" cy="93.7" r="3.5" fill="#10b981"/>
<circle cx="740.0" cy="96.6" r="3.5" fill="#10b981"/>
<circle cx="784.0" cy="86.1" r="3.5" fill="#10b981"/>
<circle cx="828.0" cy="76.0" r="3.5" fill="#10b981"/>
<circle cx="872.0" cy="94.8" r="3.5" fill="#10b981"/>
<circle cx="916.0" cy="87.6" r="3.5" fill="#10b981"/>
<circle cx="960.0" cy="78.6" r="3.5" fill="#10b981"/>
<text x="70" y="215" font-size="10" font-family="Menlo,monospace" fill="#475569" text-anchor="middle" transform="rotate(-90 30 215)">GFLOPS</text>
</svg>