<svg xmlns="http://www.w3.org/2000/svg" viewBox="0 0 1000 420" width="100%" height="auto">
<rect width="1000" height="420" fill="#ffffff"/>
<text x="24" y="32" font-size="20" font-family="Menlo,monospace" fill="#0f172a">Square Matmul Latency vs Matrix Size</text>
<text x="24" y="52" font-size="11" font-family="Menlo,monospace" fill="#64748b">Apple M1 (Virtual) · f32 · log scale · lower is better</text>
<rect x="80" y="54" width="10" height="10" rx="2" fill="#6366f1"/>
<text x="94" y="63" font-size="11" font-family="Menlo,monospace" fill="#334155">Scalar Rust</text>
<rect x="260" y="54" width="10" height="10" rx="2" fill="#f59e0b"/>
<text x="274" y="63" font-size="11" font-family="Menlo,monospace" fill="#334155">AMX (1 core)</text>
<rect x="440" y="54" width="10" height="10" rx="2" fill="#ef4444"/>
<text x="454" y="63" font-size="11" font-family="Menlo,monospace" fill="#334155">AMX (all cores)</text>
<rect x="620" y="54" width="10" height="10" rx="2" fill="#10b981"/>
<text x="634" y="63" font-size="11" font-family="Menlo,monospace" fill="#334155">Accelerate</text>
<line x1="80" y1="70" x2="80" y2="360" stroke="#cbd5e1"/>
<line x1="80" y1="360" x2="960" y2="360" stroke="#cbd5e1"/>
<line x1="80" y1="343.1" x2="960" y2="343.1" stroke="#f1f5f9"/>
<text x="74" y="347.1" font-size="9" font-family="Menlo,monospace" fill="#64748b" text-anchor="end">0.05</text>
<line x1="80" y1="328.1" x2="960" y2="328.1" stroke="#f1f5f9"/>
<text x="74" y="332.1" font-size="9" font-family="Menlo,monospace" fill="#64748b" text-anchor="end">0.10</text>
<line x1="80" y1="313.2" x2="960" y2="313.2" stroke="#f1f5f9"/>
<text x="74" y="317.2" font-size="9" font-family="Menlo,monospace" fill="#64748b" text-anchor="end">0.20</text>
<line x1="80" y1="293.4" x2="960" y2="293.4" stroke="#f1f5f9"/>
<text x="74" y="297.4" font-size="9" font-family="Menlo,monospace" fill="#64748b" text-anchor="end">0.50</text>
<line x1="80" y1="278.5" x2="960" y2="278.5" stroke="#f1f5f9"/>
<text x="74" y="282.5" font-size="9" font-family="Menlo,monospace" fill="#64748b" text-anchor="end">1</text>
<line x1="80" y1="263.6" x2="960" y2="263.6" stroke="#f1f5f9"/>
<text x="74" y="267.6" font-size="9" font-family="Menlo,monospace" fill="#64748b" text-anchor="end">2</text>
<line x1="80" y1="243.8" x2="960" y2="243.8" stroke="#f1f5f9"/>
<text x="74" y="247.8" font-size="9" font-family="Menlo,monospace" fill="#64748b" text-anchor="end">5</text>
<line x1="80" y1="228.9" x2="960" y2="228.9" stroke="#f1f5f9"/>
<text x="74" y="232.9" font-size="9" font-family="Menlo,monospace" fill="#64748b" text-anchor="end">10</text>
<line x1="80" y1="213.9" x2="960" y2="213.9" stroke="#f1f5f9"/>
<text x="74" y="217.9" font-size="9" font-family="Menlo,monospace" fill="#64748b" text-anchor="end">20</text>
<line x1="80" y1="194.2" x2="960" y2="194.2" stroke="#f1f5f9"/>
<text x="74" y="198.2" font-size="9" font-family="Menlo,monospace" fill="#64748b" text-anchor="end">50</text>
<line x1="80" y1="179.2" x2="960" y2="179.2" stroke="#f1f5f9"/>
<text x="74" y="183.2" font-size="9" font-family="Menlo,monospace" fill="#64748b" text-anchor="end">100</text>
<line x1="80" y1="164.3" x2="960" y2="164.3" stroke="#f1f5f9"/>
<text x="74" y="168.3" font-size="9" font-family="Menlo,monospace" fill="#64748b" text-anchor="end">200</text>
<line x1="80" y1="144.5" x2="960" y2="144.5" stroke="#f1f5f9"/>
<text x="74" y="148.5" font-size="9" font-family="Menlo,monospace" fill="#64748b" text-anchor="end">500</text>
<line x1="80" y1="129.6" x2="960" y2="129.6" stroke="#f1f5f9"/>
<text x="74" y="133.6" font-size="9" font-family="Menlo,monospace" fill="#64748b" text-anchor="end">1000</text>
<line x1="80" y1="114.6" x2="960" y2="114.6" stroke="#f1f5f9"/>
<text x="74" y="118.6" font-size="9" font-family="Menlo,monospace" fill="#64748b" text-anchor="end">2000</text>
<line x1="80" y1="94.9" x2="960" y2="94.9" stroke="#f1f5f9"/>
<text x="74" y="98.9" font-size="9" font-family="Menlo,monospace" fill="#64748b" text-anchor="end">5000</text>
<line x1="80" y1="79.9" x2="960" y2="79.9" stroke="#f1f5f9"/>
<text x="74" y="83.9" font-size="9" font-family="Menlo,monospace" fill="#64748b" text-anchor="end">10000</text>
<text x="80.0" y="378" font-size="9" font-family="Menlo,monospace" fill="#64748b" text-anchor="middle">1</text>
<text x="124.0" y="378" font-size="9" font-family="Menlo,monospace" fill="#64748b" text-anchor="middle">2</text>
<text x="168.0" y="378" font-size="9" font-family="Menlo,monospace" fill="#64748b" text-anchor="middle">4</text>
<text x="212.0" y="378" font-size="9" font-family="Menlo,monospace" fill="#64748b" text-anchor="middle">8</text>
<text x="256.0" y="378" font-size="9" font-family="Menlo,monospace" fill="#64748b" text-anchor="middle">15</text>
<text x="300.0" y="378" font-size="9" font-family="Menlo,monospace" fill="#64748b" text-anchor="middle">16</text>
<text x="344.0" y="378" font-size="9" font-family="Menlo,monospace" fill="#64748b" text-anchor="middle">17</text>
<text x="388.0" y="378" font-size="9" font-family="Menlo,monospace" fill="#64748b" text-anchor="middle">31</text>
<text x="432.0" y="378" font-size="9" font-family="Menlo,monospace" fill="#64748b" text-anchor="middle">32</text>
<text x="476.0" y="378" font-size="9" font-family="Menlo,monospace" fill="#64748b" text-anchor="middle">33</text>
<text x="520.0" y="378" font-size="9" font-family="Menlo,monospace" fill="#64748b" text-anchor="middle">63</text>
<text x="564.0" y="378" font-size="9" font-family="Menlo,monospace" fill="#64748b" text-anchor="middle">64</text>
<text x="608.0" y="378" font-size="9" font-family="Menlo,monospace" fill="#64748b" text-anchor="middle">65</text>
<text x="652.0" y="378" font-size="9" font-family="Menlo,monospace" fill="#64748b" text-anchor="middle">127</text>
<text x="696.0" y="378" font-size="9" font-family="Menlo,monospace" fill="#64748b" text-anchor="middle">128</text>
<text x="740.0" y="378" font-size="9" font-family="Menlo,monospace" fill="#64748b" text-anchor="middle">129</text>
<text x="784.0" y="378" font-size="9" font-family="Menlo,monospace" fill="#64748b" text-anchor="middle">255</text>
<text x="828.0" y="378" font-size="9" font-family="Menlo,monospace" fill="#64748b" text-anchor="middle">256</text>
<text x="872.0" y="378" font-size="9" font-family="Menlo,monospace" fill="#64748b" text-anchor="middle">257</text>
<text x="916.0" y="378" font-size="9" font-family="Menlo,monospace" fill="#64748b" text-anchor="middle">511</text>
<text x="960.0" y="378" font-size="9" font-family="Menlo,monospace" fill="#64748b" text-anchor="middle">512</text>
<polyline points="80.0,329.5 124.0,355.2 168.0,339.2 212.0,308.4 256.0,271.4 300.0,278.9 344.0,276.0 388.0,239.3 432.0,242.9 476.0,240.1 520.0,207.0 564.0,207.4 608.0,201.4 652.0,166.0 696.0,170.9 740.0,164.4 784.0,118.8 828.0,121.4 872.0,116.6 916.0,73.9 960.0,77.7" fill="none" stroke="#6366f1" stroke-width="2.5"/>
<circle cx="80.0" cy="329.5" r="3.5" fill="#6366f1"/>
<circle cx="124.0" cy="355.2" r="3.5" fill="#6366f1"/>
<circle cx="168.0" cy="339.2" r="3.5" fill="#6366f1"/>
<circle cx="212.0" cy="308.4" r="3.5" fill="#6366f1"/>
<circle cx="256.0" cy="271.4" r="3.5" fill="#6366f1"/>
<circle cx="300.0" cy="278.9" r="3.5" fill="#6366f1"/>
<circle cx="344.0" cy="276.0" r="3.5" fill="#6366f1"/>
<circle cx="388.0" cy="239.3" r="3.5" fill="#6366f1"/>
<circle cx="432.0" cy="242.9" r="3.5" fill="#6366f1"/>
<circle cx="476.0" cy="240.1" r="3.5" fill="#6366f1"/>
<circle cx="520.0" cy="207.0" r="3.5" fill="#6366f1"/>
<circle cx="564.0" cy="207.4" r="3.5" fill="#6366f1"/>
<circle cx="608.0" cy="201.4" r="3.5" fill="#6366f1"/>
<circle cx="652.0" cy="166.0" r="3.5" fill="#6366f1"/>
<circle cx="696.0" cy="170.9" r="3.5" fill="#6366f1"/>
<circle cx="740.0" cy="164.4" r="3.5" fill="#6366f1"/>
<circle cx="784.0" cy="118.8" r="3.5" fill="#6366f1"/>
<circle cx="828.0" cy="121.4" r="3.5" fill="#6366f1"/>
<circle cx="872.0" cy="116.6" r="3.5" fill="#6366f1"/>
<circle cx="916.0" cy="73.9" r="3.5" fill="#6366f1"/>
<circle cx="960.0" cy="77.7" r="3.5" fill="#6366f1"/>
<polyline points="80.0,329.5 124.0,355.2 168.0,339.2 212.0,308.4 256.0,271.4 300.0,278.9 344.0,276.0 388.0,239.3 432.0,242.9 476.0,240.1 520.0,207.0 564.0,207.4 608.0,201.4 652.0,166.0 696.0,170.9 740.0,164.4 784.0,118.8 828.0,121.4 872.0,116.6 916.0,73.9 960.0,77.7" fill="none" stroke="#f59e0b" stroke-width="2.5"/>
<circle cx="80.0" cy="329.5" r="3.5" fill="#f59e0b"/>
<circle cx="124.0" cy="355.2" r="3.5" fill="#f59e0b"/>
<circle cx="168.0" cy="339.2" r="3.5" fill="#f59e0b"/>
<circle cx="212.0" cy="308.4" r="3.5" fill="#f59e0b"/>
<circle cx="256.0" cy="271.4" r="3.5" fill="#f59e0b"/>
<circle cx="300.0" cy="278.9" r="3.5" fill="#f59e0b"/>
<circle cx="344.0" cy="276.0" r="3.5" fill="#f59e0b"/>
<circle cx="388.0" cy="239.3" r="3.5" fill="#f59e0b"/>
<circle cx="432.0" cy="242.9" r="3.5" fill="#f59e0b"/>
<circle cx="476.0" cy="240.1" r="3.5" fill="#f59e0b"/>
<circle cx="520.0" cy="207.0" r="3.5" fill="#f59e0b"/>
<circle cx="564.0" cy="207.4" r="3.5" fill="#f59e0b"/>
<circle cx="608.0" cy="201.4" r="3.5" fill="#f59e0b"/>
<circle cx="652.0" cy="166.0" r="3.5" fill="#f59e0b"/>
<circle cx="696.0" cy="170.9" r="3.5" fill="#f59e0b"/>
<circle cx="740.0" cy="164.4" r="3.5" fill="#f59e0b"/>
<circle cx="784.0" cy="118.8" r="3.5" fill="#f59e0b"/>
<circle cx="828.0" cy="121.4" r="3.5" fill="#f59e0b"/>
<circle cx="872.0" cy="116.6" r="3.5" fill="#f59e0b"/>
<circle cx="916.0" cy="73.9" r="3.5" fill="#f59e0b"/>
<circle cx="960.0" cy="77.7" r="3.5" fill="#f59e0b"/>
<polyline points="80.0,329.5 124.0,355.2 168.0,339.2 212.0,308.4 256.0,271.4 300.0,278.9 344.0,276.0 388.0,239.3 432.0,242.9 476.0,240.1 520.0,207.0 564.0,207.4 608.0,201.4 652.0,166.0 696.0,170.9 740.0,164.4 784.0,118.8 828.0,121.4 872.0,116.6 916.0,73.9 960.0,77.7" fill="none" stroke="#ef4444" stroke-width="2.5"/>
<circle cx="80.0" cy="329.5" r="3.5" fill="#ef4444"/>
<circle cx="124.0" cy="355.2" r="3.5" fill="#ef4444"/>
<circle cx="168.0" cy="339.2" r="3.5" fill="#ef4444"/>
<circle cx="212.0" cy="308.4" r="3.5" fill="#ef4444"/>
<circle cx="256.0" cy="271.4" r="3.5" fill="#ef4444"/>
<circle cx="300.0" cy="278.9" r="3.5" fill="#ef4444"/>
<circle cx="344.0" cy="276.0" r="3.5" fill="#ef4444"/>
<circle cx="388.0" cy="239.3" r="3.5" fill="#ef4444"/>
<circle cx="432.0" cy="242.9" r="3.5" fill="#ef4444"/>
<circle cx="476.0" cy="240.1" r="3.5" fill="#ef4444"/>
<circle cx="520.0" cy="207.0" r="3.5" fill="#ef4444"/>
<circle cx="564.0" cy="207.4" r="3.5" fill="#ef4444"/>
<circle cx="608.0" cy="201.4" r="3.5" fill="#ef4444"/>
<circle cx="652.0" cy="166.0" r="3.5" fill="#ef4444"/>
<circle cx="696.0" cy="170.9" r="3.5" fill="#ef4444"/>
<circle cx="740.0" cy="164.4" r="3.5" fill="#ef4444"/>
<circle cx="784.0" cy="118.8" r="3.5" fill="#ef4444"/>
<circle cx="828.0" cy="121.4" r="3.5" fill="#ef4444"/>
<circle cx="872.0" cy="116.6" r="3.5" fill="#ef4444"/>
<circle cx="916.0" cy="73.9" r="3.5" fill="#ef4444"/>
<circle cx="960.0" cy="77.7" r="3.5" fill="#ef4444"/>
<polyline points="80.0,343.7 124.0,342.1 168.0,344.8 212.0,330.0 256.0,280.6 300.0,295.5 344.0,285.8 388.0,245.9 432.0,275.9 476.0,269.2 520.0,218.1 564.0,227.1 608.0,221.9 652.0,193.0 696.0,192.4 740.0,189.7 784.0,149.8 828.0,156.1 872.0,157.2 916.0,118.2 960.0,123.9" fill="none" stroke="#10b981" stroke-width="2.5"/>
<circle cx="80.0" cy="343.7" r="3.5" fill="#10b981"/>
<circle cx="124.0" cy="342.1" r="3.5" fill="#10b981"/>
<circle cx="168.0" cy="344.8" r="3.5" fill="#10b981"/>
<circle cx="212.0" cy="330.0" r="3.5" fill="#10b981"/>
<circle cx="256.0" cy="280.6" r="3.5" fill="#10b981"/>
<circle cx="300.0" cy="295.5" r="3.5" fill="#10b981"/>
<circle cx="344.0" cy="285.8" r="3.5" fill="#10b981"/>
<circle cx="388.0" cy="245.9" r="3.5" fill="#10b981"/>
<circle cx="432.0" cy="275.9" r="3.5" fill="#10b981"/>
<circle cx="476.0" cy="269.2" r="3.5" fill="#10b981"/>
<circle cx="520.0" cy="218.1" r="3.5" fill="#10b981"/>
<circle cx="564.0" cy="227.1" r="3.5" fill="#10b981"/>
<circle cx="608.0" cy="221.9" r="3.5" fill="#10b981"/>
<circle cx="652.0" cy="193.0" r="3.5" fill="#10b981"/>
<circle cx="696.0" cy="192.4" r="3.5" fill="#10b981"/>
<circle cx="740.0" cy="189.7" r="3.5" fill="#10b981"/>
<circle cx="784.0" cy="149.8" r="3.5" fill="#10b981"/>
<circle cx="828.0" cy="156.1" r="3.5" fill="#10b981"/>
<circle cx="872.0" cy="157.2" r="3.5" fill="#10b981"/>
<circle cx="916.0" cy="118.2" r="3.5" fill="#10b981"/>
<circle cx="960.0" cy="123.9" r="3.5" fill="#10b981"/>
<text x="70" y="215" font-size="10" font-family="Menlo,monospace" fill="#475569" text-anchor="middle" transform="rotate(-90 30 215)">µs</text>
</svg>