<svg xmlns="http://www.w3.org/2000/svg" viewBox="0 0 1000 1080" width="100%" height="auto">
<rect width="1000" height="1080" fill="#ffffff"/>
<text x="24" y="32" font-size="20" font-family="Menlo,monospace" fill="#0f172a">Rectangular Matmul GFLOPS</text>
<text x="24" y="52" font-size="11" font-family="Menlo,monospace" fill="#64748b">Apple M1 (Virtual) · f32 · selected shapes · higher is better</text>
<rect x="200" y="54" width="10" height="10" rx="2" fill="#6366f1"/>
<text x="214" y="63" font-size="11" font-family="Menlo,monospace" fill="#334155">Scalar Rust</text>
<rect x="380" y="54" width="10" height="10" rx="2" fill="#f59e0b"/>
<text x="394" y="63" font-size="11" font-family="Menlo,monospace" fill="#334155">AMX (1 core)</text>
<rect x="560" y="54" width="10" height="10" rx="2" fill="#ef4444"/>
<text x="574" y="63" font-size="11" font-family="Menlo,monospace" fill="#334155">AMX (all cores)</text>
<rect x="740" y="54" width="10" height="10" rx="2" fill="#10b981"/>
<text x="754" y="63" font-size="11" font-family="Menlo,monospace" fill="#334155">Accelerate</text>
<text x="12" y="108" font-size="11" font-family="Menlo,monospace" fill="#111827">256×1×256</text>
<rect x="200" y="70" width="102.2" height="14" rx="3" fill="#6366f1"/>
<text x="307.2" y="81" font-size="10" font-family="Menlo,monospace" fill="#334155">8.3 GFLOPS</text>
<rect x="200" y="87" width="102.2" height="14" rx="3" fill="#f59e0b"/>
<text x="307.2" y="98" font-size="10" font-family="Menlo,monospace" fill="#334155">8.3 GFLOPS</text>
<rect x="200" y="104" width="102.2" height="14" rx="3" fill="#ef4444"/>
<text x="307.2" y="115" font-size="10" font-family="Menlo,monospace" fill="#334155">8.3 GFLOPS</text>
<rect x="200" y="121" width="109.4" height="14" rx="3" fill="#10b981"/>
<text x="314.4" y="132" font-size="10" font-family="Menlo,monospace" fill="#334155">8.8 GFLOPS</text>
<text x="12" y="188" font-size="11" font-family="Menlo,monospace" fill="#111827">256×4×256</text>
<rect x="200" y="150" width="200.1" height="14" rx="3" fill="#6366f1"/>
<text x="405.1" y="161" font-size="10" font-family="Menlo,monospace" fill="#334155">16.2 GFLOPS</text>
<rect x="200" y="167" width="200.1" height="14" rx="3" fill="#f59e0b"/>
<text x="405.1" y="178" font-size="10" font-family="Menlo,monospace" fill="#334155">16.2 GFLOPS</text>
<rect x="200" y="184" width="200.1" height="14" rx="3" fill="#ef4444"/>
<text x="405.1" y="195" font-size="10" font-family="Menlo,monospace" fill="#334155">16.2 GFLOPS</text>
<rect x="200" y="201" width="291.7" height="14" rx="3" fill="#10b981"/>
<text x="496.7" y="212" font-size="10" font-family="Menlo,monospace" fill="#334155">23.6 GFLOPS</text>
<text x="12" y="268" font-size="11" font-family="Menlo,monospace" fill="#111827">256×16×256</text>
<rect x="200" y="230" width="187.8" height="14" rx="3" fill="#6366f1"/>
<text x="392.8" y="241" font-size="10" font-family="Menlo,monospace" fill="#334155">15.2 GFLOPS</text>
<rect x="200" y="247" width="187.8" height="14" rx="3" fill="#f59e0b"/>
<text x="392.8" y="258" font-size="10" font-family="Menlo,monospace" fill="#334155">15.2 GFLOPS</text>
<rect x="200" y="264" width="187.8" height="14" rx="3" fill="#ef4444"/>
<text x="392.8" y="275" font-size="10" font-family="Menlo,monospace" fill="#334155">15.2 GFLOPS</text>
<rect x="200" y="281" width="645.0" height="14" rx="3" fill="#10b981"/>
<text x="850.0" y="292" font-size="10" font-family="Menlo,monospace" fill="#334155">52.1 GFLOPS</text>
<text x="12" y="348" font-size="11" font-family="Menlo,monospace" fill="#111827">512×1×512</text>
<rect x="200" y="310" width="152.8" height="14" rx="3" fill="#6366f1"/>
<text x="357.8" y="321" font-size="10" font-family="Menlo,monospace" fill="#334155">12.3 GFLOPS</text>
<rect x="200" y="327" width="152.8" height="14" rx="3" fill="#f59e0b"/>
<text x="357.8" y="338" font-size="10" font-family="Menlo,monospace" fill="#334155">12.3 GFLOPS</text>
<rect x="200" y="344" width="152.8" height="14" rx="3" fill="#ef4444"/>
<text x="357.8" y="355" font-size="10" font-family="Menlo,monospace" fill="#334155">12.3 GFLOPS</text>
<rect x="200" y="361" width="115.7" height="14" rx="3" fill="#10b981"/>
<text x="320.7" y="372" font-size="10" font-family="Menlo,monospace" fill="#334155">9.3 GFLOPS</text>
<text x="12" y="428" font-size="11" font-family="Menlo,monospace" fill="#111827">1024×1×1</text>
<rect x="200" y="390" width="6.6" height="14" rx="3" fill="#6366f1"/>
<text x="211.6" y="401" font-size="10" font-family="Menlo,monospace" fill="#334155">0.5 GFLOPS</text>
<rect x="200" y="407" width="6.6" height="14" rx="3" fill="#f59e0b"/>
<text x="211.6" y="418" font-size="10" font-family="Menlo,monospace" fill="#334155">0.5 GFLOPS</text>
<rect x="200" y="424" width="6.6" height="14" rx="3" fill="#ef4444"/>
<text x="211.6" y="435" font-size="10" font-family="Menlo,monospace" fill="#334155">0.5 GFLOPS</text>
<rect x="200" y="441" width="56.9" height="14" rx="3" fill="#10b981"/>
<text x="261.9" y="452" font-size="10" font-family="Menlo,monospace" fill="#334155">4.6 GFLOPS</text>
<text x="12" y="508" font-size="11" font-family="Menlo,monospace" fill="#111827">1×256×256</text>
<rect x="200" y="470" width="222.6" height="14" rx="3" fill="#6366f1"/>
<text x="427.6" y="481" font-size="10" font-family="Menlo,monospace" fill="#334155">18.0 GFLOPS</text>
<rect x="200" y="487" width="222.6" height="14" rx="3" fill="#f59e0b"/>
<text x="427.6" y="498" font-size="10" font-family="Menlo,monospace" fill="#334155">18.0 GFLOPS</text>
<rect x="200" y="504" width="222.6" height="14" rx="3" fill="#ef4444"/>
<text x="427.6" y="515" font-size="10" font-family="Menlo,monospace" fill="#334155">18.0 GFLOPS</text>
<rect x="200" y="521" width="312.4" height="14" rx="3" fill="#10b981"/>
<text x="517.4" y="532" font-size="10" font-family="Menlo,monospace" fill="#334155">25.2 GFLOPS</text>
<text x="12" y="588" font-size="11" font-family="Menlo,monospace" fill="#111827">4×256×256</text>
<rect x="200" y="550" width="154.1" height="14" rx="3" fill="#6366f1"/>
<text x="359.1" y="561" font-size="10" font-family="Menlo,monospace" fill="#334155">12.4 GFLOPS</text>
<rect x="200" y="567" width="154.1" height="14" rx="3" fill="#f59e0b"/>
<text x="359.1" y="578" font-size="10" font-family="Menlo,monospace" fill="#334155">12.4 GFLOPS</text>
<rect x="200" y="584" width="154.1" height="14" rx="3" fill="#ef4444"/>
<text x="359.1" y="595" font-size="10" font-family="Menlo,monospace" fill="#334155">12.4 GFLOPS</text>
<rect x="200" y="601" width="192.0" height="14" rx="3" fill="#10b981"/>
<text x="397.0" y="612" font-size="10" font-family="Menlo,monospace" fill="#334155">15.5 GFLOPS</text>
<text x="12" y="668" font-size="11" font-family="Menlo,monospace" fill="#111827">16×256×256</text>
<rect x="200" y="630" width="205.9" height="14" rx="3" fill="#6366f1"/>
<text x="410.9" y="641" font-size="10" font-family="Menlo,monospace" fill="#334155">16.6 GFLOPS</text>
<rect x="200" y="647" width="205.9" height="14" rx="3" fill="#f59e0b"/>
<text x="410.9" y="658" font-size="10" font-family="Menlo,monospace" fill="#334155">16.6 GFLOPS</text>
<rect x="200" y="664" width="205.9" height="14" rx="3" fill="#ef4444"/>
<text x="410.9" y="675" font-size="10" font-family="Menlo,monospace" fill="#334155">16.6 GFLOPS</text>
<rect x="200" y="681" width="410.1" height="14" rx="3" fill="#10b981"/>
<text x="615.1" y="692" font-size="10" font-family="Menlo,monospace" fill="#334155">33.1 GFLOPS</text>
<text x="12" y="748" font-size="11" font-family="Menlo,monospace" fill="#111827">17×33×19</text>
<rect x="200" y="710" width="35.8" height="14" rx="3" fill="#6366f1"/>
<text x="240.8" y="721" font-size="10" font-family="Menlo,monospace" fill="#334155">2.9 GFLOPS</text>
<rect x="200" y="727" width="35.8" height="14" rx="3" fill="#f59e0b"/>
<text x="240.8" y="738" font-size="10" font-family="Menlo,monospace" fill="#334155">2.9 GFLOPS</text>
<rect x="200" y="744" width="35.8" height="14" rx="3" fill="#ef4444"/>
<text x="240.8" y="755" font-size="10" font-family="Menlo,monospace" fill="#334155">2.9 GFLOPS</text>
<rect x="200" y="761" width="255.7" height="14" rx="3" fill="#10b981"/>
<text x="460.7" y="772" font-size="10" font-family="Menlo,monospace" fill="#334155">20.6 GFLOPS</text>
<text x="12" y="828" font-size="11" font-family="Menlo,monospace" fill="#111827">37×53×41</text>
<rect x="200" y="790" width="45.5" height="14" rx="3" fill="#6366f1"/>
<text x="250.5" y="801" font-size="10" font-family="Menlo,monospace" fill="#334155">3.7 GFLOPS</text>
<rect x="200" y="807" width="45.5" height="14" rx="3" fill="#f59e0b"/>
<text x="250.5" y="818" font-size="10" font-family="Menlo,monospace" fill="#334155">3.7 GFLOPS</text>
<rect x="200" y="824" width="45.5" height="14" rx="3" fill="#ef4444"/>
<text x="250.5" y="835" font-size="10" font-family="Menlo,monospace" fill="#334155">3.7 GFLOPS</text>
<rect x="200" y="841" width="321.2" height="14" rx="3" fill="#10b981"/>
<text x="526.2" y="852" font-size="10" font-family="Menlo,monospace" fill="#334155">25.9 GFLOPS</text>
<text x="12" y="908" font-size="11" font-family="Menlo,monospace" fill="#111827">100×200×150</text>
<rect x="200" y="870" width="165.4" height="14" rx="3" fill="#6366f1"/>
<text x="370.4" y="881" font-size="10" font-family="Menlo,monospace" fill="#334155">13.4 GFLOPS</text>
<rect x="200" y="887" width="165.4" height="14" rx="3" fill="#f59e0b"/>
<text x="370.4" y="898" font-size="10" font-family="Menlo,monospace" fill="#334155">13.4 GFLOPS</text>
<rect x="200" y="904" width="165.4" height="14" rx="3" fill="#ef4444"/>
<text x="370.4" y="915" font-size="10" font-family="Menlo,monospace" fill="#334155">13.4 GFLOPS</text>
<rect x="200" y="921" width="700.0" height="14" rx="3" fill="#10b981"/>
<text x="905.0" y="932" font-size="10" font-family="Menlo,monospace" fill="#334155">56.5 GFLOPS</text>
<text x="12" y="988" font-size="11" font-family="Menlo,monospace" fill="#111827">1×768×768</text>
<rect x="200" y="950" width="265.8" height="14" rx="3" fill="#6366f1"/>
<text x="470.8" y="961" font-size="10" font-family="Menlo,monospace" fill="#334155">21.5 GFLOPS</text>
<rect x="200" y="967" width="265.8" height="14" rx="3" fill="#f59e0b"/>
<text x="470.8" y="978" font-size="10" font-family="Menlo,monospace" fill="#334155">21.5 GFLOPS</text>
<rect x="200" y="984" width="265.8" height="14" rx="3" fill="#ef4444"/>
<text x="470.8" y="995" font-size="10" font-family="Menlo,monospace" fill="#334155">21.5 GFLOPS</text>
<rect x="200" y="1001" width="302.7" height="14" rx="3" fill="#10b981"/>
<text x="507.7" y="1012" font-size="10" font-family="Menlo,monospace" fill="#334155">24.4 GFLOPS</text>
</svg>