<svg xmlns="http://www.w3.org/2000/svg" viewBox="0 0 1000 1080" width="100%" height="auto">
<rect width="1000" height="1080" fill="#ffffff"/>
<text x="24" y="32" font-size="20" font-family="Menlo,monospace" fill="#0f172a">Rectangular Matmul GFLOPS</text>
<text x="24" y="52" font-size="11" font-family="Menlo,monospace" fill="#64748b">Apple M1 (Virtual) · f32 · selected shapes · higher is better</text>
<rect x="200" y="54" width="10" height="10" rx="2" fill="#6366f1"/>
<text x="214" y="63" font-size="11" font-family="Menlo,monospace" fill="#334155">Scalar Rust</text>
<rect x="380" y="54" width="10" height="10" rx="2" fill="#f59e0b"/>
<text x="394" y="63" font-size="11" font-family="Menlo,monospace" fill="#334155">AMX (1 core)</text>
<rect x="560" y="54" width="10" height="10" rx="2" fill="#ef4444"/>
<text x="574" y="63" font-size="11" font-family="Menlo,monospace" fill="#334155">AMX (all cores)</text>
<rect x="740" y="54" width="10" height="10" rx="2" fill="#10b981"/>
<text x="754" y="63" font-size="11" font-family="Menlo,monospace" fill="#334155">Accelerate</text>
<text x="12" y="108" font-size="11" font-family="Menlo,monospace" fill="#111827">256×1×256</text>
<rect x="200" y="70" width="133.4" height="14" rx="3" fill="#6366f1"/>
<text x="338.4" y="81" font-size="10" font-family="Menlo,monospace" fill="#334155">13.7 GFLOPS</text>
<rect x="200" y="87" width="133.4" height="14" rx="3" fill="#f59e0b"/>
<text x="338.4" y="98" font-size="10" font-family="Menlo,monospace" fill="#334155">13.7 GFLOPS</text>
<rect x="200" y="104" width="133.4" height="14" rx="3" fill="#ef4444"/>
<text x="338.4" y="115" font-size="10" font-family="Menlo,monospace" fill="#334155">13.7 GFLOPS</text>
<rect x="200" y="121" width="91.1" height="14" rx="3" fill="#10b981"/>
<text x="296.1" y="132" font-size="10" font-family="Menlo,monospace" fill="#334155">9.3 GFLOPS</text>
<text x="12" y="188" font-size="11" font-family="Menlo,monospace" fill="#111827">256×4×256</text>
<rect x="200" y="150" width="224.6" height="14" rx="3" fill="#6366f1"/>
<text x="429.6" y="161" font-size="10" font-family="Menlo,monospace" fill="#334155">23.0 GFLOPS</text>
<rect x="200" y="167" width="224.6" height="14" rx="3" fill="#f59e0b"/>
<text x="429.6" y="178" font-size="10" font-family="Menlo,monospace" fill="#334155">23.0 GFLOPS</text>
<rect x="200" y="184" width="224.6" height="14" rx="3" fill="#ef4444"/>
<text x="429.6" y="195" font-size="10" font-family="Menlo,monospace" fill="#334155">23.0 GFLOPS</text>
<rect x="200" y="201" width="182.8" height="14" rx="3" fill="#10b981"/>
<text x="387.8" y="212" font-size="10" font-family="Menlo,monospace" fill="#334155">18.7 GFLOPS</text>
<text x="12" y="268" font-size="11" font-family="Menlo,monospace" fill="#111827">256×16×256</text>
<rect x="200" y="230" width="261.0" height="14" rx="3" fill="#6366f1"/>
<text x="466.0" y="241" font-size="10" font-family="Menlo,monospace" fill="#334155">26.7 GFLOPS</text>
<rect x="200" y="247" width="261.0" height="14" rx="3" fill="#f59e0b"/>
<text x="466.0" y="258" font-size="10" font-family="Menlo,monospace" fill="#334155">26.7 GFLOPS</text>
<rect x="200" y="264" width="261.0" height="14" rx="3" fill="#ef4444"/>
<text x="466.0" y="275" font-size="10" font-family="Menlo,monospace" fill="#334155">26.7 GFLOPS</text>
<rect x="200" y="281" width="637.9" height="14" rx="3" fill="#10b981"/>
<text x="842.9" y="292" font-size="10" font-family="Menlo,monospace" fill="#334155">65.3 GFLOPS</text>
<text x="12" y="348" font-size="11" font-family="Menlo,monospace" fill="#111827">512×1×512</text>
<rect x="200" y="310" width="151.5" height="14" rx="3" fill="#6366f1"/>
<text x="356.5" y="321" font-size="10" font-family="Menlo,monospace" fill="#334155">15.5 GFLOPS</text>
<rect x="200" y="327" width="151.5" height="14" rx="3" fill="#f59e0b"/>
<text x="356.5" y="338" font-size="10" font-family="Menlo,monospace" fill="#334155">15.5 GFLOPS</text>
<rect x="200" y="344" width="151.5" height="14" rx="3" fill="#ef4444"/>
<text x="356.5" y="355" font-size="10" font-family="Menlo,monospace" fill="#334155">15.5 GFLOPS</text>
<rect x="200" y="361" width="99.0" height="14" rx="3" fill="#10b981"/>
<text x="304.0" y="372" font-size="10" font-family="Menlo,monospace" fill="#334155">10.1 GFLOPS</text>
<text x="12" y="428" font-size="11" font-family="Menlo,monospace" fill="#111827">1024×1×1</text>
<rect x="200" y="390" width="6.4" height="14" rx="3" fill="#6366f1"/>
<text x="211.4" y="401" font-size="10" font-family="Menlo,monospace" fill="#334155">0.7 GFLOPS</text>
<rect x="200" y="407" width="6.4" height="14" rx="3" fill="#f59e0b"/>
<text x="211.4" y="418" font-size="10" font-family="Menlo,monospace" fill="#334155">0.7 GFLOPS</text>
<rect x="200" y="424" width="6.4" height="14" rx="3" fill="#ef4444"/>
<text x="211.4" y="435" font-size="10" font-family="Menlo,monospace" fill="#334155">0.7 GFLOPS</text>
<rect x="200" y="441" width="46.1" height="14" rx="3" fill="#10b981"/>
<text x="251.1" y="452" font-size="10" font-family="Menlo,monospace" fill="#334155">4.7 GFLOPS</text>
<text x="12" y="508" font-size="11" font-family="Menlo,monospace" fill="#111827">1×256×256</text>
<rect x="200" y="470" width="236.5" height="14" rx="3" fill="#6366f1"/>
<text x="441.5" y="481" font-size="10" font-family="Menlo,monospace" fill="#334155">24.2 GFLOPS</text>
<rect x="200" y="487" width="236.5" height="14" rx="3" fill="#f59e0b"/>
<text x="441.5" y="498" font-size="10" font-family="Menlo,monospace" fill="#334155">24.2 GFLOPS</text>
<rect x="200" y="504" width="236.5" height="14" rx="3" fill="#ef4444"/>
<text x="441.5" y="515" font-size="10" font-family="Menlo,monospace" fill="#334155">24.2 GFLOPS</text>
<rect x="200" y="521" width="157.8" height="14" rx="3" fill="#10b981"/>
<text x="362.8" y="532" font-size="10" font-family="Menlo,monospace" fill="#334155">16.2 GFLOPS</text>
<text x="12" y="588" font-size="11" font-family="Menlo,monospace" fill="#111827">4×256×256</text>
<rect x="200" y="550" width="236.8" height="14" rx="3" fill="#6366f1"/>
<text x="441.8" y="561" font-size="10" font-family="Menlo,monospace" fill="#334155">24.3 GFLOPS</text>
<rect x="200" y="567" width="236.8" height="14" rx="3" fill="#f59e0b"/>
<text x="441.8" y="578" font-size="10" font-family="Menlo,monospace" fill="#334155">24.3 GFLOPS</text>
<rect x="200" y="584" width="236.8" height="14" rx="3" fill="#ef4444"/>
<text x="441.8" y="595" font-size="10" font-family="Menlo,monospace" fill="#334155">24.3 GFLOPS</text>
<rect x="200" y="601" width="258.1" height="14" rx="3" fill="#10b981"/>
<text x="463.1" y="612" font-size="10" font-family="Menlo,monospace" fill="#334155">26.4 GFLOPS</text>
<text x="12" y="668" font-size="11" font-family="Menlo,monospace" fill="#111827">16×256×256</text>
<rect x="200" y="630" width="236.0" height="14" rx="3" fill="#6366f1"/>
<text x="441.0" y="641" font-size="10" font-family="Menlo,monospace" fill="#334155">24.2 GFLOPS</text>
<rect x="200" y="647" width="236.0" height="14" rx="3" fill="#f59e0b"/>
<text x="441.0" y="658" font-size="10" font-family="Menlo,monospace" fill="#334155">24.2 GFLOPS</text>
<rect x="200" y="664" width="236.0" height="14" rx="3" fill="#ef4444"/>
<text x="441.0" y="675" font-size="10" font-family="Menlo,monospace" fill="#334155">24.2 GFLOPS</text>
<rect x="200" y="681" width="512.1" height="14" rx="3" fill="#10b981"/>
<text x="717.1" y="692" font-size="10" font-family="Menlo,monospace" fill="#334155">52.5 GFLOPS</text>
<text x="12" y="748" font-size="11" font-family="Menlo,monospace" fill="#111827">17×33×19</text>
<rect x="200" y="710" width="61.6" height="14" rx="3" fill="#6366f1"/>
<text x="266.6" y="721" font-size="10" font-family="Menlo,monospace" fill="#334155">6.3 GFLOPS</text>
<rect x="200" y="727" width="61.6" height="14" rx="3" fill="#f59e0b"/>
<text x="266.6" y="738" font-size="10" font-family="Menlo,monospace" fill="#334155">6.3 GFLOPS</text>
<rect x="200" y="744" width="61.6" height="14" rx="3" fill="#ef4444"/>
<text x="266.6" y="755" font-size="10" font-family="Menlo,monospace" fill="#334155">6.3 GFLOPS</text>
<rect x="200" y="761" width="205.4" height="14" rx="3" fill="#10b981"/>
<text x="410.4" y="772" font-size="10" font-family="Menlo,monospace" fill="#334155">21.0 GFLOPS</text>
<text x="12" y="828" font-size="11" font-family="Menlo,monospace" fill="#111827">37×53×41</text>
<rect x="200" y="790" width="133.2" height="14" rx="3" fill="#6366f1"/>
<text x="338.2" y="801" font-size="10" font-family="Menlo,monospace" fill="#334155">13.6 GFLOPS</text>
<rect x="200" y="807" width="133.2" height="14" rx="3" fill="#f59e0b"/>
<text x="338.2" y="818" font-size="10" font-family="Menlo,monospace" fill="#334155">13.6 GFLOPS</text>
<rect x="200" y="824" width="133.2" height="14" rx="3" fill="#ef4444"/>
<text x="338.2" y="835" font-size="10" font-family="Menlo,monospace" fill="#334155">13.6 GFLOPS</text>
<rect x="200" y="841" width="519.1" height="14" rx="3" fill="#10b981"/>
<text x="724.1" y="852" font-size="10" font-family="Menlo,monospace" fill="#334155">53.2 GFLOPS</text>
<text x="12" y="908" font-size="11" font-family="Menlo,monospace" fill="#111827">100×200×150</text>
<rect x="200" y="870" width="224.9" height="14" rx="3" fill="#6366f1"/>
<text x="429.9" y="881" font-size="10" font-family="Menlo,monospace" fill="#334155">23.0 GFLOPS</text>
<rect x="200" y="887" width="224.9" height="14" rx="3" fill="#f59e0b"/>
<text x="429.9" y="898" font-size="10" font-family="Menlo,monospace" fill="#334155">23.0 GFLOPS</text>
<rect x="200" y="904" width="224.9" height="14" rx="3" fill="#ef4444"/>
<text x="429.9" y="915" font-size="10" font-family="Menlo,monospace" fill="#334155">23.0 GFLOPS</text>
<rect x="200" y="921" width="700.0" height="14" rx="3" fill="#10b981"/>
<text x="905.0" y="932" font-size="10" font-family="Menlo,monospace" fill="#334155">71.7 GFLOPS</text>
<text x="12" y="988" font-size="11" font-family="Menlo,monospace" fill="#111827">1×768×768</text>
<rect x="200" y="950" width="239.0" height="14" rx="3" fill="#6366f1"/>
<text x="444.0" y="961" font-size="10" font-family="Menlo,monospace" fill="#334155">24.5 GFLOPS</text>
<rect x="200" y="967" width="239.0" height="14" rx="3" fill="#f59e0b"/>
<text x="444.0" y="978" font-size="10" font-family="Menlo,monospace" fill="#334155">24.5 GFLOPS</text>
<rect x="200" y="984" width="239.0" height="14" rx="3" fill="#ef4444"/>
<text x="444.0" y="995" font-size="10" font-family="Menlo,monospace" fill="#334155">24.5 GFLOPS</text>
<rect x="200" y="1001" width="237.0" height="14" rx="3" fill="#10b981"/>
<text x="442.0" y="1012" font-size="10" font-family="Menlo,monospace" fill="#334155">24.3 GFLOPS</text>
</svg>