<svg xmlns="http://www.w3.org/2000/svg" viewBox="0 0 1000 1080" width="100%" height="auto">
<rect width="1000" height="1080" fill="#ffffff"/>
<text x="24" y="32" font-size="20" font-family="Menlo,monospace" fill="#0f172a">Rectangular Matmul GFLOPS</text>
<text x="24" y="52" font-size="11" font-family="Menlo,monospace" fill="#64748b">Apple M1 (Virtual) · f32 · selected shapes · higher is better</text>
<rect x="200" y="54" width="10" height="10" rx="2" fill="#6366f1"/>
<text x="214" y="63" font-size="11" font-family="Menlo,monospace" fill="#334155">Scalar Rust</text>
<rect x="380" y="54" width="10" height="10" rx="2" fill="#f59e0b"/>
<text x="394" y="63" font-size="11" font-family="Menlo,monospace" fill="#334155">AMX (1 core)</text>
<rect x="560" y="54" width="10" height="10" rx="2" fill="#ef4444"/>
<text x="574" y="63" font-size="11" font-family="Menlo,monospace" fill="#334155">AMX (all cores)</text>
<rect x="740" y="54" width="10" height="10" rx="2" fill="#10b981"/>
<text x="754" y="63" font-size="11" font-family="Menlo,monospace" fill="#334155">Accelerate</text>
<text x="12" y="108" font-size="11" font-family="Menlo,monospace" fill="#111827">256×1×256</text>
<rect x="200" y="70" width="109.5" height="14" rx="3" fill="#6366f1"/>
<text x="314.5" y="81" font-size="10" font-family="Menlo,monospace" fill="#334155">12.5 GFLOPS</text>
<rect x="200" y="87" width="109.5" height="14" rx="3" fill="#f59e0b"/>
<text x="314.5" y="98" font-size="10" font-family="Menlo,monospace" fill="#334155">12.5 GFLOPS</text>
<rect x="200" y="104" width="109.5" height="14" rx="3" fill="#ef4444"/>
<text x="314.5" y="115" font-size="10" font-family="Menlo,monospace" fill="#334155">12.5 GFLOPS</text>
<rect x="200" y="121" width="67.2" height="14" rx="3" fill="#10b981"/>
<text x="272.2" y="132" font-size="10" font-family="Menlo,monospace" fill="#334155">7.7 GFLOPS</text>
<text x="12" y="188" font-size="11" font-family="Menlo,monospace" fill="#111827">256×4×256</text>
<rect x="200" y="150" width="149.6" height="14" rx="3" fill="#6366f1"/>
<text x="354.6" y="161" font-size="10" font-family="Menlo,monospace" fill="#334155">17.1 GFLOPS</text>
<rect x="200" y="167" width="149.6" height="14" rx="3" fill="#f59e0b"/>
<text x="354.6" y="178" font-size="10" font-family="Menlo,monospace" fill="#334155">17.1 GFLOPS</text>
<rect x="200" y="184" width="149.6" height="14" rx="3" fill="#ef4444"/>
<text x="354.6" y="195" font-size="10" font-family="Menlo,monospace" fill="#334155">17.1 GFLOPS</text>
<rect x="200" y="201" width="198.5" height="14" rx="3" fill="#10b981"/>
<text x="403.5" y="212" font-size="10" font-family="Menlo,monospace" fill="#334155">22.7 GFLOPS</text>
<text x="12" y="268" font-size="11" font-family="Menlo,monospace" fill="#111827">256×16×256</text>
<rect x="200" y="230" width="167.0" height="14" rx="3" fill="#6366f1"/>
<text x="372.0" y="241" font-size="10" font-family="Menlo,monospace" fill="#334155">19.1 GFLOPS</text>
<rect x="200" y="247" width="167.0" height="14" rx="3" fill="#f59e0b"/>
<text x="372.0" y="258" font-size="10" font-family="Menlo,monospace" fill="#334155">19.1 GFLOPS</text>
<rect x="200" y="264" width="167.0" height="14" rx="3" fill="#ef4444"/>
<text x="372.0" y="275" font-size="10" font-family="Menlo,monospace" fill="#334155">19.1 GFLOPS</text>
<rect x="200" y="281" width="469.0" height="14" rx="3" fill="#10b981"/>
<text x="674.0" y="292" font-size="10" font-family="Menlo,monospace" fill="#334155">53.5 GFLOPS</text>
<text x="12" y="348" font-size="11" font-family="Menlo,monospace" fill="#111827">512×1×512</text>
<rect x="200" y="310" width="126.5" height="14" rx="3" fill="#6366f1"/>
<text x="331.5" y="321" font-size="10" font-family="Menlo,monospace" fill="#334155">14.4 GFLOPS</text>
<rect x="200" y="327" width="126.5" height="14" rx="3" fill="#f59e0b"/>
<text x="331.5" y="338" font-size="10" font-family="Menlo,monospace" fill="#334155">14.4 GFLOPS</text>
<rect x="200" y="344" width="126.5" height="14" rx="3" fill="#ef4444"/>
<text x="331.5" y="355" font-size="10" font-family="Menlo,monospace" fill="#334155">14.4 GFLOPS</text>
<rect x="200" y="361" width="86.5" height="14" rx="3" fill="#10b981"/>
<text x="291.5" y="372" font-size="10" font-family="Menlo,monospace" fill="#334155">9.9 GFLOPS</text>
<text x="12" y="428" font-size="11" font-family="Menlo,monospace" fill="#111827">1024×1×1</text>
<rect x="200" y="390" width="4.5" height="14" rx="3" fill="#6366f1"/>
<text x="209.5" y="401" font-size="10" font-family="Menlo,monospace" fill="#334155">0.5 GFLOPS</text>
<rect x="200" y="407" width="4.5" height="14" rx="3" fill="#f59e0b"/>
<text x="209.5" y="418" font-size="10" font-family="Menlo,monospace" fill="#334155">0.5 GFLOPS</text>
<rect x="200" y="424" width="4.5" height="14" rx="3" fill="#ef4444"/>
<text x="209.5" y="435" font-size="10" font-family="Menlo,monospace" fill="#334155">0.5 GFLOPS</text>
<rect x="200" y="441" width="41.2" height="14" rx="3" fill="#10b981"/>
<text x="246.2" y="452" font-size="10" font-family="Menlo,monospace" fill="#334155">4.7 GFLOPS</text>
<text x="12" y="508" font-size="11" font-family="Menlo,monospace" fill="#111827">1×256×256</text>
<rect x="200" y="470" width="166.8" height="14" rx="3" fill="#6366f1"/>
<text x="371.8" y="481" font-size="10" font-family="Menlo,monospace" fill="#334155">19.0 GFLOPS</text>
<rect x="200" y="487" width="166.8" height="14" rx="3" fill="#f59e0b"/>
<text x="371.8" y="498" font-size="10" font-family="Menlo,monospace" fill="#334155">19.0 GFLOPS</text>
<rect x="200" y="504" width="166.8" height="14" rx="3" fill="#ef4444"/>
<text x="371.8" y="515" font-size="10" font-family="Menlo,monospace" fill="#334155">19.0 GFLOPS</text>
<rect x="200" y="521" width="171.1" height="14" rx="3" fill="#10b981"/>
<text x="376.1" y="532" font-size="10" font-family="Menlo,monospace" fill="#334155">19.5 GFLOPS</text>
<text x="12" y="588" font-size="11" font-family="Menlo,monospace" fill="#111827">4×256×256</text>
<rect x="200" y="550" width="168.8" height="14" rx="3" fill="#6366f1"/>
<text x="373.8" y="561" font-size="10" font-family="Menlo,monospace" fill="#334155">19.3 GFLOPS</text>
<rect x="200" y="567" width="168.8" height="14" rx="3" fill="#f59e0b"/>
<text x="373.8" y="578" font-size="10" font-family="Menlo,monospace" fill="#334155">19.3 GFLOPS</text>
<rect x="200" y="584" width="168.8" height="14" rx="3" fill="#ef4444"/>
<text x="373.8" y="595" font-size="10" font-family="Menlo,monospace" fill="#334155">19.3 GFLOPS</text>
<rect x="200" y="601" width="237.2" height="14" rx="3" fill="#10b981"/>
<text x="442.2" y="612" font-size="10" font-family="Menlo,monospace" fill="#334155">27.1 GFLOPS</text>
<text x="12" y="668" font-size="11" font-family="Menlo,monospace" fill="#111827">16×256×256</text>
<rect x="200" y="630" width="168.5" height="14" rx="3" fill="#6366f1"/>
<text x="373.5" y="641" font-size="10" font-family="Menlo,monospace" fill="#334155">19.2 GFLOPS</text>
<rect x="200" y="647" width="168.5" height="14" rx="3" fill="#f59e0b"/>
<text x="373.5" y="658" font-size="10" font-family="Menlo,monospace" fill="#334155">19.2 GFLOPS</text>
<rect x="200" y="664" width="168.5" height="14" rx="3" fill="#ef4444"/>
<text x="373.5" y="675" font-size="10" font-family="Menlo,monospace" fill="#334155">19.2 GFLOPS</text>
<rect x="200" y="681" width="533.5" height="14" rx="3" fill="#10b981"/>
<text x="738.5" y="692" font-size="10" font-family="Menlo,monospace" fill="#334155">60.9 GFLOPS</text>
<text x="12" y="748" font-size="11" font-family="Menlo,monospace" fill="#111827">17×33×19</text>
<rect x="200" y="710" width="51.4" height="14" rx="3" fill="#6366f1"/>
<text x="256.4" y="721" font-size="10" font-family="Menlo,monospace" fill="#334155">5.9 GFLOPS</text>
<rect x="200" y="727" width="51.4" height="14" rx="3" fill="#f59e0b"/>
<text x="256.4" y="738" font-size="10" font-family="Menlo,monospace" fill="#334155">5.9 GFLOPS</text>
<rect x="200" y="744" width="51.4" height="14" rx="3" fill="#ef4444"/>
<text x="256.4" y="755" font-size="10" font-family="Menlo,monospace" fill="#334155">5.9 GFLOPS</text>
<rect x="200" y="761" width="185.9" height="14" rx="3" fill="#10b981"/>
<text x="390.9" y="772" font-size="10" font-family="Menlo,monospace" fill="#334155">21.2 GFLOPS</text>
<text x="12" y="828" font-size="11" font-family="Menlo,monospace" fill="#111827">37×53×41</text>
<rect x="200" y="790" width="78.7" height="14" rx="3" fill="#6366f1"/>
<text x="283.7" y="801" font-size="10" font-family="Menlo,monospace" fill="#334155">9.0 GFLOPS</text>
<rect x="200" y="807" width="78.7" height="14" rx="3" fill="#f59e0b"/>
<text x="283.7" y="818" font-size="10" font-family="Menlo,monospace" fill="#334155">9.0 GFLOPS</text>
<rect x="200" y="824" width="78.7" height="14" rx="3" fill="#ef4444"/>
<text x="283.7" y="835" font-size="10" font-family="Menlo,monospace" fill="#334155">9.0 GFLOPS</text>
<rect x="200" y="841" width="463.9" height="14" rx="3" fill="#10b981"/>
<text x="668.9" y="852" font-size="10" font-family="Menlo,monospace" fill="#334155">52.9 GFLOPS</text>
<text x="12" y="908" font-size="11" font-family="Menlo,monospace" fill="#111827">100×200×150</text>
<rect x="200" y="870" width="184.1" height="14" rx="3" fill="#6366f1"/>
<text x="389.1" y="881" font-size="10" font-family="Menlo,monospace" fill="#334155">21.0 GFLOPS</text>
<rect x="200" y="887" width="184.1" height="14" rx="3" fill="#f59e0b"/>
<text x="389.1" y="898" font-size="10" font-family="Menlo,monospace" fill="#334155">21.0 GFLOPS</text>
<rect x="200" y="904" width="184.1" height="14" rx="3" fill="#ef4444"/>
<text x="389.1" y="915" font-size="10" font-family="Menlo,monospace" fill="#334155">21.0 GFLOPS</text>
<rect x="200" y="921" width="700.0" height="14" rx="3" fill="#10b981"/>
<text x="905.0" y="932" font-size="10" font-family="Menlo,monospace" fill="#334155">79.9 GFLOPS</text>
<text x="12" y="988" font-size="11" font-family="Menlo,monospace" fill="#111827">1×768×768</text>
<rect x="200" y="950" width="204.4" height="14" rx="3" fill="#6366f1"/>
<text x="409.4" y="961" font-size="10" font-family="Menlo,monospace" fill="#334155">23.3 GFLOPS</text>
<rect x="200" y="967" width="204.4" height="14" rx="3" fill="#f59e0b"/>
<text x="409.4" y="978" font-size="10" font-family="Menlo,monospace" fill="#334155">23.3 GFLOPS</text>
<rect x="200" y="984" width="204.4" height="14" rx="3" fill="#ef4444"/>
<text x="409.4" y="995" font-size="10" font-family="Menlo,monospace" fill="#334155">23.3 GFLOPS</text>
<rect x="200" y="1001" width="184.8" height="14" rx="3" fill="#10b981"/>
<text x="389.8" y="1012" font-size="10" font-family="Menlo,monospace" fill="#334155">21.1 GFLOPS</text>
</svg>