<svg xmlns="http://www.w3.org/2000/svg" viewBox="0 0 1100 436" width="100%" height="auto">
<rect width="1100" height="436" fill="#ffffff"/>
<text x="24" y="32" font-size="22" font-family="Menlo, monospace" fill="#0f172a">Single P-core GFLOPS</text>
<text x="24" y="52" font-size="12" font-family="Menlo, monospace" fill="#475569">Peak throughput per P-core for each AMX instruction. Higher is better.</text>
<rect x="260" y="62" width="12" height="12" rx="2" fill="#2563eb"/>
<text x="276" y="73" font-size="11" font-family="Menlo, monospace" fill="#334155">Apple M4 Pro (Virtual)</text>
<text x="16" y="94" font-size="12" font-family="Menlo, monospace" fill="#111827">fma16 matrix</text>
<rect x="260" y="80" width="720.0" height="16" rx="3" fill="#2563eb"/>
<text x="986.0" y="92" font-size="10" font-family="Menlo, monospace" fill="#334155">1995.9 GFLOPS</text>
<text x="16" y="126" font-size="12" font-family="Menlo, monospace" fill="#111827">mac16 matrix</text>
<rect x="260" y="112" width="709.4" height="16" rx="3" fill="#2563eb"/>
<text x="975.4" y="124" font-size="10" font-family="Menlo, monospace" fill="#334155">1966.6 GFLOPS</text>
<text x="16" y="158" font-size="12" font-family="Menlo, monospace" fill="#111827">fma32 matrix</text>
<rect x="260" y="144" width="177.5" height="16" rx="3" fill="#2563eb"/>
<text x="443.5" y="156" font-size="10" font-family="Menlo, monospace" fill="#334155">492.2 GFLOPS</text>
<text x="16" y="190" font-size="12" font-family="Menlo, monospace" fill="#111827">fma16 vector</text>
<rect x="260" y="176" width="22.6" height="16" rx="3" fill="#2563eb"/>
<text x="288.6" y="188" font-size="10" font-family="Menlo, monospace" fill="#334155">62.5 GFLOPS</text>
<text x="16" y="222" font-size="12" font-family="Menlo, monospace" fill="#111827">mac16 vector</text>
<rect x="260" y="208" width="22.6" height="16" rx="3" fill="#2563eb"/>
<text x="288.6" y="220" font-size="10" font-family="Menlo, monospace" fill="#334155">62.6 GFLOPS</text>
<text x="16" y="254" font-size="12" font-family="Menlo, monospace" fill="#111827">fma64 matrix</text>
<rect x="260" y="240" width="45.3" height="16" rx="3" fill="#2563eb"/>
<text x="311.3" y="252" font-size="10" font-family="Menlo, monospace" fill="#334155">125.6 GFLOPS</text>
<text x="16" y="286" font-size="12" font-family="Menlo, monospace" fill="#111827">fma32 vector</text>
<rect x="260" y="272" width="11.2" height="16" rx="3" fill="#2563eb"/>
<text x="277.2" y="284" font-size="10" font-family="Menlo, monospace" fill="#334155">31.1 GFLOPS</text>
<text x="16" y="318" font-size="12" font-family="Menlo, monospace" fill="#111827">fma64 vector</text>
<rect x="260" y="304" width="5.6" height="16" rx="3" fill="#2563eb"/>
<text x="271.6" y="316" font-size="10" font-family="Menlo, monospace" fill="#334155">15.6 GFLOPS</text>
</svg>