<svg xmlns="http://www.w3.org/2000/svg" viewBox="0 0 1100 436" width="100%" height="auto">
<rect width="1100" height="436" fill="#ffffff"/>
<text x="24" y="32" font-size="22" font-family="Menlo, monospace" fill="#0f172a">Whole Chip GFLOPS</text>
<text x="24" y="52" font-size="12" font-family="Menlo, monospace" fill="#475569">Aggregate throughput using all cores. Higher is better.</text>
<rect x="260" y="62" width="12" height="12" rx="2" fill="#2563eb"/>
<text x="276" y="73" font-size="11" font-family="Menlo, monospace" fill="#334155">Apple M4 Pro (Virtual)</text>
<text x="16" y="94" font-size="12" font-family="Menlo, monospace" fill="#111827">fma16 matrix</text>
<rect x="260" y="80" width="720.0" height="16" rx="3" fill="#2563eb"/>
<text x="986.0" y="92" font-size="10" font-family="Menlo, monospace" fill="#334155">11152.5 GFLOPS</text>
<text x="16" y="126" font-size="12" font-family="Menlo, monospace" fill="#111827">mac16 matrix</text>
<rect x="260" y="112" width="338.8" height="16" rx="3" fill="#2563eb"/>
<text x="604.8" y="124" font-size="10" font-family="Menlo, monospace" fill="#334155">5247.7 GFLOPS</text>
<text x="16" y="158" font-size="12" font-family="Menlo, monospace" fill="#111827">fma32 matrix</text>
<rect x="260" y="144" width="246.7" height="16" rx="3" fill="#2563eb"/>
<text x="512.7" y="156" font-size="10" font-family="Menlo, monospace" fill="#334155">3821.8 GFLOPS</text>
<text x="16" y="190" font-size="12" font-family="Menlo, monospace" fill="#111827">fma16 vector</text>
<rect x="260" y="176" width="35.5" height="16" rx="3" fill="#2563eb"/>
<text x="301.5" y="188" font-size="10" font-family="Menlo, monospace" fill="#334155">549.3 GFLOPS</text>
<text x="16" y="222" font-size="12" font-family="Menlo, monospace" fill="#111827">mac16 vector</text>
<rect x="260" y="208" width="27.8" height="16" rx="3" fill="#2563eb"/>
<text x="293.8" y="220" font-size="10" font-family="Menlo, monospace" fill="#334155">430.3 GFLOPS</text>
<text x="16" y="254" font-size="12" font-family="Menlo, monospace" fill="#111827">fma64 matrix</text>
<rect x="260" y="240" width="65.2" height="16" rx="3" fill="#2563eb"/>
<text x="331.2" y="252" font-size="10" font-family="Menlo, monospace" fill="#334155">1009.8 GFLOPS</text>
<text x="16" y="286" font-size="12" font-family="Menlo, monospace" fill="#111827">fma32 vector</text>
<rect x="260" y="272" width="17.4" height="16" rx="3" fill="#2563eb"/>
<text x="283.4" y="284" font-size="10" font-family="Menlo, monospace" fill="#334155">269.6 GFLOPS</text>
<text x="16" y="318" font-size="12" font-family="Menlo, monospace" fill="#111827">fma64 vector</text>
<rect x="260" y="304" width="8.0" height="16" rx="3" fill="#2563eb"/>
<text x="274.0" y="316" font-size="10" font-family="Menlo, monospace" fill="#334155">124.4 GFLOPS</text>
</svg>